<svg width="70" height="72" viewBox="0 0 70 72" fill="none" xmlns="http://www.w3.org/2000/svg">
<path d="M34.5508 0C53.5553 0 68.9746 15.826 69.0986 35.3975H0.00390625C0.127897 15.8262 15.5464 0.000207134 34.5508 0Z" fill="#2757D7"/>
<path d="M-0.000386079 35.6352C-0.000386475 40.3149 0.893275 44.9487 2.62957 49.2722C4.36588 53.5957 6.91081 57.5241 10.1191 60.8332C13.3273 64.1422 17.1361 66.7671 21.3279 68.5579C25.5197 70.3488 30.0124 71.2705 34.5496 71.2705C39.0868 71.2705 43.5795 70.3488 47.7713 68.5579C51.9631 66.7671 55.7719 64.1422 58.9802 60.8332C62.1884 57.5241 64.7333 53.5957 66.4697 49.2722C68.206 44.9488 69.0996 40.3149 69.0996 35.6352L34.5496 35.6352L-0.000386079 35.6352Z" fill="#2757D7" fill-opacity="0.2"/>
<ellipse cx="34.6188" cy="36.0079" rx="25.3278" ry="25.6329" fill="white"/>
<line x1="2.66774e-07" y1="36.053" x2="69.1" y2="36.053" stroke="white" stroke-width="6.10308"/>
<path d="M7.09134 19.7522L9.37749 20.9062L9.13893 21.3788L8.19828 20.904L7.86626 21.5617L7.47947 21.3664L7.81148 20.7087L6.85278 20.2247L7.09134 19.7522ZM7.35797 23.9453C7.45953 23.2204 7.1059 22.6339 6.5957 22.3764L6.5671 22.3619L6.16215 23.1641L5.77987 22.9711L6.82986 20.8912L7.21214 21.0841L6.81022 21.8803L6.83431 21.8925C7.30538 22.1303 7.93447 22.0588 8.43324 21.5646L8.68872 21.9901C8.32846 22.3446 7.88151 22.5004 7.4337 22.4859C7.75798 22.8611 7.92725 23.3488 7.85733 23.8876L7.35797 23.9453ZM8.88708 23.9353C8.42427 23.7036 8.40635 23.0694 8.81512 22.2559C9.22765 21.4425 9.74853 21.0803 10.2106 21.3136C10.6726 21.5468 10.6905 22.181 10.281 22.996C9.86925 23.8079 9.34836 24.1701 8.88708 23.9353ZM9.12488 23.4643C9.36266 23.5881 9.64633 23.3479 9.91379 22.8106C10.188 22.2748 10.2121 21.9054 9.97353 21.7831C9.73197 21.6631 9.45057 21.9025 9.17933 22.4398C8.90886 22.9756 8.88256 23.3457 9.12488 23.4643ZM13.3106 15.0169L13.6358 15.2824L12.5483 16.6145L13.6166 17.4867L13.285 17.8928L12.2167 17.0207L11.1441 18.3345L10.8189 18.069L13.3106 15.0169ZM10.7719 17.4148L9.31055 16.2217L9.64107 15.8168L10.0511 16.1516L11.2709 14.6576L10.8608 14.3228L11.1966 13.9114L12.658 15.1045L10.7719 17.4148ZM10.7721 16.7402L11.9918 15.2461L11.5948 14.922L10.375 16.416L10.7721 16.7402ZM15.6739 10.8222C16.1085 11.3812 16.8923 11.7136 17.6173 11.5172L17.6464 12.0242C17.1089 12.1624 16.5361 12.0354 16.044 11.724C16.2515 12.3122 16.2587 12.9367 16.0064 13.4361L15.5088 13.2934C15.8551 12.629 15.6965 11.7358 15.248 11.1534L15.0255 10.8672L14.2762 11.4499L14.0092 11.1065L15.927 9.61524L16.194 9.95862L15.4514 10.5361L15.6739 10.8222ZM18.6913 12.382L16.0482 8.98283L16.4701 8.65477L19.1132 12.054L18.6913 12.382ZM22.8571 4.93367L23.9139 7.26637L23.4317 7.48483L22.9969 6.52503L22.3258 6.82906L22.147 6.43439L22.8181 6.13036L22.3749 5.15213L22.8571 4.93367ZM20.4349 8.36683C20.9687 7.86588 21.0611 7.18733 20.8252 6.66673L20.812 6.63756L19.9935 7.00838L19.8168 6.61832L21.9391 5.65682L22.1158 6.04688L21.3034 6.41492L21.3146 6.43949C21.5323 6.92016 22.0671 7.25905 22.7656 7.18694L22.6977 7.67856C22.1948 7.72872 21.7489 7.5698 21.4092 7.27762C21.4265 7.77325 21.2524 8.25929 20.86 8.63511L20.4349 8.36683ZM21.6322 9.31809C21.4171 8.84733 21.8008 8.34216 22.6294 7.96493C23.4609 7.59007 24.0938 7.63467 24.3073 8.10613C24.5209 8.57758 24.1372 9.08276 23.307 9.46068C22.4771 9.83484 21.8442 9.79024 21.6322 9.31809ZM22.1128 9.10033C22.2204 9.34589 22.592 9.33673 23.1373 9.08598C23.6869 8.84067 23.9373 8.56807 23.8282 8.3232C23.7154 8.07818 23.346 8.08819 22.7978 8.33656C22.2511 8.58424 21.9985 8.85601 22.1128 9.10033ZM29.9291 2.84875L30.4911 5.91154L29.9687 6.00738L29.4067 2.9446L29.9291 2.84875ZM26.7218 4.8188C26.607 4.20224 27.0252 3.66956 27.6703 3.55119C28.3153 3.43283 28.8921 3.78295 29.0053 4.39981C29.1203 5.02663 28.7048 5.55539 28.0594 5.67209C27.4147 5.79212 26.8352 5.44592 26.7218 4.8188ZM27.2309 4.72539C27.2983 5.10212 27.6129 5.28437 27.9761 5.21773C28.3293 5.15292 28.5619 4.87026 28.4929 4.49384C28.4256 4.12736 28.1068 3.94074 27.7536 4.00555C27.3905 4.07219 27.162 4.35922 27.2309 4.72539ZM27.8869 7.51554L27.6298 6.11432L28.1554 6.01786L28.335 6.99623L30.7328 6.55624L30.8104 6.9791L27.8869 7.51554ZM37.5267 4.54345L37.5002 4.97254L33.5811 4.73045L33.6076 4.30135L37.5267 4.54345ZM33.8336 3.70553C34.6378 3.67582 35.1793 3.38664 35.2823 3.03153L34.0505 2.95544L34.077 2.52634L37.286 2.72457L37.2595 3.15367L36.0176 3.07695C36.0748 3.43689 36.5679 3.79505 37.3808 3.92465L37.1684 4.32706C36.3925 4.19974 35.8328 3.85437 35.6258 3.40409C35.3668 3.82389 34.7754 4.09985 33.9881 4.1306L33.8336 3.70553ZM33.9707 5.83388C34.0017 5.33243 34.5833 5.07782 35.5172 5.13551C36.4477 5.19299 36.9885 5.51693 36.9592 6.01849C36.9263 6.5232 36.3501 6.77307 35.4197 6.71391C34.4857 6.6579 33.9395 6.3387 33.9707 5.83388ZM34.5092 5.86714C34.4904 6.11598 34.821 6.26139 35.4453 6.29827C36.0628 6.33811 36.4121 6.23469 36.4308 5.98585C36.443 5.73492 36.1092 5.58761 35.4917 5.54778C34.8673 5.5109 34.5213 5.61621 34.5092 5.86714ZM42.3507 4.37981C42.108 5.14119 42.2341 6.00596 42.7973 6.504L42.362 6.80938C41.9704 6.43332 41.7831 5.89407 41.7774 5.30124C41.4184 5.81143 40.9343 6.17558 40.3862 6.26278L40.1988 5.75179C40.9663 5.65317 41.5914 4.98005 41.8383 4.21647L42.0477 3.5595L42.5601 3.72283L42.3507 4.37981ZM42.6776 5.30857L42.8076 4.90057L43.667 5.1745L44.0899 3.8477L44.5911 4.00744L43.2803 8.11958L42.7791 7.95983L43.5369 5.5825L42.6776 5.30857ZM48.6577 5.82376L48.3699 6.29006L49.225 6.81772L49.5128 6.35142L49.9633 6.62942L48.977 8.22775L47.2252 7.14675L48.2114 5.54842L48.6577 5.82376ZM47.2141 7.9898L47.431 7.63828L49.8314 9.11945L49.2391 10.0793L47.2892 8.87613L47.1086 9.16882L49.1733 10.4428L48.9519 10.8015L46.4425 9.25306L47.0463 8.27455L48.9904 9.47418L49.1639 9.19297L47.2141 7.9898ZM47.8918 7.06483L48.747 7.59249L49.0134 7.16063L48.1583 6.63297L47.8918 7.06483ZM49.4692 8.6919L50.6263 6.81666L51.0797 7.09643L50.6229 7.83677L51.1351 8.15283L50.9084 8.52013L50.3962 8.20407L49.9226 8.97167L49.4692 8.6919ZM53.3757 11.7411L53.028 12.0943L54.3915 13.4368L54.7392 13.0836L55.1129 13.4515L53.8496 14.7345L51.7412 12.6586L53.0045 11.3756L53.3757 11.7411ZM52.8821 10.8079L53.1802 10.5051L55.1936 12.4876C55.5791 12.2283 55.8252 11.9904 56.0393 11.7753L54.2998 10.0625L54.6002 9.75736L56.717 11.8416L56.4816 12.0806C56.2509 12.3149 55.999 12.5708 55.5672 12.8555L55.9877 13.2695L55.6896 13.5722L52.8821 10.8079ZM52.4141 12.7178L53.7776 14.0603L54.104 13.7288L52.7405 12.3862L52.4141 12.7178ZM61.4758 17.5479L57.8583 19.8834L57.5684 19.4344L61.1859 17.0989L61.4758 17.5479ZM56.9182 16.2421C57.9803 16.8988 58.8743 16.9438 59.7498 16.4909L58.9223 15.2091L59.2749 14.9814L60.3951 16.7165C59.3163 17.4109 58.1316 17.5838 56.7121 16.7062L56.9182 16.2421ZM63.9753 22.9774L63.7382 23.0747C63.4655 23.1829 63.0678 23.3461 62.5256 23.4592L62.3709 22.9578C62.8153 22.8684 63.1274 22.7585 63.3742 22.6627L62.7381 21.1123L63.142 20.9466L63.9753 22.9774ZM61.3181 21.4179C61.4141 21.6519 61.5238 21.9149 61.6446 22.1915L62.4541 21.8594L62.6538 22.346L61.8599 22.6717C62.0466 23.078 62.2513 23.4879 62.4668 23.8533L62.122 24.0257C61.6334 23.2567 61.2306 22.3195 60.943 21.6229L61.3181 21.4179ZM59.6747 22.7866L60.8647 22.2983L61.067 22.7912L60.2746 23.1163L61.2026 25.3779L60.8048 25.5411L59.6747 22.7866ZM61.4694 24.5358L64.4563 23.3103L64.6611 23.8094L63.4195 24.3188L63.6314 24.8351L63.2196 25.0041L63.0078 24.4878L61.6742 25.035L61.4694 24.5358Z" fill="white"/>
<path d="M21.7702 32.7936L20.0511 34.5612V37.0862H17.2246V25.8465H20.0511V31.1426L25.1066 25.8465H28.5668L23.5987 30.9354L28.8291 37.0862H25.3106L21.7702 32.8001V32.7936Z" fill="#2757D7"/>
<path d="M40.8925 31.4599C40.8925 28.132 43.5733 25.6976 47.2156 25.6976C50.4646 25.6976 52.6354 27.5169 53.1162 29.8348H50.45C50.1732 28.7859 48.9712 27.9507 47.2739 27.9507C45.1249 27.9507 43.5369 29.4204 43.5369 31.4663C43.5369 33.5123 45.1322 34.982 47.2739 34.982C48.9712 34.982 50.3626 33.9461 50.5666 32.949H53.2328C52.8685 35.1568 50.4937 37.2287 47.2156 37.2287C43.5733 37.2287 40.8925 34.7942 40.8925 31.4663V31.4599Z" fill="#2757D7"/>
<path d="M33.9357 25.6328C30.3589 25.6328 27.445 28.2226 27.445 31.4016C27.445 34.5806 30.3589 37.1704 33.9357 37.1704C34.2562 37.1704 34.584 37.151 34.9045 37.1056L35.1012 37.0797V34.6324L34.8171 34.6907C34.5257 34.7489 34.227 34.7813 33.9357 34.7813C31.8377 34.7813 30.1331 33.2663 30.1331 31.4016C30.1331 29.5369 31.8377 28.0219 33.9357 28.0219C36.0336 28.0219 37.7383 29.5369 37.7383 31.4016C37.7383 32.2109 37.4104 33.0008 36.8131 33.6094L36.7548 33.6677V36.6006L37.0972 36.4323C39.1515 35.4093 40.4263 33.4799 40.4263 31.4016C40.4263 28.2226 37.5124 25.6328 33.9357 25.6328Z" fill="#2757D7"/>
<path d="M29.441 33.0979C29.441 30.0161 31.9761 27.5104 35.0866 27.5104C37.5561 27.5104 39.6614 29.0902 40.4263 31.2786C40.3535 28.1514 37.476 25.6328 33.9429 25.6328C30.4099 25.6328 27.4523 28.2226 27.4523 31.4016C27.4523 33.4281 28.6324 35.2151 30.4172 36.2445C29.798 35.3511 29.441 34.2698 29.441 33.1044V33.0979Z" fill="#187EFF"/>
<path d="M22.0313 41.7106H21.2852V40.4363C21.2852 40.3885 21.2424 40.3491 21.1904 40.3491H20.6614C20.6094 40.3491 20.5666 40.3885 20.5666 40.4363V43.6123C20.5666 43.677 20.6094 43.7417 20.9244 43.7417C21.1812 43.7417 21.2821 43.7051 21.2821 43.6123V42.262H22.0283C22.0894 42.262 22.1414 42.2142 22.1414 42.1579V41.8175C22.1414 41.7612 22.0894 41.7134 22.0283 41.7134L22.0313 41.7106Z" fill="black"/>
<path d="M20.1232 41.0101C20.1232 40.8076 20.0957 40.7542 19.9978 40.7542H18.9796V40.3744C18.9796 40.3406 18.949 40.3125 18.9123 40.3125H18.3221C18.2854 40.3125 18.2549 40.3406 18.2549 40.3744V40.7542H17.31C17.2274 40.7542 17.1602 40.816 17.1602 40.892V41.1424C17.1602 41.2183 17.2274 41.2802 17.31 41.2802H19.9948C20.0926 41.2802 20.1202 41.2239 20.1202 41.013L20.1232 41.0101Z" fill="black"/>
<path d="M21.2699 44.5293H18.8909C18.8053 44.5293 18.738 44.4646 18.738 44.3887V43.7501C18.738 43.6995 18.6921 43.6573 18.6371 43.6573H18.1234C18.0683 43.6573 18.0225 43.6995 18.0225 43.7501V44.4843C18.0225 44.5828 18.0714 44.8078 18.1845 44.9091C18.2946 45.016 18.5576 45.0723 18.7044 45.0723H21.273C21.3647 45.0723 21.3922 45.0104 21.3922 44.805C21.3922 44.5997 21.3586 44.5321 21.273 44.5321L21.2699 44.5293Z" fill="black"/>
<path d="M19.8113 42.428C19.8113 41.9047 19.2915 41.4968 18.6279 41.4968C17.9644 41.4968 17.4445 41.9075 17.4445 42.428C17.4445 42.9484 17.9644 43.3591 18.6279 43.3591C19.2915 43.3591 19.8113 42.9484 19.8113 42.428ZM18.1387 42.4223C18.1387 42.217 18.3069 42.0088 18.6279 42.0088C18.949 42.0088 19.1172 42.217 19.1172 42.4223C19.1172 42.6277 18.949 42.8471 18.6279 42.8471C18.3069 42.8471 18.1387 42.6333 18.1387 42.4223Z" fill="black"/>
<path d="M27.1196 42.0791H26.4591V40.9145C26.4591 40.7851 26.4469 40.5516 26.3276 40.4419C26.242 40.3631 26.0524 40.3209 25.7619 40.3209H23.2575C23.1872 40.3209 23.126 40.3744 23.126 40.4419V40.7457C23.126 40.8104 23.1841 40.8667 23.2575 40.8667H25.5876C25.6641 40.8667 25.7405 40.8836 25.7405 41.0073V42.0791H22.5481C22.4839 42.0791 22.4319 42.1269 22.4319 42.186V42.4927C22.4319 42.5517 22.4839 42.5995 22.5481 42.5995H24.4593V43.3281H23.2178C23.1413 43.3281 23.0802 43.3844 23.0802 43.4547V43.7248C23.0802 43.7951 23.1413 43.8514 23.2178 43.8514H25.8231V45.0441C25.8231 45.1342 25.9148 45.1651 26.1808 45.1651C26.3979 45.1651 26.5386 45.1567 26.5386 45.0441V43.5926C26.5386 43.3872 26.4713 43.3253 26.2481 43.3253H25.184V42.5967H27.1135C27.2358 42.5967 27.2602 42.5517 27.2602 42.3407C27.2602 42.1298 27.2327 42.0791 27.1135 42.0791H27.1196Z" fill="black"/>
<path d="M30.5994 43.4266C30.1774 43.0609 29.468 42.3351 29.468 41.5953V40.7232C29.468 40.6585 29.4099 40.6051 29.3365 40.6051H28.8442C28.7739 40.6051 28.7158 40.6585 28.7158 40.7232V41.6065C28.7158 42.3464 28.0706 43.0412 27.5293 43.4913C27.5049 43.5138 27.4896 43.5363 27.4896 43.5644C27.4896 43.632 27.566 43.7135 27.6486 43.7951C27.8382 43.9808 27.9238 43.9836 28.0033 43.9273C28.3917 43.6404 28.884 43.1481 29.1103 42.6952L29.1347 42.6446L29.1592 42.6952C29.4191 43.2184 29.945 43.6826 30.1591 43.8598C30.2478 43.9301 30.3212 43.8739 30.4771 43.7248C30.5719 43.632 30.6422 43.556 30.6422 43.5026C30.6422 43.4772 30.6269 43.4547 30.5933 43.4294L30.5994 43.4266Z" fill="black"/>
<path d="M32.5136 41.8794H31.7492V40.4644C31.7492 40.3856 31.6788 40.3209 31.5932 40.3209H31.1774C31.0917 40.3209 31.0214 40.3856 31.0214 40.4644V45.0413C31.0214 45.1285 31.1223 45.1623 31.3792 45.1623C31.636 45.1623 31.7492 45.1257 31.7492 45.0357V42.4392H32.5136C32.5656 42.4392 32.6115 42.3998 32.6115 42.3492V41.9666C32.6115 41.9188 32.5687 41.8766 32.5136 41.8766V41.8794Z" fill="black"/>
<path d="M36.7671 43.1059C36.7121 43.1059 36.6662 43.1481 36.6662 43.1987V43.5813H34.8223V43.1987C34.8223 43.1481 34.7765 43.1059 34.7214 43.1059H34.2138C34.1588 43.1059 34.1129 43.1481 34.1129 43.1987V44.5772C34.1129 44.7347 34.1465 44.9485 34.2444 45.0357C34.3606 45.1454 34.6236 45.1482 34.7673 45.1482H36.9965C37.2503 45.1482 37.3787 45.0273 37.3787 44.791V43.1987C37.3787 43.1481 37.3328 43.1059 37.2778 43.1059H36.7671ZM36.6662 44.6109H34.9232C34.859 44.6109 34.8193 44.5715 34.8193 44.5068V44.113H36.6632V44.6109H36.6662Z" fill="black"/>
<path d="M36.8803 40.3209C36.7916 40.3209 36.7213 40.3856 36.7213 40.4672V41.1874H35.6938L35.6877 41.1705C35.5165 40.681 35.0119 40.3659 34.4003 40.3659C33.6359 40.3659 33.0579 40.8639 33.0579 41.5221C33.0579 42.1804 33.6359 42.6643 34.4003 42.6643C35.067 42.6643 35.596 42.3014 35.7213 41.7584L35.7274 41.7387H36.7243V42.6389C36.7243 42.7346 36.8313 42.774 37.0821 42.774C37.3328 42.774 37.4398 42.7346 37.4398 42.6389V40.4672C37.4398 40.3856 37.3695 40.3209 37.2808 40.3209H36.8803ZM34.4003 42.1213C34.0181 42.1213 33.7521 41.8766 33.7521 41.5249C33.7521 41.1733 34.0242 40.9117 34.4003 40.9117C34.7765 40.9117 35.0547 41.1649 35.0547 41.5249C35.0547 41.885 34.7856 42.1213 34.4003 42.1213Z" fill="black"/>
<path d="M42.8645 41.8794H42.1153V40.4335C42.1153 40.3716 42.0603 40.3209 41.993 40.3209H41.5068C41.4395 40.3209 41.3845 40.3716 41.3845 40.4335V45.0385C41.3845 45.1257 41.4854 45.1595 41.7422 45.1595C41.9991 45.1595 42.1122 45.1229 42.1122 45.0329V42.4392H42.8614C42.9226 42.4392 42.9715 42.3942 42.9715 42.3379V41.9807C42.9715 41.9244 42.9226 41.8794 42.8614 41.8794H42.8645Z" fill="black"/>
<path d="M39.8189 41.5081V41.3252H40.7637C40.8585 41.3252 40.8891 41.2577 40.8891 41.0439C40.8891 40.8301 40.8585 40.7654 40.7637 40.7654H38.1707C38.1065 40.7654 38.0545 40.8132 38.0545 40.8723V41.2183C38.0545 41.2774 38.1065 41.3252 38.1707 41.3252H39.0727V41.5193C39.0727 42.2676 38.5346 42.8302 37.9536 43.3253C37.9291 43.3478 37.9169 43.3675 37.9138 43.39C37.9138 43.4463 37.9933 43.5251 38.0851 43.6123C38.2655 43.7895 38.348 43.8232 38.4275 43.7614C38.7394 43.5279 39.2256 43.0215 39.4611 42.6052L39.4855 42.5602L39.51 42.6052C39.7363 43.0018 40.1155 43.4379 40.4549 43.691C40.5436 43.7557 40.5741 43.7389 40.7668 43.5644H40.7698C40.8799 43.4604 40.9289 43.39 40.9289 43.3338C40.9289 43.3028 40.9136 43.2747 40.8799 43.2466C40.1766 42.6361 39.8189 42.0482 39.8189 41.5053V41.5081Z" fill="black"/>
<path d="M46.1731 41.6656C46.1731 41.0073 45.5585 40.4728 44.8001 40.4728C44.0418 40.4728 43.421 41.0073 43.421 41.6656C43.421 42.3239 44.0387 42.8555 44.8001 42.8555C45.5615 42.8555 46.1731 42.3211 46.1731 41.6656ZM44.1182 41.6656C44.1182 41.2886 44.4056 41.0158 44.8001 41.0158C45.1946 41.0158 45.4789 41.2886 45.4789 41.6656C45.4789 42.0426 45.1946 42.3098 44.8001 42.3098C44.4056 42.3098 44.1182 42.0397 44.1182 41.6656Z" fill="black"/>
<path d="M47.7448 44.6222H45.3536C45.268 44.6222 45.2007 44.5575 45.2007 44.4815V43.4407C45.2007 43.3816 45.1487 43.3338 45.0845 43.3338H44.5983C44.5341 43.3338 44.4821 43.3816 44.4821 43.4407V44.5743C44.4821 44.6672 44.4821 44.9457 44.5983 45.0469C44.7145 45.1595 45.0539 45.1595 45.164 45.1595H47.7418C47.8335 45.1595 47.861 45.0976 47.861 44.8922C47.861 44.6869 47.8274 44.6194 47.7418 44.6194L47.7448 44.6222Z" fill="black"/>
<path d="M47.3901 43.6376C47.647 43.6376 47.7479 43.601 47.7479 43.5082V40.4447C47.7479 40.3772 47.6898 40.3238 47.6164 40.3238H47.1638C47.0904 40.3238 47.0323 40.3772 47.0323 40.4447V43.5082C47.0323 43.5729 47.0751 43.6376 47.3901 43.6376Z" fill="black"/>
<path d="M49.2248 42.0932C49.867 41.9385 50.5428 41.57 50.8332 41.2183L50.8577 41.1902L50.8791 41.2211C51.1543 41.5981 51.9524 41.9469 52.3897 42.0791C52.5028 42.1129 52.5212 42.1101 52.6221 41.8935L52.6374 41.8625C52.6833 41.7669 52.7169 41.7022 52.7016 41.674C52.6955 41.66 52.6741 41.6487 52.6374 41.6375C52.2613 41.5221 51.4387 41.1564 51.243 40.8357L51.2185 40.7964H52.4172C52.5151 40.7964 52.5426 40.7682 52.5426 40.5601C52.5426 40.3519 52.5151 40.3238 52.4172 40.3238H49.2095C49.1545 40.3238 49.1086 40.3659 49.1086 40.4166V40.7035C49.1086 40.7542 49.1545 40.7964 49.2095 40.7964H50.4266L50.4052 40.8357C50.2064 41.1733 49.3716 41.5165 48.9863 41.6178C48.9404 41.629 48.919 41.6431 48.9099 41.66C48.8915 41.6965 48.9221 41.7781 48.9924 41.9244C49.0842 42.1129 49.1025 42.1298 49.2218 42.0988L49.2248 42.0932Z" fill="black"/>
<path d="M53.1083 42.3886H48.5399C48.4756 42.3886 48.4237 42.4364 48.4237 42.4955V42.7993C48.4237 42.8584 48.4756 42.9062 48.5399 42.9062H53.1083C53.2306 42.9062 53.2551 42.8612 53.2551 42.6502C53.2551 42.4392 53.2276 42.3886 53.1083 42.3886Z" fill="black"/>
<path d="M50.8088 43.1959C50.081 43.1959 49.3471 43.5448 49.3471 44.2115C49.3471 44.8782 50.0841 45.227 50.8088 45.227C51.5335 45.227 52.2704 44.8782 52.2704 44.2115C52.2704 43.5448 51.5335 43.1959 50.8088 43.1959ZM50.8149 44.6981C50.3715 44.6981 50.0627 44.4984 50.0627 44.2115C50.0627 43.9245 50.3715 43.7248 50.8149 43.7248C51.2583 43.7248 51.5549 43.9301 51.5549 44.2115C51.5549 44.4928 51.243 44.6981 50.8149 44.6981Z" fill="black"/>
</svg>
