<svg width="80" height="26" viewBox="0 0 80 26" fill="none" xmlns="http://www.w3.org/2000/svg">
<path d="M55.5096 14.4192L54.0209 12.9075C53.6141 12.496 53.3275 12.1354 53.161 11.8256C52.9992 11.5298 52.916 11.2246 52.916 10.9241C52.916 10.3786 53.1703 9.91167 53.6927 9.50021C54.2151 9.08875 54.8577 8.88071 55.5975 8.88071C56.0366 8.88071 56.3834 8.96393 56.6377 9.13036C56.8734 9.29217 56.9936 9.50021 56.9936 9.77297C56.9936 10.1521 56.8041 10.4387 56.4158 10.6606C56.0089 10.8872 55.4356 11.0027 54.7098 11.0027H54.6543L54.5295 11.1599V11.3957L54.6913 11.5113H54.7237C54.8439 11.5251 54.9548 11.5344 55.0473 11.539C55.1444 11.5436 55.2322 11.5483 55.3154 11.5483C56.1754 11.5483 56.8919 11.3818 57.4467 11.049C58.02 10.7069 58.3112 10.2723 58.3112 9.75448C58.3112 9.28754 58.0939 8.91307 57.664 8.64492C57.2433 8.3814 56.6746 8.25195 55.9719 8.25195C54.7699 8.25195 53.7343 8.55247 52.8975 9.14423C52.0469 9.74524 51.6169 10.4711 51.6169 11.3032C51.6169 11.6823 51.7279 12.0892 51.9405 12.5006C52.1532 12.9075 52.4676 13.3189 52.8698 13.7211L54.3122 15.1636C54.6404 15.4918 54.8901 15.8293 55.0519 16.1668C55.2137 16.4997 55.3016 16.8279 55.3016 17.1469C55.3016 17.8912 54.9409 18.5477 54.2244 19.1025C53.5032 19.6665 52.6109 19.9531 51.5753 19.9531C50.9234 19.9531 50.401 19.8191 50.0081 19.5602C49.629 19.3059 49.4487 18.9823 49.4487 18.5708C49.4487 17.9421 49.7445 17.4751 50.3594 17.1469C50.9882 16.814 51.9405 16.643 53.1888 16.643H53.2443L53.3922 16.4673L53.3691 16.1991L53.1934 16.0882H52.7912C51.2656 16.0882 50.0774 16.2824 49.2545 16.6707C48.4084 17.0683 47.9785 17.6601 47.9785 18.4275C47.9785 19.0701 48.2975 19.5879 48.9216 19.9716C49.5319 20.3461 50.3548 20.5357 51.3673 20.5357C52.1439 20.5357 52.8883 20.4108 53.5771 20.175C54.2706 19.93 54.8855 19.574 55.4125 19.1163C55.787 18.7927 56.0829 18.4183 56.3048 18.0068C56.5221 17.5907 56.633 17.1746 56.633 16.777C56.633 16.3794 56.5359 15.9587 56.3464 15.5565C56.1615 15.1589 55.8795 14.7752 55.5189 14.4192H55.5096Z" fill="#E50013"/>
<path d="M59.467 12.9959C59.6981 13.1253 59.9386 13.19 60.1743 13.19C60.3454 13.19 60.4749 13.1022 60.5488 12.9496C60.6089 12.8156 60.6413 12.6075 60.6413 12.3163C60.6413 12.1729 60.5396 12.0574 60.3361 11.9649C60.2899 11.9464 60.2483 11.9279 60.2159 11.9094C60.179 11.8909 60.105 11.8447 59.9894 11.7615C59.8461 11.6644 59.7398 11.6182 59.6519 11.6182C59.5641 11.6182 59.4762 11.6829 59.2913 12.0204C59.1526 12.27 59.0879 12.4411 59.0879 12.552C59.0879 12.7092 59.2127 12.8525 59.4716 12.9959H59.467Z" fill="#E50013"/>
<path d="M76.4303 15.7639C76.4211 15.7223 76.4026 15.6761 76.3702 15.6298L76.2824 15.4865L76.1807 15.6252C75.1959 16.9844 74.4192 17.9876 73.8645 18.6025C73.1664 19.3746 72.8659 19.4902 72.7457 19.4902C72.6855 19.4902 72.6393 19.4717 72.5977 19.4301C72.5469 19.3838 72.5423 19.3468 72.5423 19.3237C72.5423 19.1758 72.6393 18.732 73.0924 17.4467C73.1479 17.2896 73.1895 17.1693 73.2265 17.0815C73.3975 16.5822 73.5085 16.2262 73.5686 15.9904C73.6333 15.7362 73.6703 15.5374 73.6703 15.3802C73.6703 15.0889 73.5686 14.8393 73.3652 14.6359C73.1664 14.4371 72.9167 14.3307 72.6301 14.3307C72.177 14.3307 71.6454 14.6544 71.0027 15.3247C70.4988 15.8471 69.9117 16.6099 69.2506 17.5854L70.1382 14.7468C70.1475 14.7237 70.1521 14.7006 70.1567 14.6682C70.1567 14.6497 70.1613 14.622 70.1613 14.5896C70.1613 14.4926 70.1197 14.4371 70.0873 14.4047C70.0411 14.3631 69.981 14.3446 69.9071 14.3446C69.8747 14.3446 69.847 14.3446 69.8238 14.3446L69.1905 14.4925C69.0749 14.5203 68.9824 14.5711 68.9131 14.6405C68.8437 14.7145 68.7836 14.83 68.7235 15.0196L68.2242 16.6469C67.6833 17.345 67.1655 17.9738 66.6709 18.5193C66.0652 19.185 65.5382 19.7028 65.0897 20.0588L65.9589 17.0723C66.2039 16.2447 66.3611 15.6899 66.4304 15.4218C66.5275 15.0566 66.5368 14.9549 66.5368 14.9086C66.5368 14.7006 66.375 14.5434 66.0606 14.4417C65.7832 14.3492 65.3995 14.3076 64.9141 14.3076C64.3824 14.3076 63.8738 14.4139 63.3977 14.622C62.9261 14.83 62.4545 15.1537 62.0015 15.579C61.553 15.9997 61.2017 16.4712 60.9566 16.9798C60.7625 17.382 60.6515 17.7935 60.6099 18.2003C60.462 18.376 60.3233 18.5378 60.1938 18.6811C59.4356 19.5133 59.0334 19.6843 58.8254 19.6843C58.7283 19.6843 58.6543 19.6566 58.6035 19.5965C58.548 19.5318 58.5202 19.4393 58.5202 19.3145C58.5202 19.2451 58.5434 19.1203 58.5804 18.9446C58.6266 18.7597 58.6913 18.5286 58.7838 18.2558L59.921 14.7237C59.921 14.7237 59.9349 14.6913 59.9396 14.6682C59.9442 14.6451 59.9488 14.622 59.9488 14.5804C59.9488 14.4925 59.9118 14.4371 59.8748 14.4093C59.8286 14.3723 59.7731 14.3492 59.7084 14.3492H59.6206L59.0057 14.4648C58.904 14.4833 58.8161 14.5295 58.7514 14.5896C58.6867 14.6497 58.6404 14.7329 58.5988 14.8439L57.5263 18.1448C57.4477 18.3945 57.3876 18.6025 57.346 18.7874C57.3043 18.977 57.2812 19.1296 57.2812 19.2498C57.2812 19.5919 57.3829 19.8693 57.5817 20.0773C57.7805 20.2853 58.0441 20.3917 58.3723 20.3917C58.8577 20.3917 59.3755 20.1651 59.9164 19.7121C60.1383 19.5318 60.3788 19.296 60.6377 19.014C60.6978 19.3191 60.8087 19.5872 60.9844 19.8092C61.2572 20.1513 61.6039 20.3223 62.02 20.3223C62.4684 20.3223 62.9353 20.0912 63.3977 19.6381C63.6704 19.3746 63.9571 19.014 64.2483 18.5748C64.1374 18.9123 64.0449 19.2128 63.9756 19.4763C63.8461 19.9617 63.7629 20.4102 63.7259 20.8124C62.8706 21.3579 62.2465 21.9266 61.8674 22.4952C61.4744 23.0777 61.2756 23.7481 61.2756 24.4832C61.2756 24.5987 61.2849 24.7051 61.3034 24.7975C61.3265 24.89 61.3589 24.9778 61.4005 25.0611L61.4282 25.1119L61.6131 25.1443L61.6455 25.1304C62.5008 24.7744 63.1989 24.2428 63.7213 23.5539C64.2345 22.8743 64.6136 21.9959 64.854 20.9372C65.3764 20.5858 65.945 20.0958 66.546 19.4809C66.9205 19.0972 67.3273 18.6395 67.7619 18.1217L67.2302 19.8554C67.2164 19.8924 67.2071 19.9294 67.2025 19.9664C67.1979 19.9987 67.1886 20.0496 67.1886 20.1143C67.1886 20.216 67.2256 20.2761 67.2626 20.3085C67.3088 20.3547 67.3736 20.3778 67.4522 20.3778H67.5492L68.1641 20.2622C68.3768 20.2206 68.5386 20.0588 68.6449 19.786C68.6819 19.689 68.7143 19.6104 68.742 19.5549C68.8668 19.2683 69.024 18.9631 69.2182 18.6441C69.417 18.3113 69.6482 17.9599 69.9024 17.5993C70.4387 16.8503 70.9195 16.2632 71.3264 15.8425C71.8395 15.3155 72.0753 15.2369 72.1724 15.2369C72.214 15.2369 72.251 15.2507 72.2833 15.2785C72.3203 15.3155 72.325 15.3432 72.325 15.3663C72.325 15.3894 72.3203 15.4634 72.2371 15.7316C72.177 15.935 72.0753 16.2632 71.9274 16.707C71.8626 16.9104 71.7702 17.1786 71.65 17.5253C71.331 18.4546 71.1784 19.0232 71.1784 19.2544C71.1784 19.5826 71.2848 19.86 71.4928 20.0819C71.7008 20.2992 71.969 20.4102 72.2833 20.4102C72.6439 20.4102 73.0415 20.216 73.4992 19.8184C73.943 19.4347 74.4932 18.8013 75.1867 17.8906C75.2607 17.8027 75.3577 17.6779 75.4826 17.5115C76.3425 16.388 76.4396 16.0413 76.4396 15.8795C76.4396 15.8379 76.4396 15.7963 76.4257 15.7547L76.4303 15.7639ZM63.1989 23.1656C62.977 23.5724 62.6811 23.8868 62.3205 24.1087C62.2927 23.9376 62.2835 23.8544 62.2835 23.8128C62.2835 23.3366 62.4083 22.9113 62.6533 22.5414C62.8753 22.2178 63.222 21.8942 63.6936 21.5798C63.5872 22.2224 63.4208 22.7495 63.1942 23.1609L63.1989 23.1656ZM63.675 18.3667C62.9908 19.3376 62.5563 19.541 62.3112 19.541C62.1818 19.541 62.0847 19.4902 62.0061 19.3885C61.9229 19.2775 61.8813 19.1203 61.8813 18.9215C61.8813 18.5332 62.0061 18.0755 62.2465 17.5669C62.4915 17.0492 62.8475 16.5175 63.296 15.9812C63.6057 15.6113 63.8877 15.334 64.142 15.1675C64.387 15.0057 64.6182 14.9179 64.8262 14.9179C64.9557 14.9179 65.0759 14.941 65.1683 14.978C65.2423 15.0103 65.3117 15.0519 65.3764 15.1074C64.8031 16.4805 64.2298 17.5716 63.675 18.3667Z" fill="#E50013"/>
<path d="M78.9978 7.34154C78.9054 6.97632 78.7667 6.63421 78.591 6.30596C78.3968 5.94073 78.1564 5.59862 77.8837 5.275C77.6664 5.02072 77.4306 4.78032 77.1763 4.55379C76.9498 4.35037 76.714 4.15621 76.469 3.97128C76.2471 3.80485 76.0159 3.64765 75.7848 3.49971C75.549 3.35177 75.3132 3.20846 75.0774 3.07439C74.8416 2.94032 74.6012 2.81548 74.3701 2.70453C74.1297 2.58433 73.8893 2.47337 73.6627 2.37166C73.4177 2.26071 73.1773 2.16363 72.9554 2.07579C72.6965 1.96946 72.4561 1.88161 72.2481 1.81227C71.9383 1.70131 71.6887 1.62733 71.5407 1.57648C71.4251 1.5395 71.365 1.52563 71.365 1.52563C71.2032 1.47015 71.0322 1.41467 70.8565 1.36382C70.63 1.29447 70.3942 1.22975 70.1491 1.16503C69.918 1.10955 69.6822 1.05407 69.4418 1.00321C69.2107 0.95236 68.9749 0.90613 68.7345 0.859898C68.5033 0.81829 68.2675 0.776687 68.0271 0.735078C67.7914 0.698093 67.5556 0.661099 67.3198 0.624113C67.084 0.587128 66.8482 0.55477 66.6124 0.527031C66.372 0.494669 66.1363 0.466929 65.9051 0.43919C65.6739 0.416075 65.4474 0.388334 65.2209 0.365218C64.9805 0.337479 64.7447 0.314362 64.5135 0.291246C64.2685 0.268131 64.0327 0.245022 63.8062 0.22653C63.5565 0.203414 63.3208 0.184924 63.0988 0.171054C62.8399 0.152562 62.6042 0.134062 62.3869 0.120192C62.1049 0.1017 61.8691 0.0878319 61.6796 0.0785856C61.3883 0.0647161 61.2265 0.0554755 61.2265 0.0554755C61.1433 0.0508523 61.06 0.0462298 60.9722 0.0416066C60.7503 0.0277372 60.5192 0.018492 60.2926 0.0138689C60.0568 0.00924573 59.821 1.63906e-10 59.5853 1.63906e-10C59.3541 1.63906e-10 59.1183 1.63906e-10 58.8779 1.63906e-10C58.6421 1.63906e-10 58.4064 -9.59383e-06 58.1706 0.00461355C57.9348 0.0092367 57.699 0.0138638 57.4632 0.0231101C57.2274 0.0323564 56.9917 0.0369739 56.7559 0.0462202C56.5247 0.0600896 56.2889 0.0693438 56.0485 0.0832132C55.822 0.0970827 55.5909 0.106323 55.3643 0.120192C55.1285 0.134062 54.8928 0.152562 54.657 0.171054C54.4212 0.184924 54.1854 0.203409 53.9496 0.221902C53.7139 0.245018 53.4781 0.263513 53.2423 0.282005C53.0065 0.305121 52.7707 0.328234 52.535 0.351349C52.2992 0.374465 52.0634 0.397583 51.8276 0.425322C51.5918 0.448437 51.3561 0.476178 51.1203 0.499294C50.8938 0.522409 50.6626 0.550154 50.4407 0.577893C50.2003 0.605632 49.9645 0.637995 49.7333 0.665734C49.4976 0.693473 49.2571 0.725827 49.026 0.758189C48.7902 0.790551 48.5544 0.818295 48.3187 0.850657C47.8332 0.915381 47.357 0.984729 46.904 1.05408C46.4232 1.12805 45.9516 1.19739 45.5124 1.26674C45.0085 1.34533 44.5369 1.42393 44.0977 1.50252C43.5753 1.59036 43.0991 1.67358 42.683 1.74755C42.4241 1.79378 42.1884 1.84001 41.9757 1.877C41.1574 2.02956 40.6858 2.12664 40.6858 2.12664C40.6489 2.13588 40.6165 2.14051 40.5841 2.14976C40.108 2.25609 39.6364 2.3578 39.1695 2.46876C38.6933 2.57971 38.2217 2.69991 37.7548 2.82011C37.274 2.94031 36.8024 3.06513 36.3401 3.19458C35.8685 3.32403 35.4016 3.45348 34.9485 3.58755C34.4677 3.73087 33.9961 3.87419 33.5338 4.01289C33.0484 4.16083 32.5768 4.31338 32.1145 4.46595C31.6337 4.62313 31.1714 4.78032 30.723 4.93289C30.2283 5.10395 29.7567 5.26576 29.3037 5.4322C28.8044 5.6125 28.3328 5.78817 27.889 5.95923C27.3758 6.1534 26.9042 6.33833 26.4743 6.50938C26.465 6.50938 26.4558 6.514 26.4512 6.51862C26.4604 6.51862 26.465 6.51401 26.4743 6.50938C26.932 6.33833 27.4128 6.16728 27.889 5.99622C28.379 5.82054 28.8598 5.6541 29.3037 5.50154C29.8446 5.31199 30.3392 5.14555 30.723 5.0161C31.2361 4.84042 31.5551 4.7341 31.5551 4.7341C31.7401 4.674 31.925 4.61852 32.1099 4.56304C32.5815 4.41972 33.0577 4.28103 33.5292 4.14696C34.0008 4.01289 34.477 3.88806 34.9439 3.76323C35.4108 3.64303 35.8732 3.52745 36.3355 3.4165C36.8117 3.30092 37.2878 3.19459 37.7502 3.08826C38.231 2.98193 38.7025 2.88021 39.1648 2.78313C39.6456 2.68142 40.1218 2.58895 40.5795 2.50111C41.0603 2.40865 41.5226 2.32544 41.9711 2.24684C42.2115 2.20523 42.4473 2.16363 42.6784 2.12202C43.1685 2.03881 43.64 1.96483 44.0931 1.89548C44.5924 1.81688 45.064 1.74755 45.5078 1.68745C46.0117 1.6181 46.4786 1.558 46.8994 1.50252C47.4541 1.43318 47.9303 1.38232 48.314 1.34071C48.6053 1.30835 48.8411 1.28523 49.0214 1.26674C49.2849 1.239 49.4282 1.22974 49.4282 1.22974C49.5299 1.22974 49.6316 1.2205 49.7333 1.2205C49.9737 1.20663 50.2095 1.19739 50.4407 1.19277C50.6718 1.18352 50.8984 1.17428 51.1203 1.16966C51.3607 1.16041 51.5965 1.15578 51.8276 1.15116C52.068 1.14191 52.3038 1.13729 52.535 1.13729C52.7754 1.13267 53.0112 1.12804 53.2423 1.12342C53.4827 1.12342 53.7185 1.12342 53.9496 1.12342C54.1901 1.12342 54.4258 1.12342 54.657 1.12342C54.8974 1.12342 55.1332 1.12343 55.3643 1.12805C55.6001 1.12805 55.822 1.13267 56.0485 1.13729C56.2889 1.14191 56.5247 1.14654 56.7559 1.15579C57.0009 1.16503 57.2367 1.16965 57.4632 1.1789C57.7083 1.19277 57.944 1.20202 58.1706 1.21126C58.4156 1.22051 58.6514 1.23437 58.8779 1.24824C59.1229 1.26211 59.3587 1.28061 59.5853 1.29448C59.8349 1.31297 60.0707 1.33146 60.2926 1.34995C60.533 1.36844 60.7595 1.39156 60.9722 1.41005C61.2265 1.43779 61.4623 1.46091 61.6796 1.48865C61.9385 1.51639 62.1742 1.54874 62.3869 1.57648C62.6597 1.61347 62.8908 1.65046 63.0988 1.68282C63.4132 1.73367 63.6444 1.7799 63.8062 1.81227C63.9773 1.84925 64.0605 1.86774 64.0605 1.86774C64.213 1.89086 64.3656 1.91397 64.5182 1.94171C64.7586 1.9787 64.9944 2.02494 65.2255 2.06655C65.4613 2.11278 65.6832 2.15901 65.9097 2.20986C66.1501 2.26072 66.3859 2.32081 66.6171 2.37629C66.8575 2.44101 67.0932 2.50112 67.3244 2.56584C67.5648 2.63519 67.8052 2.70915 68.0318 2.7785C68.2768 2.85709 68.5079 2.94032 68.7391 3.01891C68.9841 3.10675 69.2199 3.19921 69.4464 3.28705C69.6915 3.38414 69.9272 3.48584 70.1538 3.58755C70.3988 3.69851 70.6346 3.80946 70.8611 3.92042C71.0969 4.04062 71.3281 4.15621 71.5453 4.27641C71.795 4.41048 72.0308 4.54916 72.2527 4.68323C72.507 4.8358 72.7427 4.98837 72.96 5.13631C73.2235 5.31661 73.4547 5.48305 73.6674 5.64486C73.9448 5.85752 74.1805 6.0517 74.3747 6.22738C74.8555 6.65271 75.0821 6.92546 75.0821 6.92546C75.3456 7.18436 75.5813 7.44789 75.7894 7.71603C76.0621 8.06277 76.2841 8.41875 76.4736 8.77011C76.8573 9.49594 77.0746 10.2172 77.181 10.906C77.3196 11.7705 77.2827 12.5703 77.181 13.2407C77.0145 14.3595 76.677 15.0946 76.677 15.0946C76.8573 14.8958 77.0238 14.697 77.181 14.5028C77.4491 14.1699 77.6803 13.8463 77.8883 13.5273C78.1749 13.0835 78.4107 12.6582 78.5956 12.2513C79.0811 11.1973 79.266 10.2541 79.303 9.48669C79.3169 9.25091 79.3122 9.03362 79.303 8.8302C79.2521 7.88708 78.9978 7.32767 78.9978 7.32767V7.34154Z" fill="#E50013"/>
<path d="M5.84366 10.4896V20.3461H3.29631V10.4896H0V8.40918H9.12147V10.4896H5.84366Z" fill="#231916"/>
<path d="M10.1641 10.9744H13.6453C16.0632 10.9744 17.4409 11.9267 17.4409 13.7529C17.4409 15.3479 16.3498 16.0459 15.2541 16.2771V16.2956C15.5223 16.4944 15.9522 16.9382 16.4885 17.7473L18.1945 20.3455H15.6332L13.9319 17.6733C13.3587 16.7764 13.1044 16.6886 12.6929 16.6886H12.5681V20.3455H10.1641V10.9697V10.9744ZM13.6037 15.0751C14.5884 15.0751 15.0553 14.6821 15.0553 13.9101C15.0553 13.138 14.5884 12.7265 13.4973 12.7265H12.5635V15.0751H13.6037Z" fill="#231916"/>
<path d="M20.6463 20.3455H18.2793L22.0425 10.9697H24.3356L28.2052 20.3455H25.6625L25.0707 18.7135H21.2196L20.6463 20.3455ZM23.693 14.9687C23.3879 14.1273 23.1336 13.2813 23.1336 13.2813H23.0966C23.0966 13.2813 22.847 14.1412 22.5603 14.9687L21.8437 16.9752H24.4235L23.6884 14.9687H23.693Z" fill="#231916"/>
<path d="M29.2715 10.9746H32.4799C36.331 10.9746 38.0878 12.8054 38.0878 15.5284C38.0878 18.2514 36.2987 20.3503 32.3921 20.3503H29.2715V10.9746ZM32.5863 18.4641C34.5742 18.4641 35.5775 17.5349 35.5775 15.6163C35.5775 13.6976 34.6112 12.8562 32.4938 12.8562H31.6709V18.4641H32.5863Z" fill="#231916"/>
<path d="M39.5613 10.9744H45.7239V12.8375H41.9052V14.6821H45.3125V16.4019H41.9052V18.4823H45.8118V20.3455H39.5566V10.9697L39.5613 10.9744Z" fill="#231916"/>
</svg>
