<svg width="81" height="17" viewBox="0 0 81 17" fill="none" xmlns="http://www.w3.org/2000/svg">
<path d="M3.72564 5.33105H0C0 5.33105 4.16737 10.5272 4.26618 10.6551C4.16737 10.7771 0 15.9849 0 15.9849H3.77795L7.99763 10.6551L3.77795 5.33105H3.72564Z" fill="#ED6D1F"/>
<path d="M18.372 5.33105L14.1523 10.6551L18.3662 15.9849H22.1442C22.1442 15.9849 17.9768 10.7771 17.878 10.6551C17.9768 10.5272 22.1442 5.33105 22.1442 5.33105H18.3662H18.372Z" fill="#333333"/>
<path d="M10.6602 0V15.9836H13.8743V0H10.6602Z" fill="#333333"/>
<path d="M76.9127 5.08388C75.7503 5.08388 74.553 5.7116 73.8381 6.83917C73.2452 5.78134 72.3153 5.08388 70.775 5.08388C69.9206 5.08388 68.6129 5.49074 67.7992 6.64156V5.328H64.9512V15.9818H67.991V10.4834C67.991 8.33873 68.7059 7.54826 69.8102 7.54826C71.0773 7.54826 71.1819 8.7979 71.1819 9.79761V15.976H74.2217V10.4776C74.2217 8.33292 74.9424 7.54246 76.0467 7.54246C77.308 7.54246 77.4126 8.79209 77.4126 9.79179V15.9702H80.4524V9.15826C80.4524 6.33352 79.0807 5.07227 76.9127 5.07227V5.08388Z" fill="#333333"/>
<path d="M33.2395 10.66C33.2395 13.7986 30.6356 16.3385 27.4156 16.3385C24.1957 16.3385 21.5918 13.7986 21.5918 10.66C21.5918 7.52138 24.1957 4.98145 27.4156 4.98145C30.6356 4.98145 33.2395 7.52138 33.2395 10.66ZM27.4156 7.50395C25.7998 7.50395 24.4805 8.91632 24.4805 10.66C24.4805 12.4037 25.794 13.816 27.4156 13.816C29.0373 13.816 30.3508 12.4037 30.3508 10.66C30.3508 8.91632 29.0373 7.50395 27.4156 7.50395Z" fill="#333333"/>
<path d="M42.5319 6.25442C41.8461 5.74295 40.3117 4.99316 38.5331 4.99316C37.1847 4.99316 35.906 5.41164 35.1097 6.17304C34.4936 6.76589 34.1682 7.53893 34.1682 8.41657C34.1682 10.6833 35.8828 11.1716 37.2544 11.561C38.2716 11.8458 39.155 12.0783 39.155 12.8745C39.155 13.2058 39.033 13.479 38.8005 13.6766C38.4227 14.0021 37.8357 14.0661 37.4172 14.0254C36.5337 13.9324 35.627 13.5371 34.8947 12.9152L34.7668 12.8048L33.709 14.9611L33.7962 15.0251C34.7436 15.7574 36.2664 16.2689 37.5741 16.3096C39.0562 16.3561 40.4105 15.926 41.2649 15.1355C41.9391 14.5078 42.2762 13.6941 42.2762 12.7234C42.2762 10.3579 40.4163 9.82312 38.94 9.3872C38.0042 9.11403 37.2719 8.89899 37.2719 8.30614C37.2719 8.02134 37.3707 7.78304 37.5741 7.60286C37.8589 7.34713 38.3297 7.21925 38.847 7.24831C39.7944 7.30643 40.8173 7.80628 41.3927 8.22476L42.5319 6.24861V6.25442Z" fill="#333333"/>
<path d="M57.5526 4.98232C54.3384 4.98232 51.7346 7.52226 51.7346 10.6609C51.7346 10.8992 51.7462 11.1317 51.7752 11.3583C51.7811 11.4165 51.7869 11.4746 51.7985 11.5327C51.8508 11.8466 51.752 12.1081 51.659 12.2941C51.6416 12.329 51.6183 12.3639 51.6009 12.3987C51.0778 13.2531 50.1769 13.8111 49.1539 13.8111C47.5323 13.8111 46.2188 12.3987 46.2188 10.6551C46.2188 8.91139 47.5323 7.49901 49.1539 7.49901C49.5957 7.49901 50.0141 7.60944 50.3919 7.79544L51.7113 5.55193C50.9383 5.17994 50.0723 4.9707 49.1539 4.9707C45.934 4.9707 43.3301 7.51064 43.3301 10.6492C43.3301 13.7878 45.934 16.3278 49.1539 16.3278C50.8046 16.3278 52.2925 15.6536 53.3562 14.5783C54.414 15.6594 55.9077 16.3278 57.5584 16.3278C60.7784 16.3278 63.3823 13.7878 63.3823 10.6492C63.3823 7.51064 60.7784 4.9707 57.5584 4.9707L57.5526 4.98232ZM57.5526 13.8169C55.931 13.8169 54.6232 12.4045 54.6232 10.6609C54.6232 8.91719 55.9368 7.50482 57.5526 7.50482C59.1684 7.50482 60.4878 8.91719 60.4878 10.6609C60.4878 12.4045 59.1742 13.8169 57.5526 13.8169Z" fill="#333333"/>
</svg>
