<svg width="25" height="27" viewBox="0 0 25 27" fill="none" xmlns="http://www.w3.org/2000/svg">
<path d="M18.5985 4.41702L21.4261 5.02045C21.9137 5.12485 22.374 5.33039 22.7771 5.62378C23.1803 5.91716 23.5174 6.29187 23.7667 6.72369C24.016 7.15551 24.172 7.63482 24.2244 8.13067C24.2769 8.62652 24.2248 9.12786 24.0714 9.6023L23.1803 12.3528C22.9507 13.0645 22.9507 13.8303 23.1803 14.542L24.0714 17.2925C24.2248 17.767 24.2769 18.2683 24.2244 18.7641C24.172 19.26 24.016 19.7393 23.7667 20.1711C23.5174 20.6029 23.1803 20.9777 22.7771 21.271C22.374 21.5644 21.9137 21.77 21.4261 21.8744L18.5985 22.4778C17.8678 22.635 17.2051 23.0179 16.704 23.5724L14.7674 25.7195C14.4332 26.0895 14.0251 26.3853 13.5695 26.5878C13.1138 26.7902 12.6207 26.8948 12.1221 26.8948C11.6235 26.8948 11.1304 26.7902 10.6748 26.5878C10.2191 26.3853 9.81106 26.0895 9.47687 25.7195L7.54027 23.5724C7.03914 23.0179 6.37641 22.635 5.64578 22.4778L2.8181 21.8744C2.33054 21.77 1.87028 21.5644 1.46711 21.271C1.06394 20.9777 0.726831 20.6029 0.477528 20.1711C0.228224 19.7393 0.0722889 19.26 0.019803 18.7641C-0.032683 18.2683 0.0194456 17.767 0.17282 17.2925L1.06394 14.542C1.29358 13.8303 1.29358 13.0645 1.06394 12.3528L0.17282 9.6023C0.0194456 9.12786 -0.032683 8.62652 0.019803 8.13067C0.0722889 7.63482 0.228224 7.15551 0.477528 6.72369C0.726831 6.29187 1.06394 5.91716 1.46711 5.62378C1.87028 5.33039 2.33054 5.12485 2.8181 5.02045L5.64578 4.41702C6.37641 4.25979 7.03914 3.87687 7.54027 3.32242L9.47687 1.17534C9.81106 0.805313 10.2191 0.509517 10.6748 0.307063C11.1304 0.104609 11.6235 0 12.1221 0C12.6207 0 13.1138 0.104609 13.5695 0.307063C14.0251 0.509517 14.4332 0.805313 14.7674 1.17534L16.704 3.32242C17.2051 3.87687 17.8678 4.25979 18.5985 4.41702ZM16.9847 6.41676C16.5066 6.35315 16.0729 6.10354 15.7778 5.72211L13.5745 2.86635C13.4035 2.64366 13.1836 2.46328 12.9318 2.33915C12.6799 2.21501 12.4029 2.15045 12.1221 2.15045C11.8413 2.15045 11.5643 2.21501 11.3125 2.33915C11.0606 2.46328 10.8407 2.64366 10.6697 2.86635L8.46647 5.72211C8.17134 6.10354 7.73765 6.35315 7.25959 6.41676L3.68815 6.9009C3.41027 6.93783 3.14454 7.03806 2.9115 7.19387C2.67846 7.34967 2.48434 7.55691 2.34402 7.79959C2.20369 8.04227 2.12095 8.31392 2.10218 8.59362C2.0834 8.87332 2.12908 9.15359 2.23571 9.41285L3.60396 12.7528C3.78643 13.1979 3.78643 13.6969 3.60396 14.1421L2.23571 17.482C2.12908 17.7412 2.0834 18.0215 2.10218 18.3012C2.12095 18.5809 2.20369 18.8525 2.34402 19.0952C2.48434 19.3379 2.67846 19.5451 2.9115 19.7009C3.14454 19.8568 3.41027 19.957 3.68815 19.9939L7.25959 20.4781C7.73765 20.5417 8.17134 20.7913 8.46647 21.1727L10.6697 24.0285C10.8407 24.2512 11.0606 24.4315 11.3125 24.5557C11.5643 24.6798 11.8413 24.7444 12.1221 24.7444C12.4029 24.7444 12.6799 24.6798 12.9318 24.5557C13.1836 24.4315 13.4035 24.2512 13.5745 24.0285L15.7778 21.1727C16.0729 20.7913 16.5066 20.5417 16.9847 20.4781L20.5561 19.9939C20.834 19.957 21.0997 19.8568 21.3327 19.7009C21.5657 19.5451 21.7599 19.3379 21.9002 19.0952C22.0406 18.8525 22.1233 18.5809 22.1421 18.3012C22.1608 18.0215 22.1152 17.7412 22.0085 17.482L20.6403 14.1421C20.4578 13.6969 20.4578 13.1979 20.6403 12.7528L22.0085 9.41285C22.1152 9.15359 22.1608 8.87332 22.1421 8.59362C22.1233 8.31392 22.0406 8.04227 21.9002 7.79959C21.7599 7.55691 21.5657 7.34967 21.3327 7.19387C21.0997 7.03806 20.834 6.93783 20.5561 6.9009L16.9847 6.41676Z" fill="#191F28"/>
<path d="M16.7669 13.4479C16.7669 14.0588 16.6466 14.6638 16.4128 15.2282C16.179 15.7926 15.8364 16.3054 15.4044 16.7374C14.9724 17.1694 14.4596 17.512 13.8951 17.7458C13.3307 17.9796 12.7258 18.0999 12.1149 18.0999C11.504 18.0999 10.899 17.9796 10.3346 17.7458C9.77023 17.512 9.25738 17.1694 8.8254 16.7374C8.39342 16.3054 8.05076 15.7926 7.81698 15.2282C7.58319 14.6638 7.46289 14.0588 7.46289 13.4479C7.46289 12.2141 7.95298 11.0309 8.8254 10.1584C9.69782 9.28602 10.8811 8.7959 12.1149 8.7959C13.3487 8.7959 14.532 9.28602 15.4044 10.1584C16.2768 11.0309 16.7669 12.2141 16.7669 13.4479ZM14.6479 13.4479C14.6479 12.7798 14.3825 12.1391 13.9101 11.6667C13.4377 11.1943 12.797 10.929 12.1289 10.929C11.4608 10.929 10.8201 11.1943 10.3477 11.6667C9.87534 12.1391 9.60997 12.7798 9.60997 13.4479C9.60997 13.7787 9.67512 14.1063 9.80171 14.4119C9.9283 14.7175 10.1138 14.9952 10.3477 15.2291C10.5816 15.463 10.8593 15.6485 11.1649 15.7751C11.4706 15.9017 11.7981 15.9669 12.1289 15.9669C12.4597 15.9669 12.7873 15.9017 13.0929 15.7751C13.3985 15.6485 13.6762 15.463 13.9101 15.2291C14.144 14.9952 14.3296 14.7175 14.4562 14.4119C14.5828 14.1063 14.6479 13.7787 14.6479 13.4479Z" fill="#191F28"/>
</svg>
