<svg width="22" height="24" viewBox="0 0 22 24" fill="none" xmlns="http://www.w3.org/2000/svg">
<path d="M10.8931 0.00559109C13.0435 0.0890687 15.0633 0.752044 16.9536 1.9968C17.4084 2.29626 17.7645 2.60183 18.2378 2.97922L18.2388 2.98118C18.3159 3.04158 18.4122 3.0683 18.5064 3.0554C18.6004 3.04214 18.6877 2.99035 18.7486 2.91086L19.103 2.43528C19.1965 2.30787 19.266 2.21119 19.3101 2.14622L19.3111 2.14719C19.5 1.87 19.669 1.72267 19.8101 1.66086L19.9722 1.60422C20.3502 1.50983 20.7148 1.6653 20.9107 2.03782C20.9535 2.1197 21.0023 2.30674 21.0318 2.64329C21.0811 3.20101 21.2003 4.47558 21.3892 6.46458C21.4183 6.7703 21.4308 7.00992 21.4282 7.18625C21.427 7.27417 21.4225 7.34237 21.4155 7.39133C21.4091 7.43621 21.4019 7.45676 21.4019 7.45676C21.2894 7.69678 21.1724 7.82398 21.0347 7.905C20.8866 7.99176 20.6866 8.04219 20.3784 8.0759C18.4337 8.28613 17.156 8.42798 16.5503 8.50266C16.1738 8.54887 15.9108 8.43111 15.7163 8.16868C15.4942 7.86762 15.5114 7.38666 15.7183 7.08469C15.9284 6.77996 16.2168 6.40092 16.5845 5.94895L16.6304 5.87864C16.6435 5.85359 16.6553 5.82611 16.6636 5.79856C16.68 5.74369 16.6859 5.68521 16.6812 5.62766C16.6788 5.59886 16.6731 5.57022 16.6655 5.5427L16.6353 5.4636L16.5903 5.39133C16.5735 5.36954 16.5543 5.34859 16.5337 5.33079C14.0783 3.20585 11.1396 2.61133 8.43507 3.23508C6.81945 3.63795 5.26882 4.4685 3.94484 5.72336C3.33909 6.26926 2.81957 6.87975 2.38722 7.55442C2.10327 7.99733 1.6237 8.22678 1.1841 8.19797C0.748383 8.16896 0.360155 7.88777 0.236833 7.322C0.104414 6.71262 0.308672 6.08086 0.670427 5.46067C1.03216 4.84094 1.5401 4.25141 1.98097 3.72922C2.05587 3.64057 2.13315 3.55464 2.20949 3.46946L2.21242 3.46555C3.50203 2.23262 5.01252 1.27437 6.6255 0.679419C6.7704 0.626023 6.91677 0.575685 7.063 0.528052C7.55936 0.366381 8.21291 0.185763 9.47804 0.081763C9.9487 0.0144053 10.4216 -0.012754 10.8931 0.00559109Z" fill="#0068F1"/>
<path d="M10.5357 23.5072C8.3851 23.4237 6.36553 22.7608 4.47511 21.5159C4.0203 21.2165 3.66425 20.9109 3.19093 20.5335L3.18995 20.5316C3.11284 20.4712 3.0165 20.4445 2.92237 20.4574C2.82826 20.4706 2.74108 20.5232 2.68019 20.6029L2.3257 21.0784C2.23232 21.2057 2.16268 21.3026 2.11866 21.3675L2.11769 21.3665C1.92881 21.6435 1.75973 21.7911 1.61866 21.8529L1.45655 21.9095C1.07858 22.0039 0.713923 21.8483 0.518078 21.4759C0.475222 21.3942 0.426481 21.2074 0.396984 20.8704C0.347685 20.313 0.228436 19.0385 0.0395622 17.0492C0.0104103 16.7436 -0.00201225 16.5038 0.000499725 16.3275C0.00177956 16.2395 0.00625801 16.1714 0.013195 16.1224C0.0191555 16.0804 0.0259552 16.0597 0.0268669 16.057C0.139257 15.817 0.256365 15.6898 0.394054 15.6087C0.542139 15.522 0.74214 15.4715 1.0503 15.4378C2.99514 15.2276 4.27275 15.0848 4.87843 15.0101C5.25506 14.9639 5.51789 15.0825 5.71241 15.345C5.93448 15.6461 5.9173 16.1271 5.71046 16.429C5.50038 16.7337 5.21186 17.1129 4.84425 17.5648L4.79835 17.6351C4.78526 17.6601 4.77341 17.6867 4.76515 17.7142C4.7487 17.7692 4.74281 17.8284 4.74757 17.8861C4.74998 17.9149 4.75557 17.9435 4.7632 17.971L4.79347 18.0501L4.83839 18.1214C4.85526 18.1433 4.87435 18.1641 4.89503 18.182C7.3525 20.3088 10.2941 20.9028 13.0005 20.2767C14.6136 19.8732 16.1618 19.0434 17.4839 17.7904C18.0896 17.2445 18.6092 16.6339 19.0415 15.9593C19.3254 15.5165 19.8042 15.2862 20.2437 15.3148C20.6796 15.3436 21.0686 15.6255 21.1919 16.1917C21.3242 16.8011 21.1201 17.4329 20.7583 18.0531C20.3965 18.6728 19.8886 19.2623 19.4478 19.7845C19.3729 19.8731 19.2955 19.9591 19.2192 20.0443L19.2163 20.0472C17.9267 21.2802 16.4163 22.2394 14.8032 22.8343C14.6584 22.8877 14.5119 22.9371 14.3657 22.9847C13.8681 23.1468 13.2124 23.3281 11.9409 23.432C11.4734 23.4982 11.0039 23.5254 10.5357 23.5072Z" fill="#0068F1"/>
</svg>
