<svg width="45" height="45" viewBox="0 0 45 45" fill="none" xmlns="http://www.w3.org/2000/svg">
<g clip-path="url(#clip0_20004901_60193)">
<path d="M17.7736 21.0315C17.7472 21.0315 17.7209 21.0315 17.6946 21.0282C17.4015 21.0019 17.1348 20.8405 16.98 20.587L13.9111 15.5884C13.6411 15.1505 13.7794 14.5775 14.2173 14.3075C14.6553 14.0375 15.2282 14.1758 15.4982 14.6138L17.9053 18.5388L24.4778 11.0707C24.817 10.6854 25.4064 10.6459 25.7916 10.9883C26.1769 11.3275 26.2164 11.9169 25.874 12.3022L18.4684 20.7187C18.2906 20.9195 18.037 21.0348 17.7703 21.0348L17.7736 21.0315Z" fill="#111111"/>
<path d="M29.7858 0.441406H9.19576C7.28921 0.441406 5.73828 1.99233 5.73828 3.89888V26.3461C5.73828 27.2681 6.0972 28.1374 6.74918 28.7894L13.2361 35.2763C13.888 35.9283 14.7574 36.2905 15.6793 36.2905H21.0434C20.9051 35.7537 20.7997 35.2038 20.7305 34.6441H15.6793C15.1953 34.6441 14.7409 34.4531 14.3984 34.1106L7.91484 27.627C7.57239 27.2846 7.3847 26.8302 7.3847 26.3461V3.89888C7.3847 2.89786 8.19473 2.08782 9.19576 2.08782H29.7858C30.7836 2.08782 31.5969 2.89786 31.5969 3.89888V20.3696C32.1336 20.2906 32.6835 20.2445 33.2433 20.2346V3.89888C33.2433 1.99233 31.6924 0.441406 29.7858 0.441406Z" fill="#111111"/>
<path d="M14.9253 35.9513C14.4709 35.9513 14.1021 35.5825 14.1021 35.1281V29.7344C14.1021 28.7367 13.2887 27.9234 12.291 27.9234H6.89736C6.44295 27.9234 6.07415 27.5546 6.07415 27.1002C6.07415 26.6458 6.44295 26.277 6.89736 26.277H12.291C14.1976 26.277 15.7485 27.8279 15.7485 29.7344V35.1281C15.7485 35.5825 15.3797 35.9513 14.9253 35.9513Z" fill="black"/>
<path d="M33.4771 22.207C33.3981 22.207 33.319 22.207 33.2433 22.2103C32.6835 22.2202 32.1336 22.2762 31.5969 22.3717C26.493 23.2607 22.6108 27.7159 22.6108 33.0767C22.6108 33.6101 22.6503 34.1337 22.726 34.6441C22.805 35.2104 22.9302 35.7603 23.0948 36.2905C24.4646 40.7226 28.5971 43.9397 33.4771 43.9397C39.4799 43.9397 44.3435 39.0762 44.3435 33.0767C44.3435 27.0771 39.4799 22.207 33.4771 22.207ZM36.6744 35.3981L33.9908 38.2135C33.9908 38.2135 33.9677 38.2398 33.9546 38.253C33.9282 38.2826 33.8953 38.309 33.8624 38.3353C33.7537 38.4111 33.622 38.4572 33.4771 38.4572C33.4047 38.4572 33.3322 38.444 33.2664 38.4209C33.2334 38.4111 33.1972 38.3979 33.1643 38.3781C33.0886 38.3386 33.0227 38.2826 32.97 38.2201L30.2831 35.3981C30.0328 35.1347 30.0427 34.7165 30.3061 34.4662C30.5695 34.216 30.9844 34.2259 31.2347 34.4893L32.8185 36.1522V28.3515C32.8185 27.986 33.1149 27.6929 33.4771 27.6929C33.8393 27.6929 34.1357 27.986 34.1357 28.3515V36.1522L35.7195 34.4893C35.9731 34.2259 36.388 34.216 36.6514 34.4662C36.9148 34.7165 36.9247 35.1347 36.6744 35.3981Z" fill="#008AF1"/>
</g>
<defs>
<clipPath id="clip0_20004901_60193">
<rect width="44.1379" height="44.1379" fill="white"/>
</clipPath>
</defs>
</svg>
