<svg width="45" height="45" viewBox="0 0 45 45" fill="none" xmlns="http://www.w3.org/2000/svg">
<g clip-path="url(#clip0_20004901_60181)">
<path d="M33.0918 22.4706C27.0857 22.4706 22.2156 27.3407 22.2156 33.3469C22.2156 39.353 27.0857 44.2231 33.0918 44.2231C39.098 44.2231 43.9681 39.353 43.9681 33.3469C43.9681 27.3407 39.098 22.4706 33.0918 22.4706Z" fill="#008AF1"/>
<path d="M29.7858 0.882812H9.19576C7.28921 0.882812 5.73828 2.43374 5.73828 4.34029V26.7875C5.73828 27.7095 6.0972 28.5788 6.74918 29.2308L13.2361 35.7177C13.888 36.3697 14.7574 36.7319 15.6793 36.7319H21.0434C20.9051 36.1952 20.7997 35.6453 20.7306 35.0855H15.6793C15.1953 35.0855 14.7409 34.8945 14.3984 34.552L7.91484 28.0684C7.57239 27.726 7.3847 27.2716 7.3847 26.7875V4.34029C7.3847 3.33927 8.19474 2.52923 9.19576 2.52923H29.7858C30.7836 2.52923 31.5969 3.33927 31.5969 4.34029V20.811C32.1336 20.732 32.6835 20.6859 33.2433 20.676V4.34029C33.2433 2.43374 31.6924 0.882812 29.7858 0.882812Z" fill="#111111"/>
<path d="M14.9253 36.3927C14.4709 36.3927 14.1021 36.0239 14.1021 35.5695V30.1759C14.1021 29.1781 13.2887 28.3648 12.291 28.3648H6.89736C6.44295 28.3648 6.07415 27.996 6.07415 27.5416C6.07415 27.0872 6.44295 26.7184 6.89736 26.7184H12.291C14.1976 26.7184 15.7485 28.2693 15.7485 30.1759V35.5695C15.7485 36.0239 15.3797 36.3927 14.9253 36.3927Z" fill="black"/>
<path d="M12.9759 13.1322C12.7586 13.1322 12.5479 13.0465 12.3931 12.8918L10.5722 11.0708C10.2495 10.7481 10.2495 10.2279 10.5722 9.90518C10.8949 9.58248 11.4151 9.58248 11.7378 9.90518L12.9035 11.0708L15.1031 8.27522C15.383 7.9196 15.9033 7.85703 16.2589 8.13692C16.6145 8.41682 16.6771 8.93708 16.3972 9.29271L13.6246 12.816C13.4797 13.0004 13.2624 13.1157 13.0253 13.1289C13.0089 13.1289 12.9924 13.1289 12.9759 13.1289V13.1322Z" fill="#111111"/>
<path d="M12.9759 19.731C12.7586 19.731 12.5479 19.6454 12.3931 19.4906L10.5722 17.6697C10.2495 17.347 10.2495 16.8267 10.5722 16.504C10.8949 16.1813 11.4151 16.1813 11.7378 16.504L12.9035 17.6697L15.1031 14.8741C15.383 14.5184 15.9033 14.4559 16.2589 14.7358C16.6145 15.0157 16.6771 15.5359 16.3972 15.8915L13.6246 19.4149C13.4797 19.5993 13.2624 19.7145 13.0253 19.7277C13.0089 19.7277 12.9924 19.7277 12.9759 19.7277V19.731Z" fill="#111111"/>
<path d="M27.0199 11.5812H18.5803C18.1259 11.5812 17.7571 11.2124 17.7571 10.758C17.7571 10.3036 18.1259 9.93481 18.5803 9.93481H27.0199C27.4743 9.93481 27.8431 10.3036 27.8431 10.758C27.8431 11.2124 27.4743 11.5812 27.0199 11.5812Z" fill="#111111"/>
<path d="M27.0199 19.0988H18.5803C18.1259 19.0988 17.7571 18.73 17.7571 18.2756C17.7571 17.8211 18.1259 17.4523 18.5803 17.4523H27.0199C27.4743 17.4523 27.8431 17.8211 27.8431 18.2756C27.8431 18.73 27.4743 19.0988 27.0199 19.0988Z" fill="#111111"/>
<path d="M33.3427 36.8451L36.9538 33.0534L33.3427 29.2617M36.9538 33.0534L28.2871 33.0534" stroke="white" stroke-width="1.44444" stroke-linecap="round" stroke-linejoin="round"/>
</g>
<defs>
<clipPath id="clip0_20004901_60181">
<rect width="44.1379" height="44.1379" fill="white"/>
</clipPath>
</defs>
</svg>
