<svg width="60" height="60" viewBox="0 0 60 60" fill="none" xmlns="http://www.w3.org/2000/svg">
<circle cx="29.5" cy="29.5" r="23.5" fill="#187CFF"/>
<path d="M31.5901 40.2099C31.2501 40.2699 30.9101 40.3199 30.5701 40.3599C30.2301 40.3999 29.8901 40.4199 29.5501 40.4199C28.0901 40.4199 26.7501 40.1599 25.5301 39.6399C24.3101 39.0999 23.2601 38.3299 22.3801 37.3299C21.5001 36.3099 20.8201 35.0899 20.3401 33.6699C19.8601 32.2299 19.6201 30.6099 19.6201 28.8099C19.6201 27.0099 19.8601 25.3999 20.3401 23.9799C20.8201 22.5599 21.5001 21.3599 22.3801 20.3799C23.2601 19.3999 24.3101 18.6599 25.5301 18.1599C26.7501 17.6399 28.0901 17.3799 29.5501 17.3799C31.0301 17.3799 32.3701 17.6399 33.5701 18.1599C34.7901 18.6799 35.8401 19.4299 36.7201 20.4099C37.6001 21.3699 38.2801 22.5599 38.7601 23.9799C39.2401 25.3999 39.4801 27.0099 39.4801 28.8099C39.4801 31.0499 39.1201 32.9899 38.4001 34.6299C37.7001 36.2499 36.7201 37.5499 35.4601 38.5299L39.9001 43.8099H34.4101L31.5901 40.2099ZM29.5501 36.5799C30.3701 36.5799 31.1101 36.3999 31.7701 36.0399C32.4501 35.6599 33.0201 35.1399 33.4801 34.4799C33.9601 33.7999 34.3201 32.9799 34.5601 32.0199C34.8201 31.0599 34.9501 29.9899 34.9501 28.8099C34.9501 26.3899 34.4701 24.5199 33.5101 23.1999C32.5701 21.8599 31.2501 21.1899 29.5501 21.1899C27.8501 21.1899 26.5201 21.8599 25.5601 23.1999C24.6201 24.5199 24.1501 26.3899 24.1501 28.8099C24.1501 29.9899 24.2701 31.0599 24.5101 32.0199C24.7701 32.9799 25.1301 33.7999 25.5901 34.4799C26.0701 35.1399 26.6401 35.6599 27.3001 36.0399C27.9801 36.3999 28.7301 36.5799 29.5501 36.5799Z" fill="white"/>
<path d="M46.6767 43.1647L48.694 50.6933L41.1654 48.676L46.6767 43.1647Z" fill="#187CFF"/>
</svg>
