<svg width="68" height="69" viewBox="0 0 68 69" fill="none" xmlns="http://www.w3.org/2000/svg">
<g clip-path="url(#clip0_20004901_60469)">
<path d="M0 11.5966C0 5.192 5.19199 0 11.5966 0H55.6639C62.0685 0 67.2605 5.19199 67.2605 11.5966V57.4034C67.2605 63.808 62.0685 69 55.6639 69H11.5966C5.19199 69 0 63.808 0 57.4034V11.5966Z" fill="#30A2FF"/>
<path d="M25.3874 82.956C29.0606 83.8032 32.9122 84.163 36.8579 83.9849C39.3399 83.8728 41.7671 83.5552 44.1121 83.0332C45.3388 82.7608 46.5362 82.4444 47.722 82.0742C49.3211 81.5769 50.8885 80.9815 52.3973 80.2983L48.0296 50.3467L31.4457 47.242L25.0048 49.4595L25.3874 82.956Z" fill="white"/>
<path d="M37.9604 55.2992L34.8604 58.2808L31.1861 55.3417C31.1861 55.3417 33.0387 52.0605 33.9407 52.1568C34.6902 52.2308 37.9604 55.2992 37.9604 55.2992Z" fill="#187CFF"/>
<path d="M31.4131 84.9849L33.9491 57.5534L35.7285 57.2658L41.4072 84.5033C41.4072 84.5033 43.8811 84.2731 38.6022 84.8128C35.4413 85.1364 31.4135 84.9943 31.4135 84.9943L31.4131 84.9849Z" fill="#187CFF"/>
<path d="M42.128 47.9718L35.2183 52.5171L39.3573 57.0249L48.1697 47.2015L42.083 46.5718L42.128 47.9718Z" fill="white"/>
<path d="M47.1497 25.5895C46.7437 25.6305 46.4247 25.7855 45.8292 26.0111C45.6499 26.0794 45.4809 26.1792 45.3224 26.3104C45.3109 26.3202 45.2962 26.3251 45.2813 26.3242C45.2665 26.3233 45.2526 26.3166 45.2428 26.3055C45.2302 26.2918 45.2218 26.2686 45.2174 26.2358C45.2165 26.23 45.2143 26.2245 45.2111 26.2197C45.2079 26.2148 45.2036 26.2107 45.1987 26.2077C45.1938 26.2046 45.1883 26.2027 45.1826 26.202C45.1769 26.2014 45.1711 26.202 45.1657 26.2038L44.8426 26.3063C44.8228 26.3127 44.8056 26.3254 44.7936 26.3424C44.7816 26.3594 44.7755 26.3799 44.7761 26.4007C44.8163 27.6719 44.1741 29.1843 43.1784 30.0045C42.8192 30.3003 42.5078 30.5162 42.2443 30.6524C41.1305 31.2265 40.0011 31.3449 38.8562 31.0075C37.586 30.633 36.6204 29.859 35.9594 28.6856C35.6718 28.1744 35.4992 27.5921 35.4418 26.9387C35.4404 26.9229 35.434 26.9079 35.4236 26.8959C35.4131 26.8838 35.3992 26.8753 35.3836 26.8714C34.8576 26.744 34.2802 26.7342 33.6514 26.8419C33.6235 26.8466 33.5978 26.8604 33.5781 26.8811C33.5585 26.9017 33.5459 26.9283 33.5423 26.9567C33.422 27.9256 33.0532 28.7791 32.4359 29.5173C31.3312 30.8377 29.4956 31.4955 27.8209 31.0633C26.6464 30.7604 25.7092 30.1141 25.0093 29.1244C24.5085 28.4158 24.2313 27.53 24.1777 26.4671C24.1767 26.4466 24.1695 26.427 24.157 26.4107C24.1446 26.3944 24.1275 26.3824 24.108 26.3761L23.7307 26.2555C23.7196 26.2519 23.7078 26.2514 23.6965 26.2542C23.6851 26.2569 23.6748 26.2627 23.6666 26.2709C23.6583 26.2791 23.6525 26.2895 23.6498 26.3008C23.6471 26.3121 23.6476 26.324 23.6511 26.335L23.661 26.3637C23.6639 26.3732 23.6638 26.3833 23.6607 26.3927C23.6577 26.4021 23.6519 26.4103 23.644 26.4163C23.6361 26.4223 23.6266 26.4257 23.6168 26.4261C23.6069 26.4266 23.5972 26.424 23.5888 26.4187C23.0032 26.0431 22.3741 25.7833 21.7016 25.6395C21.294 25.5518 20.8749 25.6822 20.5009 25.8577C20.157 24.9577 19.8746 24.152 19.6537 23.4407C19.441 22.7556 19.2671 21.9986 19.132 21.1696C18.9768 20.2177 18.9584 19.4459 19.0771 18.8543C19.2559 17.9658 19.681 17.1842 20.3524 16.5095C20.4241 16.4378 20.6357 16.2708 20.9872 16.0083C21.0233 15.9813 21.0488 15.9427 21.0594 15.8993C21.148 15.5318 21.2779 15.1436 21.449 14.7346C22.1995 12.9417 23.3346 11.4023 24.783 10.0539C25.631 9.26495 26.5625 8.61784 27.5773 8.11262C28.3428 7.73152 29.2395 7.44446 30.2674 7.25145C32.5138 6.82988 34.9481 6.98571 37.2011 7.37037C38.8217 7.64649 40.359 8.15253 41.8129 8.88849C41.9993 8.98309 42.3889 9.23652 42.9816 9.64879C43.5585 10.0501 44.0609 10.5794 44.4891 11.2366C44.8942 11.8583 45.0788 12.5418 45.0427 13.287C45.0417 13.3062 45.0462 13.3251 45.0557 13.3417C45.0651 13.3583 45.0791 13.3718 45.096 13.3805C46.1578 13.9306 47.0291 14.7128 47.7099 15.727C47.9997 16.1584 48.2058 16.5275 48.3283 16.8343C48.7591 17.9136 48.9196 19.0017 48.8097 20.0985C48.7058 21.1374 48.4685 22.1842 48.0978 23.2389C47.9939 23.5342 47.7689 24.119 47.4228 24.9933C47.3834 25.0928 47.3389 25.1926 47.2891 25.2926C47.2399 25.3916 47.1934 25.4905 47.1497 25.5895ZM30.2059 20.6513C30.5941 20.6218 31.0108 20.6611 31.4558 20.7694C32.1759 20.9441 31.9028 21.8561 31.2352 21.7019C30.5971 21.5548 29.982 21.5672 29.3898 21.7388C29.3801 21.7415 29.3717 21.7475 29.366 21.7558C29.3603 21.7641 29.3577 21.7741 29.3587 21.7841C29.3597 21.7941 29.3642 21.8035 29.3714 21.8105C29.3786 21.8175 29.388 21.8218 29.398 21.8225C30.0613 21.8865 30.6742 22.0923 31.2368 22.4401C32.4977 23.2209 33.2569 24.3502 33.5144 25.8282C33.5165 25.8397 33.5229 25.8501 33.5324 25.8569C33.5419 25.8638 33.5537 25.8668 33.5653 25.8651C34.1618 25.7782 34.7641 25.771 35.3721 25.8438C35.3893 25.8457 35.4066 25.8412 35.4206 25.831C35.4346 25.8208 35.4442 25.8058 35.4476 25.7888C35.7035 24.4757 36.4006 23.3537 37.5103 22.5943C38.3034 22.0513 38.9874 21.8807 39.8756 21.7782C39.8824 21.7776 39.8888 21.7747 39.8938 21.7701C39.8988 21.7655 39.9021 21.7594 39.9033 21.7527C39.9046 21.746 39.9035 21.7391 39.9005 21.7331C39.8974 21.727 39.8924 21.7221 39.8863 21.7192C39.2244 21.3706 38.5667 21.3788 37.8515 21.5699C37.6694 21.6191 37.542 21.6336 37.4693 21.6134C37.0854 21.5092 36.9632 21.1057 37.2462 20.808C37.2965 20.7555 37.4239 20.7008 37.6284 20.6439C38.5202 20.3968 39.3455 20.4424 40.1045 20.7809C40.2964 20.867 40.5326 20.9367 40.6286 21.0704C40.8013 21.3104 40.7631 21.536 40.5137 21.747C40.5092 21.7508 40.5059 21.7557 40.5043 21.7613C40.5027 21.7669 40.5029 21.7729 40.5047 21.7785C40.5065 21.7842 40.51 21.7891 40.5147 21.7929C40.5194 21.7966 40.525 21.7989 40.531 21.7995C40.9804 21.8356 41.3919 21.9373 41.7653 22.1046C42.2607 22.3261 42.6114 22.515 42.8176 22.6714C43.7285 23.3603 44.33 24.2313 44.6219 25.2844C44.6247 25.2942 44.6293 25.3034 44.6357 25.3113C44.642 25.3193 44.6499 25.3259 44.6589 25.3307C44.6678 25.3356 44.6777 25.3385 44.6878 25.3394C44.698 25.3404 44.7082 25.3392 44.7179 25.3361L45.046 25.2311C45.0619 25.226 45.0756 25.2156 45.0845 25.2015C45.0935 25.1874 45.0973 25.1706 45.0952 25.154L44.7975 22.6517C44.7951 22.6317 44.7884 22.6125 44.7778 22.5955C44.7671 22.5784 44.7528 22.564 44.7359 22.5533C43.9494 22.0505 43.395 21.3936 42.8938 20.6324C42.1524 19.5047 41.7054 18.0916 41.4791 16.7514C41.4244 16.4305 41.361 16.0469 41.2888 15.6007C41.2829 15.5641 41.265 15.5308 41.2379 15.5064C40.6994 15.0231 40.0818 14.6575 39.3852 14.4098C38.1681 13.9776 36.7016 13.8915 35.4722 14.327C34.5569 14.6507 33.8504 15.2483 33.3529 16.1199C32.84 17.0177 32.4892 17.6235 32.3006 17.9374C31.692 18.9478 30.9867 19.8371 30.1846 20.6054C30.1807 20.6093 30.1782 20.6143 30.1772 20.6197C30.1763 20.6251 30.1771 20.6307 30.1794 20.6357C30.1817 20.6407 30.1855 20.6449 30.1902 20.6476C30.1949 20.6504 30.2004 20.6517 30.2059 20.6513ZM26.3552 22.4753C25.6329 22.6356 24.9033 22.6848 24.1662 22.623C24.1596 22.6223 24.153 22.6243 24.1478 22.6286C24.1426 22.6329 24.1392 22.6391 24.1383 22.6459L23.7971 25.1688C23.7939 25.1922 23.799 25.2159 23.8117 25.2359C23.8243 25.2559 23.8435 25.2707 23.866 25.2778L24.2294 25.3943C24.2403 25.3978 24.2518 25.399 24.2632 25.3979C24.2747 25.3968 24.2857 25.3934 24.2958 25.3879C24.3058 25.3824 24.3147 25.3748 24.3217 25.3658C24.3288 25.3567 24.3339 25.3464 24.3368 25.3353C24.5807 24.3964 25.0744 23.5979 25.818 22.9396C26.0001 22.778 26.2396 22.6656 26.379 22.5188C26.3829 22.5147 26.3853 22.5095 26.3861 22.5039C26.3868 22.4982 26.3858 22.4926 26.3831 22.4877C26.3804 22.4828 26.3763 22.4789 26.3712 22.4767C26.3662 22.4745 26.3606 22.474 26.3552 22.4753ZM28.9667 22.6864C28.4698 22.6743 27.9754 22.7605 27.5116 22.94C27.0479 23.1196 26.6239 23.389 26.2639 23.7329C25.9039 24.0769 25.615 24.4885 25.4136 24.9445C25.2121 25.4004 25.1022 25.8917 25.09 26.3902C25.0654 27.397 25.4405 28.3723 26.1327 29.1016C26.8249 29.8309 27.7776 30.2544 28.7812 30.2789C29.2781 30.291 29.7725 30.2049 30.2363 30.0253C30.7 29.8458 31.124 29.5763 31.484 29.2324C31.844 28.8885 32.1329 28.4768 32.3343 28.0209C32.5358 27.5649 32.6457 27.0737 32.6579 26.5751C32.6825 25.5683 32.3074 24.593 31.6152 23.8637C30.923 23.1344 29.9703 22.711 28.9667 22.6864ZM40.4329 22.7003C39.9383 22.6562 39.4397 22.7103 38.9658 22.8595C38.4918 23.0088 38.0517 23.2503 37.6706 23.5702C37.2894 23.8901 36.9748 24.2822 36.7445 24.7241C36.5143 25.166 36.373 25.6491 36.3286 26.1457C36.2391 27.1486 36.5501 28.1459 37.1933 28.9181C37.8364 29.6903 38.7589 30.1742 39.758 30.2634C40.2526 30.3075 40.7512 30.2534 41.2251 30.1042C41.6991 29.9549 42.1392 29.7134 42.5203 29.3935C42.9015 29.0736 43.2161 28.6815 43.4464 28.2396C43.6766 27.7977 43.8179 27.3146 43.8623 26.818C43.9518 25.8151 43.6408 24.8179 42.9976 24.0456C42.3545 23.2734 41.432 22.7895 40.4329 22.7003Z" fill="black"/>
<path d="M30.2048 20.6514C30.1993 20.6518 30.1939 20.6505 30.1891 20.6477C30.1844 20.6449 30.1806 20.6408 30.1783 20.6358C30.176 20.6308 30.1752 20.6252 30.1762 20.6198C30.1771 20.6144 30.1797 20.6094 30.1835 20.6054C30.9856 19.8372 31.691 18.9479 32.2995 17.9375C32.4882 17.6236 32.8389 17.0178 33.3518 16.12C33.8494 15.2484 34.5558 14.6508 35.4711 14.3271C36.7005 13.8916 38.167 13.9777 39.3841 14.4099C40.0807 14.6576 40.6983 15.0231 41.2369 15.5065C41.2639 15.5309 41.2819 15.5641 41.2877 15.6008C41.3599 16.047 41.4233 16.4305 41.478 16.7515C41.7044 18.0916 42.1513 19.5048 42.8928 20.6325C43.3939 21.3936 43.9483 22.0506 44.7349 22.5533C44.7518 22.5641 44.7661 22.5785 44.7767 22.5955C44.7874 22.6126 44.7941 22.6318 44.7964 22.6518L45.0941 25.1541C45.0962 25.1707 45.0925 25.1875 45.0835 25.2016C45.0745 25.2156 45.0608 25.2261 45.0449 25.2312L44.7168 25.3362C44.7071 25.3393 44.6969 25.3404 44.6868 25.3395C44.6766 25.3386 44.6668 25.3356 44.6578 25.3308C44.6488 25.326 44.641 25.3194 44.6346 25.3114C44.6283 25.3035 44.6236 25.2943 44.6209 25.2845C44.3289 24.2314 43.7274 23.3604 42.8165 22.6714C42.6104 22.5151 42.2596 22.3262 41.7642 22.1047C41.3908 21.9374 40.9793 21.8357 40.5299 21.7996C40.524 21.799 40.5183 21.7967 40.5136 21.793C40.5089 21.7892 40.5055 21.7842 40.5036 21.7786C40.5018 21.773 40.5017 21.767 40.5033 21.7614C40.5049 21.7558 40.5081 21.7508 40.5127 21.7471C40.762 21.5361 40.8003 21.3105 40.6275 21.0705C40.5315 20.9368 40.2953 20.8671 40.1034 20.781C39.3445 20.4425 38.5191 20.3969 37.6273 20.644C37.4228 20.7009 37.2954 20.7555 37.2451 20.808C36.9622 21.1057 37.0844 21.5093 37.4682 21.6134C37.5409 21.6337 37.6683 21.6192 37.8504 21.57C38.5656 21.3789 39.2234 21.3707 39.8852 21.7192C39.8913 21.7222 39.8963 21.7271 39.8994 21.7332C39.9025 21.7392 39.9035 21.7461 39.9023 21.7528C39.9011 21.7595 39.8977 21.7656 39.8927 21.7702C39.8877 21.7748 39.8813 21.7776 39.8746 21.7783C38.9863 21.8808 38.3023 22.0514 37.5092 22.5943C36.3995 23.3538 35.7024 24.4758 35.4465 25.7889C35.4431 25.8059 35.4335 25.8209 35.4195 25.8311C35.4055 25.8413 35.3882 25.8458 35.371 25.8438C34.763 25.7711 34.1608 25.7782 33.5642 25.8652C33.5526 25.8668 33.5408 25.8639 33.5313 25.857C33.5218 25.8501 33.5154 25.8398 33.5134 25.8283C33.2558 24.3503 32.4966 23.221 31.2358 22.4402C30.6731 22.0924 30.0602 21.8865 29.397 21.8226C29.3869 21.8218 29.3775 21.8176 29.3703 21.8106C29.3631 21.8035 29.3586 21.7942 29.3576 21.7842C29.3566 21.7742 29.3592 21.7642 29.3649 21.7559C29.3706 21.7476 29.3791 21.7416 29.3888 21.7389C29.9809 21.5672 30.596 21.5549 31.2341 21.702C31.9018 21.8562 32.1749 20.9442 31.4548 20.7695C31.0097 20.6612 30.593 20.6219 30.2048 20.6514Z" fill="#FFDEC7"/>
<path d="M26.3797 22.5188C26.2403 22.6656 26.0008 22.778 25.8187 22.9396C25.0751 23.5979 24.5813 24.3964 24.3375 25.3353C24.3346 25.3464 24.3294 25.3567 24.3224 25.3658C24.3153 25.3748 24.3065 25.3824 24.2965 25.3879C24.2864 25.3934 24.2753 25.3968 24.2639 25.3979C24.2525 25.399 24.241 25.3978 24.23 25.3943L23.8667 25.2778C23.8442 25.2707 23.8249 25.2559 23.8123 25.2359C23.7997 25.2159 23.7946 25.1922 23.7978 25.1688L24.139 22.6459C24.1399 22.6391 24.1432 22.6329 24.1485 22.6286C24.1537 22.6243 24.1603 22.6223 24.1669 22.623C24.9039 22.6848 25.6336 22.6356 26.3559 22.4753C26.3613 22.474 26.3669 22.4745 26.3719 22.4767C26.3769 22.4789 26.3811 22.4828 26.3838 22.4877C26.3864 22.4926 26.3875 22.4982 26.3868 22.5039C26.386 22.5095 26.3835 22.5147 26.3797 22.5188Z" fill="#FFDEC7"/>
<path d="M28.9657 22.6857C29.9693 22.7102 30.922 23.1337 31.6142 23.863C32.3064 24.5922 32.6815 25.5676 32.6569 26.5744C32.6447 27.0729 32.5348 27.5642 32.3334 28.0201C32.1319 28.476 31.843 28.8877 31.483 29.2317C31.123 29.5756 30.699 29.845 30.2353 30.0246C29.7715 30.2041 29.2771 30.2903 28.7802 30.2782C27.7766 30.2536 26.8239 29.8302 26.1317 29.1009C25.4395 28.3716 25.0644 27.3963 25.089 26.3895C25.1012 25.8909 25.2112 25.3997 25.4126 24.9437C25.614 24.4878 25.9029 24.0761 26.2629 23.7322C26.6229 23.3883 27.0469 23.1188 27.5106 22.9393C27.9744 22.7597 28.4688 22.6736 28.9657 22.6857ZM30.0845 25.1082C30.0847 24.984 30.0356 24.8648 29.9479 24.7768C29.8602 24.6888 29.7412 24.6393 29.617 24.639L29.5858 24.639C29.4616 24.6388 29.3424 24.6879 29.2545 24.7756C29.1665 24.8633 29.1169 24.9823 29.1167 25.1065L29.1131 27.1782C29.1129 27.3024 29.162 27.4216 29.2497 27.5096C29.3374 27.5976 29.4564 27.6471 29.5806 27.6473L29.6118 27.6474C29.736 27.6476 29.8552 27.5985 29.9431 27.5108C30.0311 27.4231 30.0807 27.3041 30.0809 27.1799L30.0845 25.1082Z" fill="#FFDEC7"/>
<path d="M29.6186 24.6395L29.5875 24.6395C29.3288 24.639 29.1188 24.8483 29.1183 25.107L29.1147 27.1787C29.1143 27.4374 29.3236 27.6474 29.5822 27.6478L29.6134 27.6479C29.872 27.6484 30.082 27.4391 30.0825 27.1804L30.0861 25.1087C30.0866 24.85 29.8773 24.64 29.6186 24.6395Z" fill="black"/>
<path d="M39.3986 24.6375L39.3642 24.6374C39.1037 24.6365 38.8918 24.8469 38.8909 25.1073L38.8837 27.1725C38.8828 27.4329 39.0932 27.6448 39.3537 27.6457L39.3881 27.6459C39.6486 27.6468 39.8604 27.4364 39.8614 27.1759L39.8686 25.1107C39.8695 24.8503 39.6591 24.6384 39.3986 24.6375Z" fill="black"/>
<path d="M47.1493 25.5889C47.3188 25.6282 47.5034 25.6638 47.703 25.6955C47.966 25.737 48.2664 25.909 48.6043 26.2114C49.4179 26.9389 49.6566 28.4135 49.486 29.4674C49.3326 30.4205 48.9275 31.3997 48.3148 32.2035C47.3552 33.4627 46.0662 34.2531 44.4477 34.5746C44.4287 34.5783 44.4112 34.5871 44.397 34.6002C44.3828 34.6132 44.3725 34.6299 44.3674 34.6484C43.7752 36.7464 42.6398 38.4707 40.9612 39.8212C40.8415 39.9218 40.7288 40.0079 40.6233 40.0795C40.2827 40.3108 39.9581 40.5164 39.6498 40.6963C37.1392 42.157 34.3113 42.5023 31.4916 41.7043C30.7868 41.5047 30.1837 41.2669 29.6823 40.9907C29.281 40.7698 28.6762 40.3896 27.8681 39.8499C27.8561 39.8176 27.8326 39.787 27.7976 39.758C26.1589 38.4119 25.0541 36.7089 24.4833 34.6492C24.4792 34.6347 24.4709 34.6217 24.4595 34.612C24.4481 34.6022 24.4341 34.596 24.4193 34.5943C23.9165 34.5328 23.3178 34.4032 22.8643 34.2113C21.792 33.758 20.9115 33.0608 20.2225 32.1198C19.2072 30.7321 18.6281 28.717 19.3843 27.0635C19.6309 26.525 20.003 26.1228 20.5006 25.8571C20.8745 25.6815 21.2937 25.5511 21.7013 25.6389C22.3738 25.7827 23.0029 26.0424 23.5885 26.4181C23.5968 26.4233 23.6066 26.4259 23.6164 26.4255C23.6263 26.4251 23.6358 26.4216 23.6437 26.4157C23.6515 26.4097 23.6574 26.4014 23.6604 26.392C23.6634 26.3827 23.6635 26.3726 23.6606 26.3631L23.6508 26.3344C23.6472 26.3233 23.6468 26.3115 23.6495 26.3002C23.6522 26.2888 23.658 26.2785 23.6662 26.2703C23.6745 26.262 23.6848 26.2562 23.6961 26.2535C23.7074 26.2508 23.7193 26.2513 23.7304 26.2548L24.1076 26.3754C24.1271 26.3817 24.1442 26.3938 24.1567 26.4101C24.1691 26.4263 24.1763 26.446 24.1774 26.4664C24.2309 27.5294 24.5082 28.4152 25.009 29.1238C25.7089 30.1134 26.646 30.7597 27.8205 31.0627C29.4953 31.4949 31.3308 30.8371 32.4356 29.5166C33.0529 28.7785 33.4217 27.925 33.542 26.9561C33.5456 26.9276 33.5581 26.9011 33.5778 26.8804C33.5974 26.8597 33.6231 26.846 33.6511 26.8413C34.2799 26.7335 34.8573 26.7434 35.3833 26.8708C35.3988 26.8746 35.4128 26.8832 35.4232 26.8952C35.4337 26.9073 35.44 26.9222 35.4415 26.938C35.4989 27.5914 35.6714 28.1738 35.959 28.685C36.6201 29.8584 37.5857 30.6323 38.8558 31.0069C40.0008 31.3442 41.1302 31.2259 42.2439 30.6517C42.5075 30.5156 42.8189 30.2996 43.1781 30.0038C44.1738 29.1837 44.816 27.6713 44.7758 26.4C44.7751 26.3792 44.7813 26.3588 44.7933 26.3418C44.8052 26.3247 44.8224 26.3121 44.8422 26.3057L45.1654 26.2032C45.1708 26.2013 45.1766 26.2007 45.1823 26.2014C45.188 26.2021 45.1935 26.204 45.1984 26.207C45.2033 26.2101 45.2075 26.2142 45.2107 26.219C45.214 26.2239 45.2161 26.2294 45.217 26.2352C45.2214 26.268 45.2299 26.2912 45.2425 26.3049C45.2523 26.3159 45.2661 26.3226 45.281 26.3235C45.2959 26.3245 45.3106 26.3195 45.322 26.3098C45.4806 26.1786 45.6495 26.0788 45.8289 26.0104C46.4243 25.7849 46.7434 25.6299 47.1493 25.5889ZM35.0339 29.9964C35.065 30.7313 34.8854 31.5424 34.6074 32.2273C34.5981 32.25 34.5925 32.2744 34.591 32.2995C34.5724 32.5696 34.6708 32.7489 34.8862 32.8375C35.4013 33.0483 35.5653 32.4413 35.6752 32.0723C35.8857 31.368 35.976 30.6632 35.9459 29.9579C35.9158 29.2525 35.766 28.5579 35.4964 27.8739C35.3546 27.5154 35.1397 26.9249 34.6443 27.1792C34.4376 27.2858 34.355 27.4728 34.3966 27.7402C34.4002 27.765 34.4076 27.7888 34.4187 27.8107C34.7542 28.4693 35.0027 29.2624 35.0339 29.9964ZM47.3158 28.3413C47.2825 28.3048 47.2419 28.2756 47.1966 28.2557C47.1513 28.2358 47.1023 28.2256 47.0528 28.2259C47.0034 28.2261 46.9545 28.2367 46.9094 28.257C46.8643 28.2774 46.8239 28.3069 46.7909 28.3438L46.0848 29.1336C46.0657 29.1549 46.0495 29.1786 46.0364 29.2042C45.7583 29.7373 45.3753 30.2622 44.9242 30.678C44.8061 30.7868 44.7189 30.8855 44.6626 30.9741C44.4305 31.3399 44.6019 31.8 45.0825 31.7598C45.5328 31.7221 45.9166 30.687 46.1446 30.4738C46.2376 30.3879 46.3669 30.3754 46.5326 30.436C47.1411 30.6597 47.4618 30.777 47.4946 30.7879C47.7505 30.871 47.9285 30.7988 48.0286 30.5714C48.1942 30.1925 47.9876 30.0186 47.6168 29.9407C47.3987 29.8947 47.1658 29.8108 46.9181 29.6889C46.9078 29.684 46.8988 29.6769 46.8917 29.6682C46.8845 29.6594 46.8794 29.6491 46.8767 29.6381C46.8739 29.627 46.8736 29.6155 46.8758 29.6043C46.878 29.5931 46.8826 29.5825 46.8894 29.5732L47.3667 28.9122C47.4257 28.8305 47.4546 28.7308 47.4485 28.6302C47.4424 28.5296 47.4016 28.4342 47.3331 28.3602L47.3158 28.3413ZM23.7058 31.7639C23.7528 31.7407 23.7945 31.708 23.8283 31.6679C23.8621 31.6278 23.8873 31.5812 23.9022 31.531C23.9172 31.4808 23.9216 31.4281 23.9151 31.3761C23.9087 31.3242 23.8916 31.2741 23.8649 31.2291C23.6494 30.8677 23.4034 30.5377 23.1267 30.2392C22.9176 30.0128 22.715 29.7069 22.5616 29.4313C22.3478 29.047 22.1168 28.7208 21.8686 28.4529C21.6444 28.2107 21.4211 28.1921 21.1985 28.3971C21.177 28.417 21.1612 28.4425 21.1526 28.4709C21.1006 28.6453 21.0894 28.7629 21.119 28.8236C21.2562 29.1057 21.444 29.3679 21.6824 29.6101C21.6904 29.6182 21.696 29.6283 21.6988 29.6393C21.7016 29.6504 21.7014 29.6619 21.6982 29.6727C21.695 29.6836 21.689 29.6933 21.6807 29.7009C21.6724 29.7085 21.6623 29.7137 21.6512 29.7159C21.5468 29.7384 21.2882 29.7947 20.8754 29.8849C20.6944 29.9243 20.5738 29.98 20.5137 30.0522C20.316 30.2892 20.4333 30.6887 20.7163 30.7936C20.8026 30.8259 20.9557 30.8035 21.1756 30.7264C21.4391 30.634 21.7453 30.5397 22.0941 30.4434C22.2265 30.4068 22.3295 30.4486 22.4033 30.5689C22.5477 30.8062 22.6428 30.9601 22.6888 31.0307C22.7084 31.0607 22.7312 31.0887 22.7568 31.1143C22.893 31.2521 23.0201 31.4186 23.1382 31.6138C23.1925 31.704 23.2787 31.7705 23.3796 31.8003C23.4806 31.83 23.5891 31.8208 23.6836 31.7746L23.7058 31.7639ZM34.5877 35.8393C35.2053 35.8401 35.7507 35.6876 36.3658 35.4464C37.0613 35.1733 36.6668 34.2916 36.0296 34.5689C35.5402 34.7816 35.0601 34.8874 34.5893 34.8863C34.118 34.8857 33.6382 34.778 33.15 34.5631C32.5135 34.2843 32.1157 35.1643 32.8104 35.4399C33.4247 35.6835 33.9693 35.8376 34.5877 35.8393Z" fill="#FFDEC7"/>
<path d="M35.9464 29.9576C35.9765 30.663 35.8863 31.3678 35.6758 32.072C35.5659 32.4411 35.4019 33.048 34.8868 32.8372C34.6714 32.7486 34.5729 32.5693 34.5915 32.2992C34.5931 32.2742 34.5986 32.2498 34.6079 32.227C34.886 31.5422 35.0656 30.731 35.0344 29.9962C35.0033 29.2621 34.7547 28.469 34.4193 27.8104C34.4082 27.7885 34.4007 27.7647 34.3972 27.7399C34.3556 27.4725 34.4382 27.2855 34.6448 27.1789C35.1402 26.9247 35.3551 27.5152 35.497 27.8736C35.7666 28.5576 35.9164 29.2523 35.9464 29.9576Z" fill="black"/>
<path d="M47.3163 28.342L47.3335 28.3609C47.402 28.4349 47.4428 28.5302 47.4489 28.6309C47.4551 28.7315 47.4261 28.8311 47.3671 28.9129L46.8898 29.5739C46.8831 29.5832 46.8785 29.5938 46.8763 29.605C46.8741 29.6162 46.8744 29.6277 46.8771 29.6388C46.8798 29.6498 46.885 29.6601 46.8921 29.6688C46.8993 29.6776 46.9083 29.6847 46.9185 29.6896C47.1662 29.8115 47.3991 29.8954 47.6173 29.9414C47.988 30.0193 48.1947 30.1931 48.029 30.5721C47.9289 30.7995 47.751 30.8717 47.4951 30.7886C47.4623 30.7776 47.1416 30.6604 46.533 30.4367C46.3673 30.376 46.238 30.3886 46.1451 30.4745C45.9171 30.6877 45.5332 31.7228 45.083 31.7605C44.6024 31.8007 44.4309 31.3406 44.663 30.9748C44.7194 30.8862 44.8066 30.7875 44.9247 30.6787C45.3758 30.2629 45.7588 29.7379 46.0368 29.2048C46.0499 29.1793 46.0662 29.1555 46.0852 29.1343L46.7914 28.3445C46.8243 28.3076 46.8647 28.278 46.9098 28.2577C46.9549 28.2374 47.0038 28.2268 47.0533 28.2266C47.1028 28.2263 47.1517 28.2365 47.197 28.2564C47.2423 28.2763 47.283 28.3055 47.3163 28.342Z" fill="#DDC0AC"/>
<path d="M23.7064 31.7646L23.6842 31.7753C23.5897 31.8216 23.4812 31.8307 23.3802 31.801C23.2793 31.7712 23.1931 31.7047 23.1388 31.6145C23.0207 31.4193 22.8936 31.2528 22.7574 31.115C22.7318 31.0894 22.709 31.0614 22.6893 31.0314C22.6434 30.9608 22.5483 30.8069 22.4039 30.5696C22.3301 30.4493 22.227 30.4075 22.0947 30.4441C21.7459 30.5404 21.4397 30.6347 21.1761 30.7271C20.9563 30.8042 20.8032 30.8266 20.7169 30.7944C20.4339 30.6894 20.3166 30.29 20.5143 30.0529C20.5744 29.9808 20.695 29.925 20.876 29.8856C21.2888 29.7954 21.5474 29.7391 21.6518 29.7167C21.6629 29.7144 21.673 29.7092 21.6813 29.7016C21.6896 29.694 21.6956 29.6843 21.6988 29.6734C21.702 29.6626 21.7022 29.6511 21.6994 29.6401C21.6966 29.629 21.691 29.619 21.683 29.6109C21.4446 29.3686 21.2568 29.1065 21.1196 28.8243C21.09 28.7636 21.1012 28.6461 21.1532 28.4716C21.1618 28.4432 21.1776 28.4177 21.1991 28.3978C21.4216 28.1928 21.645 28.2114 21.8692 28.4536C22.1174 28.7215 22.3484 29.0477 22.5622 29.4321C22.7156 29.7076 22.9182 30.0136 23.1273 30.2399C23.404 30.5385 23.65 30.8684 23.8655 31.2299C23.8922 31.2749 23.9093 31.3249 23.9157 31.3768C23.9222 31.4288 23.9178 31.4815 23.9028 31.5317C23.8879 31.582 23.8627 31.6286 23.8289 31.6686C23.7951 31.7087 23.7534 31.7414 23.7064 31.7646Z" fill="#DDC0AC"/>
<path d="M34.5899 34.8868C35.0607 34.8879 35.5408 34.7821 36.0301 34.5694C36.6674 34.2922 37.0619 35.1739 36.3664 35.447C35.7513 35.6881 35.2059 35.8407 34.5883 35.8399C33.9699 35.8382 33.4253 35.684 32.811 35.4404C32.1163 35.1649 32.5141 34.2848 33.1505 34.5637C33.6388 34.7786 34.1186 34.8863 34.5899 34.8868Z" fill="black"/>
<path d="M40.9614 39.8223L41.0754 41.3289C40.8266 41.5591 40.5824 41.7852 40.3429 42.0072C40.0318 42.2948 39.7776 42.5078 39.5802 42.6461C36.9639 44.4742 33.6471 44.6522 30.8594 43.1119C30.2434 42.7724 29.6742 42.4189 29.1854 41.894C29.0148 41.7103 28.763 41.4702 28.43 41.1739C28.3617 41.1127 28.2994 41.0413 28.2431 40.9598C28.1889 40.8822 28.1397 40.8013 28.0954 40.7171C28.02 40.5744 27.9341 40.4311 27.8379 40.2873L27.8682 39.851C28.6764 40.3906 29.2811 40.7709 29.6824 40.9918C30.1838 41.2679 30.7869 41.5058 31.4917 41.7054C34.3115 42.5034 37.1394 42.1581 39.6499 40.6974C39.9583 40.5175 40.2828 40.3119 40.6234 40.0806C40.729 40.009 40.8416 39.9229 40.9614 39.8223Z" fill="#DDC0AC"/>
<path d="M41.0754 41.3277C41.159 42.6028 41.2386 43.8552 41.3141 45.0849C41.3146 45.0969 41.3253 45.1142 41.346 45.1366C41.3466 45.1754 41.3346 45.2079 41.31 45.2342C41.3025 45.2424 41.2969 45.2521 41.2935 45.2625C41.2901 45.273 41.289 45.284 41.2903 45.2949C41.3223 45.5606 41.41 45.9879 41.2558 46.2397C41.2417 46.2626 41.224 46.2835 41.2033 46.302C40.0885 47.2955 39.4115 47.9022 39.1726 48.122C36.6771 50.4228 35.197 51.7654 34.7322 52.1498C34.6294 52.2346 34.5048 52.2627 34.3582 52.2343C34.3314 52.2295 34.3062 52.2176 34.2852 52.1998C34.037 51.9921 33.856 51.8373 33.7423 51.7356C32.1933 50.3567 30.1765 48.5384 27.6919 46.2807C27.5727 46.1725 27.5301 46.0303 27.564 45.8542C27.622 45.5557 27.6255 45.2998 27.5747 45.0866L27.8379 40.2861C27.9342 40.4299 28.02 40.5732 28.0955 40.7159C28.1398 40.8001 28.189 40.881 28.2431 40.9587C28.2994 41.0401 28.3617 41.1115 28.4301 41.1727C28.7631 41.4691 29.0149 41.7091 29.1855 41.8928C29.6743 42.4177 30.2435 42.7712 30.8594 43.1108C33.6472 44.651 36.9639 44.4731 39.5802 42.6449C39.7776 42.5066 40.0319 42.2936 40.343 42.006C40.5825 41.784 40.8266 41.5579 41.0754 41.3277Z" fill="#FFDEC7"/>
<path d="M27.575 45.0869C27.6258 45.3002 27.6223 45.556 27.5643 45.8546C27.5304 46.0306 27.5731 46.1728 27.6923 46.2811C30.1768 48.5387 32.1936 50.357 33.7426 51.736C33.8564 51.8377 34.0373 51.9924 34.2856 52.2002C34.3065 52.2179 34.3317 52.2298 34.3586 52.2346C34.5051 52.2631 34.6298 52.2349 34.7326 52.1502C35.1973 51.7658 36.6775 50.4232 39.1729 48.1223C39.4119 47.9025 40.0888 47.2959 41.2037 46.3024C41.2243 46.2839 41.242 46.2629 41.2562 46.2401C41.4104 45.9883 41.3226 45.561 41.2906 45.2952C41.2893 45.2844 41.2904 45.2734 41.2938 45.2629C41.2972 45.2524 41.3028 45.2428 41.3103 45.2345C41.3349 45.2083 41.3469 45.1758 41.3464 45.1369C41.5891 45.219 41.8281 45.3086 42.0632 45.406C43.0053 45.7947 43.9469 46.1846 44.8879 46.5755C45.2673 46.7335 45.6181 46.8967 45.9401 47.0652C45.7706 47.2751 45.6153 47.5039 45.4743 47.7516C45.2228 48.1951 45.0852 48.4351 45.0617 48.4717C43.8348 50.4163 42.2379 53.0868 41.2586 54.6632C40.5664 55.7794 39.9185 56.9637 39.2779 57.92C39.2531 57.9572 39.2164 57.985 39.1739 57.9988C39.1313 58.0127 39.0853 58.0118 39.0434 57.9963C38.9674 57.9684 38.8883 57.9044 38.8063 57.8044C38.5045 57.4361 38.311 57.1483 38.0001 56.83C37.7415 56.5654 37.5241 56.2778 37.3481 55.9672C37.3426 55.9577 37.3352 55.9494 37.3263 55.9429C37.3174 55.9364 37.3072 55.9318 37.2964 55.9295C37.2691 55.924 37.2406 55.9278 37.2111 55.941C37.2423 55.8715 37.2349 55.8084 37.189 55.7515C36.6329 55.0593 35.9866 54.3146 35.4453 53.5904C35.2791 53.3678 34.971 52.996 34.521 52.475C34.5148 52.4678 34.5072 52.4621 34.4987 52.4583C34.4901 52.4544 34.4808 52.4525 34.4714 52.4527C34.462 52.4528 34.4527 52.4551 34.4443 52.4592C34.4359 52.4633 34.4284 52.4693 34.4226 52.4766L31.7792 55.7646C31.7737 55.7712 31.7693 55.7786 31.766 55.7868L31.7439 55.8401C31.728 55.8385 31.7119 55.8406 31.6955 55.8467C31.6813 55.8521 31.6687 55.8631 31.6578 55.8795C31.3155 56.3918 30.9317 56.8727 30.5063 57.3221C30.433 57.3992 30.3595 57.4851 30.2856 57.5797C30.147 57.7593 29.8739 58.2391 29.664 57.9053C29.2063 57.1808 28.7787 56.4801 28.3812 55.8032C27.4872 54.2801 26.0036 51.9632 24.825 50.0112C24.3952 49.3009 23.8834 48.5882 23.4816 47.8336C23.4132 47.7057 23.3356 47.5728 23.2486 47.435C23.1644 47.3022 23.0835 47.1712 23.0059 47.0422L27.575 45.0869Z" fill="#D2E8FF"/>
<path d="M40.0675 22.6857C39.0639 22.7102 38.1112 23.1337 37.419 23.863C36.7268 24.5922 36.3517 25.5676 36.3763 26.5744C36.3885 27.0729 36.4984 27.5642 36.6999 28.0201C36.9013 28.476 37.1902 28.8877 37.5502 29.2317C37.9102 29.5756 38.3342 29.845 38.7979 30.0246C39.2617 30.2041 39.7561 30.2903 40.253 30.2782C41.2566 30.2536 42.2093 29.8302 42.9015 29.1009C43.5937 28.3716 43.9688 27.3963 43.9442 26.3895C43.932 25.8909 43.822 25.3997 43.6206 24.9437C43.4192 24.4878 43.1303 24.0761 42.7703 23.7322C42.4103 23.3883 41.9863 23.1188 41.5226 22.9393C41.0588 22.7597 40.5644 22.6736 40.0675 22.6857ZM38.9487 25.1082C38.9485 24.984 38.9976 24.8648 39.0853 24.7768C39.173 24.6888 39.292 24.6393 39.4162 24.639L39.4474 24.639C39.5716 24.6388 39.6908 24.6879 39.7787 24.7756C39.8667 24.8633 39.9163 24.9823 39.9165 25.1065L39.9201 27.1782C39.9203 27.3024 39.8712 27.4216 39.7835 27.5096C39.6958 27.5976 39.5768 27.6471 39.4526 27.6473L39.4214 27.6474C39.2972 27.6476 39.178 27.5985 39.0901 27.5108C39.0021 27.4231 38.9525 27.3041 38.9523 27.1799L38.9487 25.1082Z" fill="#FFDEC7"/>
<path d="M-3.94488 64.2489C2.96544 75.2909 14.7113 82.7062 27.848 84.0443C28.7461 84.1408 35.998 84.2361 36.9124 84.265C35.8235 70.2059 26.0006 45.7672 26.0006 45.7672C26.0006 45.7672 7.62012 47.894 -3.94488 64.2489Z" fill="#30333A"/>
<path d="M74.0504 64.2489C67.14 75.2909 55.3942 82.7062 42.2574 84.0443C41.3594 84.1408 34.1074 84.2361 33.1931 84.265C34.282 70.2059 44.1049 45.7672 44.1049 45.7672C44.1049 45.7672 62.4853 47.894 74.0504 64.2489Z" fill="#30333A"/>
</g>
<defs>
<clipPath id="clip0_20004901_60469">
<path d="M0 11.5966C0 5.192 5.19199 0 11.5966 0H55.6639C62.0685 0 67.2605 5.19199 67.2605 11.5966V57.4034C67.2605 63.808 62.0685 69 55.6639 69H11.5966C5.19199 69 0 63.808 0 57.4034V11.5966Z" fill="white"/>
</clipPath>
</defs>
</svg>
