<svg width="68" height="69" viewBox="0 0 68 69" fill="none" xmlns="http://www.w3.org/2000/svg">
<g clip-path="url(#clip0_20004901_60528)">
<path d="M0 11.5966C0 5.192 5.19199 0 11.5966 0H55.6639C62.0685 0 67.2605 5.19199 67.2605 11.5966V57.4034C67.2605 63.808 62.0685 69 55.6639 69H11.5966C5.19199 69 0 63.808 0 57.4034V11.5966Z" fill="#09D9B6"/>
<path d="M32.5056 8L34.2317 8.11637L35.105 8.28733C36.1915 8.5932 36.9999 8.90937 37.8969 9.53655C38.3714 9.83109 38.7723 10.1981 39.0998 10.6375C39.1141 10.6566 39.1334 10.6714 39.1556 10.6802C39.1778 10.6889 39.202 10.6912 39.2255 10.6869C39.8743 10.5668 40.5303 10.5568 41.1935 10.657L41.832 10.8465C42.5227 11.093 43.1482 11.4538 43.7085 11.9289C44.347 12.4308 44.9062 13.0106 45.3861 13.6684C46.2677 14.793 46.764 15.8269 47.3675 16.9866C47.5557 17.347 47.8732 18.1795 48.3202 19.484C48.7191 20.8908 48.9752 21.8863 49.0884 22.4706C49.234 23.221 49.3816 23.967 49.5313 24.7085C49.6528 25.2138 49.7716 25.7157 49.8876 26.2141C50.0483 26.9062 50.2546 27.5873 50.5066 28.2574C50.7146 29.0133 51.0781 29.865 51.2522 30.4695C51.4468 31.1482 51.6899 31.7867 51.8382 32.5014C51.9013 32.8035 51.9618 33.1049 52.0194 33.4056C52.176 34.4115 52.1849 35.42 52.0462 36.4314L51.936 36.9597C51.6634 38.1372 51.1416 39.1856 50.3706 40.1049L49.5323 40.9257C49.0016 41.3747 48.4026 41.7173 47.7352 41.9535C47.729 41.9562 47.6909 41.9744 47.6209 42.0081C47.5756 42.0293 47.5313 42.0359 47.488 42.0276C47.4775 42.0257 47.4674 42.0216 47.4585 42.0156C47.4495 42.0096 47.442 42.0018 47.4362 41.9927C47.4305 41.9835 47.4268 41.9733 47.4252 41.9627C47.4237 41.952 47.4244 41.9412 47.4273 41.9308C47.5515 41.4914 47.6151 41.0647 47.6178 40.6507C47.6182 40.6413 47.6155 40.6319 47.6101 40.6241C47.6047 40.6164 47.5969 40.6106 47.5879 40.6077C47.5789 40.6047 47.5692 40.6049 47.5603 40.608C47.5514 40.6111 47.5437 40.6171 47.5385 40.625C47.3521 40.8938 47.1842 41.1605 46.9402 41.3819C46.3524 41.9154 45.992 42.2302 45.8588 42.3263C45.143 42.8443 44.2481 43.1965 43.3707 43.4674C42.5255 43.729 41.6604 43.9051 40.7754 43.9957L39.8846 44.0801L39.7847 42.0585L39.7744 41.0699C40.2677 40.5817 40.8207 40.0936 41.2059 39.5683C41.8506 38.6899 42.555 37.6044 42.9649 36.5786C43.1592 36.0932 43.3477 35.5951 43.5303 35.0843C43.5338 35.0749 43.5406 35.0671 43.5493 35.0623C43.558 35.0576 43.5681 35.0562 43.5777 35.0586C44.8567 35.3497 46.0081 35.0905 47.0318 34.281C47.7867 33.6837 48.487 32.7352 48.7115 31.7661C48.902 30.9453 49.004 30.0081 48.7836 29.1544C48.66 28.6793 48.5697 28.3792 48.5127 28.2543C48.2697 27.7235 47.9051 27.2539 47.419 26.8454C46.5056 26.0792 45.5581 26.1492 44.4901 26.5715C44.4773 26.5767 44.4634 26.5787 44.4497 26.5772C44.4359 26.5757 44.4227 26.5708 44.4112 26.563C44.3997 26.5552 44.3903 26.5446 44.3838 26.5323C44.3772 26.5199 44.3738 26.5062 44.3737 26.4922V24.9958C44.3738 24.9549 44.3642 24.9145 44.3458 24.8779C44.3274 24.8412 44.3006 24.8093 44.2677 24.7847C43.7321 24.3861 43.3253 24.0586 42.9185 23.5777C42.5396 23.1297 42.1276 22.7455 41.7919 22.2965C40.4077 20.45 39.2852 18.3748 38.5056 16.2389C38.4892 16.1932 38.4648 16.1507 38.4335 16.1132C38.0432 15.6436 37.554 15.2883 36.9186 15.2718C36.8935 15.2709 36.8687 15.2766 36.8464 15.2883C36.8242 15.3001 36.8054 15.3175 36.7919 15.3388C36.483 15.8331 36.1956 16.3075 35.9299 16.7621C35.3295 17.7899 34.5478 18.8032 34.0885 19.4109C33.7823 19.8159 33.5434 20.1094 33.3717 20.2914C32.7816 20.9175 32.3944 21.4788 31.7549 22.0617C31.4837 22.3089 31.1809 22.6048 30.8465 22.9495C30.8397 22.9565 30.8348 22.9651 30.8321 22.9745C30.8294 22.9839 30.8291 22.9938 30.8311 23.0033C30.8331 23.0129 30.8375 23.0218 30.8438 23.0293C30.85 23.0368 30.8581 23.0426 30.8671 23.0463L31.0793 23.1287C30.5767 23.1101 30.2348 23.4098 29.9495 23.7919C29.9462 23.7963 29.9441 23.8014 29.9434 23.8069C29.9428 23.8124 29.9436 23.8179 29.9458 23.8229C29.948 23.828 29.9515 23.8323 29.956 23.8356C29.9604 23.8388 29.9657 23.8408 29.9711 23.8413L30.3779 23.8928L29.7497 23.9309C29.7149 23.9329 29.6812 23.9455 29.6529 23.967C29.1435 24.3576 28.5331 24.7799 27.8218 25.2337C27.1596 25.6559 26.2132 26.0916 25.6457 26.312C25.1267 26.5124 24.4377 26.6882 23.5788 26.8392C23.4689 26.8585 23.3533 26.8681 23.2317 26.8681C23.1792 26.8681 23.1267 26.8601 23.0762 26.8444C22.8085 26.761 22.5634 26.659 22.2709 26.6291C20.7405 26.4726 19.515 27.4561 18.9815 28.8413C18.516 30.0483 18.5253 31.3397 19.0278 32.5406C19.4388 33.521 19.9207 34.2295 20.8538 34.8032C21.6852 35.3147 22.5194 35.5498 23.3563 35.5086C23.7673 35.488 24.0628 35.4097 24.4336 35.279C24.4455 35.2747 24.4581 35.2729 24.4707 35.2735C24.4833 35.2742 24.4957 35.2773 24.5071 35.2828C24.5185 35.2883 24.5287 35.2959 24.5371 35.3053C24.5455 35.3147 24.552 35.3257 24.5561 35.3376C25.2173 37.2298 26.2362 38.8924 27.6128 40.3253C27.7295 40.4468 27.8895 40.5917 28.0927 40.7599C28.2643 40.9027 28.4277 41.0441 28.5829 41.1842L28.5839 41.8443L28.5489 43.9699L26.6138 43.7835C25.7353 43.593 24.896 43.4911 23.9938 43.1821C23.2249 42.9397 22.6173 42.7101 22.171 42.4931C21.516 42.1752 20.8624 41.6946 20.2101 41.0513C20.09 40.9325 19.9678 40.8127 19.8435 40.6919C19.8409 40.6893 19.8375 40.6876 19.8339 40.6871C19.8303 40.6866 19.8266 40.6873 19.8233 40.6891C19.82 40.6909 19.8173 40.6938 19.8155 40.6972C19.8138 40.7007 19.8131 40.7046 19.8136 40.7084C19.8898 41.1533 20.0203 41.5995 20.205 42.0472C19.802 42.0348 19.4257 41.9665 19.0762 41.8423L18.1082 41.4447C16.1068 40.3359 14.93 38.6284 14.5778 36.3222C14.4165 35.4111 14.4003 34.4997 14.5294 33.5879C14.6434 32.707 14.8411 31.8382 15.1226 30.9813C15.4446 30.003 15.7944 29.0363 16.172 28.0813C16.4861 27.1626 16.8219 26.244 17.0948 25.3243C17.2822 24.6951 17.4717 24.1668 17.6643 23.4417C17.8648 22.6831 18.078 21.9299 18.3039 21.1822L18.9063 19.2801C19.3045 18.2674 19.6293 17.4957 19.8806 16.9649C20.3701 15.9316 20.9952 14.8592 21.7559 13.7477C23.0762 11.9619 24.7467 10.4377 26.6993 9.43871C28.5379 8.49467 30.4734 8.0151 32.5056 8Z" fill="#33312D"/>
<path d="M39.7737 41.0706C39.3851 41.3081 38.9975 41.5567 38.611 41.8162C38.0624 42.1842 37.6717 42.4262 37.439 42.5422C36.5595 42.9796 35.6134 43.2161 34.6007 43.2518C32.5135 43.3246 30.6628 42.7413 29.0487 41.5021C28.9917 41.4581 28.9131 41.4056 28.8129 41.3445C28.736 41.2965 28.6591 41.2432 28.5822 41.1849C28.427 41.0448 28.2636 40.9034 28.092 40.7606C27.8887 40.5924 27.7288 40.4475 27.612 40.326C26.2355 38.8931 25.2166 37.2306 24.5554 35.3384C24.5513 35.3264 24.5448 35.3155 24.5364 35.306C24.5279 35.2966 24.5177 35.289 24.5064 35.2835C24.495 35.2781 24.4826 35.2749 24.47 35.2743C24.4574 35.2736 24.4448 35.2754 24.4329 35.2797C24.0621 35.4105 23.7665 35.4887 23.3556 35.5093C22.5187 35.5505 21.6845 35.3154 20.8531 34.8039C19.92 34.2302 19.438 33.5217 19.0271 32.5413C18.5245 31.3404 18.5153 30.049 18.9808 28.842C19.5142 27.4568 20.7398 26.4733 22.2702 26.6299C22.5626 26.6597 22.8077 26.7617 23.0755 26.8451C23.126 26.8608 23.1785 26.8688 23.231 26.8688C23.3525 26.8688 23.4682 26.8592 23.5781 26.84C24.437 26.6889 25.126 26.5131 25.645 26.3127C26.2125 26.0923 27.1589 25.6566 27.8211 25.2344C28.5324 24.7806 29.1428 24.3583 29.6522 23.9677C29.6804 23.9462 29.7141 23.9336 29.749 23.9316L30.3772 23.8935C30.5399 23.9244 30.7751 24.0041 31.0827 24.1325C31.3017 24.2238 31.4963 24.1733 31.6666 23.9811C31.689 23.9546 31.7055 23.9237 31.715 23.8904C31.8448 23.426 31.4586 23.2179 31.0786 23.1294L30.8664 23.047C30.8573 23.0433 30.8493 23.0375 30.8431 23.03C30.8368 23.0225 30.8324 23.0136 30.8304 23.004C30.8284 22.9945 30.8287 22.9846 30.8314 22.9752C30.8341 22.9658 30.839 22.9572 30.8458 22.9502C31.1802 22.6055 31.4829 22.3096 31.7541 22.0624C32.3937 21.4795 32.7809 20.9183 33.371 20.2921C33.5427 20.1102 33.7816 19.8167 34.0878 19.4116C34.5471 18.804 35.3288 17.7906 35.9292 16.7628C36.1949 16.3083 36.4822 15.8338 36.7912 15.3395C36.8047 15.3182 36.8235 15.3008 36.8457 15.289C36.8679 15.2773 36.8928 15.2716 36.9179 15.2726C37.5533 15.289 38.0425 15.6443 38.4328 16.114C38.4641 16.1514 38.4885 16.194 38.5049 16.2396C39.2845 18.3755 40.407 20.4507 41.7912 22.2972C42.1269 22.7463 42.5388 23.1304 42.9178 23.5784C43.3246 24.0593 43.7314 24.3868 44.267 24.7854C44.2999 24.81 44.3266 24.8419 44.3451 24.8786C44.3635 24.9152 44.3731 24.9556 44.373 24.9965V26.4929C44.3731 26.5069 44.3765 26.5206 44.3831 26.533C44.3896 26.5453 44.399 26.5559 44.4105 26.5637C44.422 26.5716 44.4352 26.5764 44.449 26.5779C44.4627 26.5794 44.4766 26.5774 44.4894 26.5722C45.5574 26.1499 46.5048 26.0799 47.4183 26.8461C47.9044 27.2546 48.269 27.7243 48.512 28.255C48.569 28.3799 48.6593 28.68 48.7829 29.1551C49.0033 30.0088 48.9013 30.946 48.7108 31.7668C48.4863 32.7359 47.786 33.6844 47.0311 34.2817C46.0074 35.0912 44.856 35.3504 43.5769 35.0593C43.5674 35.057 43.5573 35.0583 43.5486 35.063C43.5399 35.0678 43.5331 35.0756 43.5296 35.085C43.3469 35.5958 43.1585 36.0939 42.9642 36.5794C42.5543 37.6051 41.8499 38.6906 41.2052 39.569C40.82 40.0943 40.267 40.5824 39.7737 41.0706ZM38.8612 23.7627C39.3133 23.7813 39.6851 23.944 40.1166 24.1788C40.2227 24.2362 40.347 24.2495 40.4626 24.216C40.5783 24.1824 40.676 24.1047 40.7345 23.9996L40.7376 23.9934C40.7968 23.888 40.8131 23.7638 40.7832 23.6466C40.7533 23.5295 40.6794 23.4283 40.577 23.3642C40.0167 23.0133 39.4578 22.8307 38.9003 22.8163C38.3428 22.7847 37.7706 22.9203 37.1836 23.2231C37.0761 23.2786 36.9942 23.3733 36.9547 23.4875C36.9152 23.6018 36.9212 23.7269 36.9714 23.8369L36.9735 23.8431C37.0231 23.9527 37.1141 24.0384 37.2267 24.0814C37.3393 24.1244 37.4644 24.1213 37.5749 24.0727C38.0239 23.875 38.4081 23.7442 38.8612 23.7627ZM39.1299 27.1354C39.13 27.0694 39.1171 27.004 39.0919 26.943C39.0668 26.882 39.0299 26.8265 38.9833 26.7798C38.9367 26.733 38.8814 26.6959 38.8204 26.6705C38.7595 26.6452 38.6942 26.6321 38.6282 26.632L38.5932 26.6319C38.5272 26.6318 38.4618 26.6447 38.4008 26.6698C38.3397 26.695 38.2843 26.7319 38.2375 26.7785C38.1908 26.8251 38.1537 26.8804 38.1283 26.9413C38.1029 27.0023 38.0898 27.0676 38.0897 27.1336L38.0859 29.3437C38.0857 29.4097 38.0986 29.475 38.1238 29.5361C38.1489 29.5971 38.1859 29.6525 38.2324 29.6993C38.279 29.746 38.3344 29.7832 38.3953 29.8085C38.4562 29.8339 38.5216 29.847 38.5876 29.8471L38.6226 29.8472C38.6886 29.8473 38.7539 29.8344 38.815 29.8093C38.876 29.7841 38.9314 29.7472 38.9782 29.7006C39.025 29.654 39.0621 29.5987 39.0874 29.5377C39.1128 29.4768 39.1259 29.4115 39.126 29.3455L39.1299 27.1354ZM30.3963 27.2236C30.3959 27.1581 30.3825 27.0934 30.3571 27.0331C30.3316 26.9728 30.2945 26.9181 30.2479 26.8722C30.2013 26.8262 30.1461 26.7899 30.0854 26.7652C30.0248 26.7406 29.9599 26.7282 29.8944 26.7286L29.8573 26.7289C29.7919 26.7294 29.7272 26.7427 29.6669 26.7682C29.6066 26.7936 29.5519 26.8307 29.5059 26.8773C29.4599 26.924 29.4236 26.9792 29.399 27.0398C29.3744 27.1005 29.3619 27.1654 29.3624 27.2308L29.3777 29.4223C29.3781 29.4878 29.3915 29.5525 29.417 29.6128C29.4424 29.6731 29.4795 29.7278 29.5261 29.7737C29.5727 29.8197 29.6279 29.856 29.6886 29.8807C29.7492 29.9053 29.8141 29.9177 29.8796 29.9173L29.9167 29.917C29.9821 29.9166 30.0469 29.9032 30.1072 29.8777C30.1675 29.8523 30.2221 29.8152 30.2681 29.7686C30.3141 29.722 30.3504 29.6668 30.375 29.6061C30.3997 29.5455 30.4121 29.4806 30.4116 29.4151L30.3963 27.2236ZM47.0898 30.9347L46.0465 30.6051C46.0342 30.6013 46.0227 30.5951 46.0129 30.5867C46.003 30.5783 45.995 30.5679 45.9892 30.5563C45.9834 30.5447 45.9801 30.5319 45.9793 30.5189C45.9785 30.5059 45.9804 30.4928 45.9848 30.4805C46.1276 30.0864 46.3449 29.6934 46.6367 29.3013C46.7073 29.2066 46.7392 29.0885 46.726 28.9711C46.7128 28.8537 46.6555 28.7457 46.5656 28.669L46.5594 28.6638C46.5186 28.6289 46.4706 28.6033 46.4189 28.5888C46.3671 28.5744 46.3129 28.5713 46.2598 28.5799C46.2068 28.5886 46.1563 28.6087 46.1118 28.6388C46.0673 28.6689 46.0299 28.7084 46.0023 28.7545C45.5553 29.498 45.2484 29.9131 44.9384 30.5814C44.8265 30.8231 44.6291 31.1791 44.3462 31.6494C44.1877 31.9124 44.1097 32.1764 44.1125 32.4414C44.113 32.503 44.1354 32.5625 44.1757 32.6093C44.2161 32.656 44.2717 32.687 44.3329 32.6968C44.475 32.7201 44.5944 32.6992 44.6913 32.634C44.7145 32.6183 44.735 32.5991 44.752 32.5773C44.9978 32.2615 45.1986 31.9076 45.3545 31.5155C45.3683 31.481 45.3934 31.4522 45.4256 31.4339C45.4577 31.4156 45.4951 31.4087 45.5316 31.4146C46.1125 31.5073 46.5738 31.5917 47.1032 31.5073C47.1213 31.5041 47.1383 31.4963 47.1522 31.4845C47.1662 31.4727 47.1766 31.4575 47.1825 31.4403C47.245 31.2611 47.2415 31.1146 47.1722 31.0006C47.1536 30.9694 47.1243 30.946 47.0898 30.9347ZM20.3886 31.5093L20.3937 31.5423C20.4015 31.5937 20.4194 31.6431 20.4463 31.6876C20.4733 31.7322 20.5088 31.7709 20.5508 31.8017C20.5928 31.8325 20.6404 31.8548 20.6911 31.8671C20.7417 31.8795 20.7943 31.8818 20.8459 31.8739L22.301 31.6515C22.3445 31.6449 22.3889 31.6501 22.4296 31.6664C22.4704 31.6827 22.506 31.7095 22.5328 31.7442L23.3371 32.7761C23.3655 32.8126 23.4012 32.8429 23.4418 32.8651C23.4825 32.8872 23.5273 32.9007 23.5735 32.9046C23.6196 32.9086 23.6661 32.903 23.7099 32.8881C23.7538 32.8733 23.7941 32.8495 23.8283 32.8183L23.8304 32.8162C23.9091 32.7447 23.9601 32.6477 23.9744 32.5424C23.9887 32.4371 23.9655 32.3302 23.9087 32.2405C23.5462 31.6679 23.2094 31.1774 22.8984 30.7689C22.7411 30.5629 22.6045 30.3593 22.4885 30.1582C22.2156 29.6844 21.8108 28.9265 21.3134 28.9213C21.2724 28.9206 21.2325 28.9362 21.2022 28.9646C21.0415 29.1149 20.9859 29.2828 21.0353 29.4682C21.1517 29.9017 21.4885 30.2993 21.8829 30.599C21.9008 30.6125 21.9152 30.6301 21.9249 30.6503C21.9345 30.6705 21.9392 30.6927 21.9385 30.7151C21.9378 30.7375 21.9317 30.7594 21.9208 30.779C21.9099 30.7986 21.8944 30.8152 21.8757 30.8276C21.7693 30.8997 21.6447 30.9364 21.5019 30.9378C21.3522 30.9391 21.0855 30.9797 20.7017 31.0593C20.6018 31.0803 20.5137 31.1386 20.4555 31.2223C20.3972 31.306 20.3733 31.4087 20.3886 31.5093ZM34.8602 31.5196C34.887 32.1942 34.7768 32.6607 34.5893 33.3446C34.5806 33.3765 34.5778 33.4096 34.5811 33.4424C34.646 34.0716 35.3926 34.0171 35.5667 33.4486C35.7651 32.8025 35.8516 32.1468 35.8262 31.4815C35.8001 30.8169 35.6631 30.1702 35.4153 29.5413C35.198 28.9882 34.4493 28.9913 34.4328 29.6237C34.4319 29.6565 34.4372 29.6893 34.4483 29.7205C34.6892 30.3878 34.8345 30.8451 34.8602 31.5196ZM34.5626 36.1695C33.9529 36.1715 33.4534 35.8945 32.9797 35.6865C32.9281 35.6638 32.8725 35.6517 32.8162 35.6508C32.7598 35.6499 32.7039 35.6603 32.6515 35.6813C32.5992 35.7023 32.5515 35.7335 32.5113 35.7731C32.4711 35.8127 32.4392 35.8599 32.4174 35.912L32.406 35.9388C32.3604 36.0479 32.3564 36.17 32.395 36.2819C32.4335 36.3938 32.5119 36.4875 32.6151 36.5454C33.2941 36.9264 33.9443 37.1104 34.5657 37.0974C35.1863 37.1063 35.8348 36.9182 36.5111 36.533C36.6142 36.4746 36.6923 36.3803 36.7303 36.268C36.7683 36.1557 36.7636 36.0334 36.717 35.9244L36.7057 35.8976C36.6835 35.8456 36.6512 35.7986 36.6107 35.7592C36.5702 35.7199 36.5222 35.689 36.4697 35.6684C36.4172 35.6478 36.3611 35.6378 36.3047 35.6392C36.2483 35.6405 36.1928 35.6531 36.1413 35.6762C35.6697 35.8873 35.1712 36.1674 34.5626 36.1695Z" fill="#FFE1CC"/>
<path d="M38.9012 22.815C39.4587 22.8294 40.0176 23.0121 40.5778 23.3629C40.6803 23.4271 40.7541 23.5282 40.784 23.6454C40.814 23.7625 40.7976 23.8867 40.7385 23.9922L40.7354 23.9983C40.6768 24.1034 40.5792 24.1812 40.4635 24.2147C40.3478 24.2482 40.2235 24.2349 40.1175 24.1775C39.6859 23.9427 39.3142 23.78 38.8621 23.7615C38.4089 23.7429 38.0248 23.8737 37.5758 24.0715C37.4653 24.12 37.3402 24.1231 37.2276 24.0801C37.115 24.0371 37.024 23.9515 36.9743 23.8418L36.9723 23.8356C36.922 23.7256 36.916 23.6005 36.9555 23.4863C36.995 23.372 37.077 23.2773 37.1844 23.2218C37.7714 22.919 38.3437 22.7834 38.9012 22.815Z" fill="black"/>
<path d="M31.0794 23.1287C31.4594 23.2173 31.8456 23.4253 31.7159 23.8898C31.7064 23.9231 31.6899 23.954 31.6675 23.9804C31.4972 24.1727 31.3025 24.2231 31.0835 24.1318C30.7759 24.0034 30.5408 23.9238 30.3781 23.8929L29.9713 23.8414C29.9658 23.8409 29.9606 23.8389 29.9561 23.8357C29.9517 23.8324 29.9482 23.8281 29.9459 23.823C29.9437 23.818 29.9429 23.8125 29.9436 23.807C29.9442 23.8015 29.9463 23.7964 29.9496 23.792C30.2349 23.4099 30.5768 23.1102 31.0794 23.1287Z" fill="black"/>
<path d="M38.6294 26.6318L38.5944 26.6317C38.3168 26.6313 38.0914 26.8559 38.0909 27.1334L38.0871 29.3435C38.0866 29.6211 38.3112 29.8465 38.5888 29.847L38.6238 29.847C38.9013 29.8475 39.1267 29.6229 39.1272 29.3453L39.1311 27.1352C39.1316 26.8577 38.9069 26.6323 38.6294 26.6318Z" fill="black"/>
<path d="M29.8949 26.7277L29.8578 26.728C29.5825 26.7299 29.3609 26.9546 29.3629 27.2299L29.3782 29.4214C29.3801 29.6967 29.6048 29.9183 29.8801 29.9163L29.9171 29.9161C30.1924 29.9142 30.414 29.6894 30.4121 29.4142L30.3968 27.2227C30.3949 26.9474 30.1702 26.7258 29.8949 26.7277Z" fill="black"/>
<path d="M47.1731 30.9997C47.2424 31.1136 47.2458 31.2602 47.1834 31.4394C47.1775 31.4565 47.167 31.4718 47.1531 31.4835C47.1391 31.4953 47.1222 31.5032 47.1041 31.5064C46.5747 31.5908 46.1133 31.5064 45.5325 31.4137C45.496 31.4078 45.4586 31.4146 45.4264 31.433C45.3942 31.4513 45.3692 31.4801 45.3554 31.5146C45.1995 31.9066 44.9987 32.2606 44.7529 32.5764C44.7358 32.5982 44.7153 32.6173 44.6921 32.633C44.5953 32.6982 44.4759 32.7192 44.3337 32.6958C44.2726 32.6861 44.2169 32.6551 44.1766 32.6083C44.1362 32.5616 44.1138 32.5021 44.1134 32.4404C44.1106 32.1754 44.1885 31.9114 44.3471 31.6485C44.63 31.1782 44.8274 30.8222 44.9393 30.5805C45.2493 29.9121 45.5562 29.4971 46.0031 28.7535C46.0308 28.7075 46.0682 28.668 46.1127 28.6379C46.1572 28.6077 46.2077 28.5876 46.2607 28.579C46.3137 28.5704 46.368 28.5734 46.4198 28.5879C46.4715 28.6024 46.5195 28.628 46.5603 28.6629L46.5665 28.6681C46.6564 28.7448 46.7137 28.8528 46.7269 28.9702C46.7401 29.0876 46.7082 29.2057 46.6375 29.3004C46.3457 29.6924 46.1284 30.0855 45.9856 30.4796C45.9813 30.4919 45.9794 30.505 45.9802 30.518C45.9809 30.531 45.9843 30.5437 45.9901 30.5554C45.9958 30.567 46.0039 30.5773 46.0138 30.5857C46.0236 30.5941 46.0351 30.6004 46.0474 30.6042L47.0907 30.9338C47.1252 30.945 47.1545 30.9685 47.1731 30.9997Z" fill="#E1C7B5"/>
<path d="M20.3893 31.508C20.374 31.4073 20.3979 31.3046 20.4561 31.2209C20.5144 31.1372 20.6024 31.0789 20.7023 31.0579C21.0861 30.9783 21.3529 30.9378 21.5025 30.9364C21.6454 30.935 21.77 30.8983 21.8764 30.8262C21.8951 30.8139 21.9105 30.7972 21.9215 30.7776C21.9324 30.7581 21.9385 30.7362 21.9392 30.7138C21.9399 30.6914 21.9352 30.6691 21.9255 30.6489C21.9159 30.6287 21.9015 30.6111 21.8836 30.5976C21.4892 30.2979 21.1524 29.9004 21.036 29.4668C20.9866 29.2814 21.0422 29.1136 21.2029 28.9632C21.2332 28.9348 21.2731 28.9193 21.3141 28.9199C21.8115 28.9251 22.2162 29.6831 22.4892 30.1568C22.6052 30.358 22.7418 30.5615 22.899 30.7675C23.2101 31.176 23.5468 31.6666 23.9093 32.2392C23.9661 32.3289 23.9894 32.4358 23.9751 32.541C23.9608 32.6463 23.9098 32.7433 23.8311 32.8149L23.829 32.8169C23.7948 32.8481 23.7545 32.8719 23.7106 32.8867C23.6667 32.9016 23.6203 32.9072 23.5741 32.9033C23.528 32.8993 23.4832 32.8858 23.4425 32.8637C23.4018 32.8416 23.3662 32.8113 23.3378 32.7747L22.5334 31.7428C22.5066 31.7082 22.471 31.6813 22.4303 31.665C22.3896 31.6487 22.3452 31.6436 22.3017 31.6501L20.8465 31.8726C20.795 31.8805 20.7424 31.8782 20.6917 31.8658C20.6411 31.8534 20.5934 31.8312 20.5514 31.8004C20.5094 31.7696 20.4739 31.7308 20.447 31.6863C20.4201 31.6418 20.4022 31.5924 20.3944 31.5409L20.3893 31.508Z" fill="#E1C7B5"/>
<path d="M35.8271 31.4809C35.8525 32.1462 35.766 32.8018 35.5676 33.4479C35.3935 34.0164 34.6469 34.071 34.582 33.4417C34.5787 33.409 34.5815 33.3758 34.5902 33.3439C34.7777 32.6601 34.8879 32.1935 34.8611 31.519C34.8353 30.8444 34.6901 30.3872 34.4491 29.7198C34.4381 29.6887 34.4328 29.6559 34.4337 29.623C34.4502 28.9907 35.1989 28.9876 35.4162 29.5406C35.664 30.1695 35.801 30.8163 35.8271 31.4809Z" fill="black"/>
<path d="M34.5661 37.097C33.9448 37.11 33.2946 36.926 32.6156 36.545C32.5123 36.4872 32.434 36.3934 32.3954 36.2815C32.3569 36.1697 32.3608 36.0476 32.4065 35.9384L32.4178 35.9116C32.4397 35.8596 32.4716 35.8123 32.5118 35.7727C32.552 35.7331 32.5997 35.7019 32.652 35.6809C32.7043 35.6599 32.7603 35.6495 32.8167 35.6504C32.873 35.6513 32.9286 35.6634 32.9801 35.6861C33.4539 35.8941 33.9534 36.1712 34.563 36.1691C35.1717 36.167 35.6701 35.8869 36.1418 35.6758C36.1932 35.6527 36.2488 35.6401 36.3051 35.6388C36.3615 35.6375 36.4176 35.6474 36.4702 35.668C36.5227 35.6886 36.5706 35.7195 36.6112 35.7588C36.6517 35.7982 36.684 35.8452 36.7062 35.8972L36.7175 35.924C36.764 36.033 36.7687 36.1554 36.7307 36.2676C36.6927 36.3799 36.6147 36.4743 36.5115 36.5326C35.8353 36.9178 35.1868 37.1059 34.5661 37.097Z" fill="black"/>
<path d="M39.7735 41.0703L39.7838 42.059C39.6815 42.1153 39.5974 42.1966 39.5315 42.3031C39.4402 42.4493 39.3722 42.5437 39.3276 42.5863C38.9651 42.9364 38.5967 43.2996 38.2226 43.6759C37.4769 44.4256 36.3389 44.8777 35.2967 45.0899C33.3966 45.475 31.2937 44.6841 29.8858 43.3999C29.3668 42.9261 29.0599 42.6408 28.7242 42.1856C28.6988 42.1509 28.6858 42.1089 28.6871 42.0662C28.6939 41.8815 28.6593 41.8077 28.5831 41.8448L28.582 41.1846C28.6589 41.243 28.7358 41.2962 28.8127 41.3443C28.913 41.4054 28.9916 41.4579 29.0486 41.5018C30.6627 42.7411 32.5134 43.3243 34.6005 43.2516C35.6132 43.2159 36.5593 42.9793 37.4388 42.542C37.6716 42.426 38.0622 42.1839 38.6108 41.8159C38.9974 41.5564 39.3849 41.3079 39.7735 41.0703Z" fill="#E1C7B5"/>
<path d="M39.7849 42.0585L39.8848 44.0801L39.9435 45.0018L39.9867 45.4673C40.0018 46.1099 40.0643 46.6242 40.1742 47.01C40.2023 47.1069 40.2984 47.2521 40.4625 47.4457C40.4893 47.4772 40.5055 47.5161 40.5089 47.5569C40.5178 47.6475 40.515 47.7464 40.5006 47.8535C40.2699 49.5665 39.9641 51.2658 39.583 52.9513C39.5803 52.908 39.5662 52.8792 39.5408 52.8648C39.514 52.849 39.4811 52.8507 39.4419 52.8699C39.342 52.9183 39.2998 52.9935 39.1731 53.0481C36.408 54.2314 33.3173 54.4086 30.4585 53.4611C30.3829 53.4364 30.1588 53.3447 29.786 53.1861C29.558 53.0886 29.3266 53.0134 29.0918 52.9606C28.6936 51.4632 28.3644 49.8229 28.1042 48.0399C28.0705 47.8085 28.0548 47.6585 28.0568 47.5898C28.0582 47.5473 28.075 47.5067 28.1042 47.4755C28.3287 47.2332 28.4461 47.0423 28.4564 46.9029C28.4894 46.4443 28.5223 45.9791 28.5553 45.5075L28.5491 43.9699L28.5841 41.8443C28.6603 41.8072 28.695 41.881 28.6881 42.0657C28.6868 42.1084 28.6998 42.1504 28.7252 42.1851C29.0609 42.6403 29.3678 42.9256 29.8869 43.3993C31.2947 44.6836 33.3977 45.4745 35.2978 45.0894C36.34 44.8772 37.478 44.4251 38.2236 43.6754C38.5978 43.2991 38.9661 42.9359 39.3286 42.5858C39.3733 42.5432 39.4412 42.4488 39.5326 42.3025C39.5985 42.1961 39.6826 42.1148 39.7849 42.0585Z" fill="#FFE1CC"/>
<path d="M39.9861 45.4668L40.7533 45.7552C41.8752 46.312 42.9655 46.9553 44.0242 47.6851L44.3259 47.7346L44.3784 47.7603C44.41 47.8022 44.456 47.8163 44.5164 47.8025L46.95 48.4874L47.8594 48.7562C48.835 49.0542 49.802 49.3765 50.7605 49.7232C51.2617 49.9045 51.6894 50.0809 52.0437 50.2526C52.7038 50.5718 53.1724 50.7387 53.6946 51.0661C54.4278 51.5255 54.951 51.8739 55.2641 52.1115C55.5195 52.3044 55.8518 52.5989 56.261 52.9951C56.2884 53.0438 56.3324 53.0905 56.3928 53.1351C56.9826 53.7709 57.3602 54.2203 57.5256 54.4832C58.1981 55.5543 58.7491 56.4245 59.1683 57.5275C59.1964 57.6016 59.4038 58.166 59.7903 59.2206C59.8851 59.4781 59.9795 59.81 60.0735 60.2165C60.2743 61.1979 60.5081 62.1979 60.6492 63.1577C60.7289 63.7056 60.803 64.2542 60.8717 64.8035L61.1961 67.5779L61.434 70.4018L61.5472 71.9177C61.548 71.9266 61.5468 71.9355 61.544 71.9439C61.5411 71.9523 61.5365 71.96 61.5305 71.9666C61.5245 71.9732 61.5173 71.9785 61.5092 71.9821C61.5011 71.9857 61.4923 71.9877 61.4834 71.9878L60.6482 71.994L57.4814 71.9981L54.9633 71.9847L51.9737 71.9898L49.3939 71.9878L46.4639 71.997L43.5834 71.9909H40.7801L37.9027 71.995L36.5052 71.9847C36.7098 71.5707 36.8831 71.2957 37.0252 71.1598C37.4894 70.7156 37.9078 70.2353 38.2806 69.719C38.7503 69.0702 39.0307 68.6905 39.122 68.58C40.2542 67.2075 41.4993 65.6438 42.8573 63.8889C43.9263 62.5079 44.9583 61.2206 46.0942 59.6562C46.362 59.2886 46.5164 58.9652 46.2559 58.5924C46.0842 58.3473 45.7252 58.0242 45.1786 57.6233C45.1773 57.6226 45.1759 57.6215 45.1745 57.6202L44.2384 56.6686C44.2266 56.6567 44.2176 56.6424 44.212 56.6266C44.2063 56.6109 44.2042 56.5941 44.2056 56.5775C44.2071 56.5608 44.2122 56.5447 44.2205 56.5302C44.2288 56.5157 44.2402 56.5032 44.2538 56.4935L44.8419 56.0795C44.8555 56.07 44.8701 56.0627 44.8851 56.0579C45.4715 55.854 45.9974 55.5711 46.4629 55.2093C46.765 54.9745 46.88 54.6724 46.8079 54.303C46.753 54.0243 46.6259 53.6147 46.4268 53.0744C46.0602 52.0795 45.6503 51.1866 45.4083 50.2577C45.2971 49.8313 45.1804 49.4908 45.0581 49.2361C44.8275 48.7548 44.6768 48.4287 44.606 48.2577C44.5309 48.0765 44.4052 47.9632 44.2353 47.8581C44.2223 47.8501 44.2075 47.8456 44.1923 47.845C44.1771 47.8444 44.162 47.8477 44.1484 47.8546C44.1348 47.8616 44.1233 47.8719 44.1149 47.8846C44.1065 47.8973 44.1015 47.9119 44.1004 47.9271C44.0736 48.2752 44.328 48.6141 44.3887 48.9488C44.5751 49.9848 45.0839 50.855 45.3815 51.8355C45.606 52.5749 45.8851 53.3998 46.2188 54.3102C46.3022 54.5368 46.329 54.7119 46.0674 54.8107C45.6102 54.9817 45.1814 55.2477 44.7811 55.6089C44.7373 55.6486 44.6893 55.6838 44.638 55.7139C44.362 55.8773 44.0214 56.0538 43.6163 56.2433C43.4104 56.3394 43.3438 56.4994 43.4166 56.7232C43.4254 56.751 43.4405 56.7763 43.4608 56.7973C43.8144 57.1694 44.2003 57.5203 44.6184 57.8498C45.019 58.165 45.3723 58.5605 45.673 58.8251C45.8151 58.9494 45.8178 59.0973 45.6812 59.269C44.7791 60.3946 43.7029 61.8694 42.9068 62.8498C42.4948 63.3579 41.962 64.0331 41.3084 64.8756C40.4485 65.9858 38.8203 67.9404 37.9233 69.1732C37.7839 69.3647 37.5862 69.5999 37.3301 69.8786C37.188 70.0324 36.9909 70.2696 36.7389 70.5903C36.3606 71.0709 36.1063 71.5312 35.9758 71.9713L35.2137 71.9785L34.7122 71.9672C34.6955 71.9668 34.6794 71.9611 34.6664 71.9509C34.6534 71.9407 34.6441 71.9265 34.6401 71.9105C34.6305 71.8741 34.6339 71.8271 34.6504 71.7694C34.8769 70.8721 35.1118 69.9792 35.3548 69.0908C36.0867 66.4104 36.8179 63.7297 37.5484 61.0486C38.281 58.3627 38.959 55.6635 39.5824 52.9508C39.9634 51.2653 40.2693 49.566 40.5 47.853C40.5144 47.7459 40.5172 47.647 40.5082 47.5564C40.5049 47.5156 40.4887 47.4766 40.4619 47.4452C40.2978 47.2516 40.2017 47.1063 40.1735 47.0095C40.0637 46.6237 40.0012 46.1094 39.9861 45.4668Z" fill="#30333A"/>
<path d="M28.5548 45.5078C28.5218 45.9795 28.4889 46.4446 28.4559 46.9033C28.4456 47.0427 28.3282 47.2335 28.1037 47.4759C28.0745 47.5071 28.0577 47.5477 28.0563 47.5902C28.0543 47.6588 28.0701 47.8089 28.1037 48.0402C28.3639 49.8233 28.6931 51.4635 29.0913 52.9609C29.1154 53.171 29.1445 53.3505 29.1789 53.4995C30.3467 58.4882 31.803 63.6684 33.0336 67.9073C33.2108 68.5201 33.3251 69.0896 33.5156 69.6766C33.7298 70.3388 33.9018 71.1956 34.1284 71.9536L32.838 71.9897C32.6959 71.6168 32.4607 71.3051 32.1325 71.0545C32.1004 71.0299 32.0713 71.0012 32.046 70.9691C31.7165 70.5468 31.4425 69.9783 31.1397 69.6395C30.6784 69.1225 30.2262 68.656 29.8287 68.104C29.5774 67.7532 29.3255 67.4205 29.0728 67.106C27.9839 65.7487 26.504 63.8816 24.6331 61.5046C24.0316 60.7415 23.5167 60.0175 22.8339 59.1823C22.5806 58.8723 23.2623 58.4696 23.561 58.2369C23.7924 58.057 24.0261 57.8383 24.2623 57.5809C24.5363 57.2812 24.7762 57.0958 25.0872 56.8291C25.1566 56.7693 25.1919 56.6694 25.1933 56.5294C25.194 56.4932 25.1835 56.4576 25.1634 56.4274C25.0646 56.2805 24.941 56.1693 24.7927 56.0938C24.2132 55.7978 23.8057 55.5685 23.5703 55.4058C23.2026 55.1535 22.7814 54.9887 22.4127 54.724C22.3646 54.6897 22.3296 54.6402 22.3131 54.5835C22.2967 54.5269 22.2998 54.4665 22.3221 54.412C22.4786 54.0303 22.608 53.6736 22.7103 53.342C23.0399 52.2781 23.2325 51.7261 23.7556 50.1926C23.7563 50.1899 23.8212 49.9712 23.9503 49.5366C24.0471 49.2084 24.1919 48.858 24.3849 48.4851C24.5311 48.2036 24.4861 47.9682 24.25 47.7787L24.5373 47.6705C24.5469 47.6664 24.5562 47.6616 24.5651 47.6561C25.3368 47.1583 26.1219 46.6822 26.9204 46.2277C27.3777 45.9675 27.8558 45.7413 28.355 45.549C28.3577 45.5442 28.3605 45.5394 28.3632 45.5346L28.5548 45.5078Z" fill="#30333A"/>
<path d="M24.251 47.7783C24.4872 47.9678 24.5322 48.2033 24.3859 48.4848C24.193 48.8576 24.0481 49.2081 23.9513 49.5363C23.8222 49.9709 23.7574 50.1896 23.7567 50.1923C23.2335 51.7258 23.0409 52.2778 22.7114 53.3416C22.6091 53.6732 22.4796 54.0299 22.3231 54.4117C22.3009 54.4661 22.2977 54.5266 22.3142 54.5832C22.3306 54.6398 22.3657 54.6893 22.4137 54.7237C22.7824 54.9884 23.2036 55.1531 23.5713 55.4055C23.8068 55.5682 24.2143 55.7975 24.7937 56.0934C24.942 56.1689 25.0656 56.2802 25.1645 56.4271C25.1846 56.4572 25.195 56.4928 25.1944 56.529C25.193 56.6691 25.1576 56.769 25.0883 56.8287C24.7773 57.0955 24.5373 57.2808 24.2634 57.5805C24.0272 57.838 23.7934 58.0567 23.562 58.2365C23.2634 58.4693 22.5816 58.872 22.8349 59.182C23.5177 60.0172 24.0327 60.7412 24.6341 61.5043C26.505 63.8812 27.9849 65.7484 29.0738 67.1057C29.3265 67.4202 29.5785 67.7528 29.8298 68.1036C30.2273 68.6557 30.6794 69.1222 31.1408 69.6392C31.4435 69.978 31.7175 70.5465 32.047 70.9687C32.0723 71.0009 32.1014 71.0296 32.1336 71.0542C32.4617 71.3048 32.6969 71.6165 32.839 71.9893L32.1377 71.9842L31.6361 71.2004C31.617 71.1703 31.5949 71.1424 31.5702 71.117C31.0069 70.5424 30.5331 69.9986 30.0666 69.3117C29.6639 68.7174 29.1676 68.2046 28.6619 67.5722C26.2623 64.5692 24.2235 61.9822 22.5455 59.8112C22.1532 59.3035 22.0327 58.8658 22.4982 58.3828C22.9211 57.9441 23.3083 57.5984 23.6599 57.3457C23.9359 57.147 24.1861 56.8833 24.3705 56.6557C24.3779 56.6464 24.3833 56.6356 24.3861 56.624C24.3889 56.6124 24.3892 56.6003 24.3868 56.5886C24.3845 56.577 24.3796 56.5659 24.3725 56.5563C24.3654 56.5467 24.3562 56.5388 24.3457 56.5332C23.5143 56.0876 22.7615 55.6434 22.0873 55.2005C21.7769 54.9966 21.6636 54.7385 21.7474 54.4261C21.9506 53.6626 22.2812 52.6781 22.7392 51.4724C22.7591 51.4203 22.7955 51.3224 22.8483 51.1789C23.2088 50.1937 23.5562 49.2644 23.8905 48.3911C23.9606 48.2078 24.0207 48.0183 24.0708 47.8226L24.251 47.7783Z" fill="#33312D"/>
<path d="M24.07 47.8223C24.0199 48.0179 23.9598 48.2074 23.8898 48.3908C23.5554 49.2641 23.208 50.1934 22.8476 51.1786C22.7947 51.3221 22.7583 51.4199 22.7384 51.4721C22.2805 52.6777 21.9499 53.6623 21.7467 54.4257C21.6629 54.7381 21.7762 54.9963 22.0865 55.2002C22.7607 55.643 23.5136 56.0872 24.345 56.5328C24.3555 56.5385 24.3646 56.5464 24.3717 56.556C24.3788 56.5656 24.3837 56.5766 24.3861 56.5883C24.3884 56.6 24.3882 56.6121 24.3854 56.6237C24.3825 56.6353 24.3772 56.6461 24.3697 56.6554C24.1854 56.883 23.9351 57.1466 23.6591 57.3454C23.3076 57.5981 22.9204 57.9437 22.4974 58.3825C22.0319 58.8655 22.1524 59.3032 22.5448 59.8109C24.2228 61.9818 26.2616 64.5688 28.6611 67.5719C29.1668 68.2042 29.6632 68.7171 30.0659 69.3113C30.5324 69.9983 31.0061 70.542 31.5695 71.1167C31.5941 71.142 31.6162 71.17 31.6354 71.2001L32.1369 71.9838L31.8743 71.989L29.5983 71.9993L26.6632 71.9879L23.5788 71.9952L20.9732 71.99L17.8867 71.9952L15.2668 71.9921L12.1731 71.9931L9.74363 71.9869L7.0557 71.9838C7.04813 71.9839 7.04064 71.9823 7.03368 71.9793C7.02672 71.9763 7.02045 71.972 7.01524 71.9665C7.01003 71.961 7.006 71.9545 7.0034 71.9474C7.00079 71.9403 6.99967 71.9327 7.00009 71.9251L7.06806 70.5348L7.32964 67.5709L7.8971 63.1703L8.12366 61.8819L8.74261 59.2548C9.19472 57.8016 9.79616 56.3866 10.6067 55.0982C11.0948 54.3217 11.4645 53.8995 11.9733 53.3609L12.2905 53.0601C12.5857 52.7409 12.7985 52.527 12.929 52.4185C13.5428 51.9077 14.1968 51.4553 14.8909 51.0612C15.9791 50.4426 17.1047 49.9256 18.2678 49.5102L20.3677 48.8274L24.07 47.8223Z" fill="#30333A"/>
<path d="M36.5059 71.9855L35.9766 71.9721C36.107 71.532 36.3614 71.0717 36.7397 70.5911C36.9917 70.2704 37.1887 70.0332 37.3308 69.8794C37.5869 69.6007 37.7847 69.3655 37.924 69.174C38.821 67.9412 40.4492 65.9865 41.3092 64.8764C41.9628 64.0339 42.4956 63.3587 42.9075 62.8506C43.7036 61.8702 44.7798 60.3954 45.682 59.2698C45.8186 59.0981 45.8159 58.9502 45.6737 58.8259C45.373 58.5612 45.0198 58.1658 44.6192 57.8506C44.201 57.5211 43.8152 57.1702 43.4616 56.7981C43.4413 56.7771 43.4261 56.7517 43.4173 56.724C43.3445 56.5002 43.4111 56.3402 43.6171 56.2441C44.0222 56.0546 44.3627 55.8781 44.6387 55.7147C44.6901 55.6846 44.738 55.6494 44.7819 55.6097C45.1821 55.2485 45.6109 54.9825 46.0682 54.8115C46.3298 54.7127 46.303 54.5376 46.2196 54.311C45.8859 53.4006 45.6068 52.5757 45.3823 51.8363C45.0847 50.8558 44.5759 49.9856 44.3895 48.9496C44.3287 48.6149 44.0744 48.276 44.1011 47.9279C44.1022 47.9127 44.1072 47.8981 44.1156 47.8854C44.124 47.8727 44.1356 47.8624 44.1491 47.8554C44.1627 47.8485 44.1778 47.8452 44.1931 47.8458C44.2083 47.8464 44.2231 47.8509 44.236 47.8589C44.406 47.964 44.5316 48.0773 44.6068 48.2585C44.6775 48.4295 44.8282 48.7556 45.0589 49.2369C45.1811 49.4916 45.2978 49.8321 45.4091 50.2585C45.6511 51.1874 46.061 52.0803 46.4276 53.0752C46.6267 53.6155 46.7537 54.0251 46.8086 54.3038C46.8807 54.6732 46.7657 54.9753 46.4636 55.2101C45.9981 55.5719 45.4722 55.8548 44.8859 56.0587C44.8709 56.0635 44.8563 56.0707 44.8426 56.0803L44.2546 56.4943C44.2409 56.504 44.2296 56.5165 44.2212 56.531C44.2129 56.5455 44.2079 56.5616 44.2064 56.5783C44.2049 56.5949 44.2071 56.6117 44.2127 56.6274C44.2184 56.6432 44.2274 56.6575 44.2391 56.6694L45.1753 57.621C45.1766 57.6223 45.178 57.6234 45.1794 57.6241C45.7259 58.025 46.085 58.3481 46.2566 58.5932C46.5172 58.966 46.3627 59.2894 46.0949 59.657C44.959 61.2214 43.9271 62.5087 42.8581 63.8897C41.5 65.6446 40.2549 67.2083 39.1228 68.5808C39.0315 68.6913 38.751 69.071 38.2814 69.7198C37.9086 70.2361 37.4901 70.7164 37.026 71.1606C36.8839 71.2965 36.7105 71.5715 36.5059 71.9855Z" fill="#33312D"/>
<path d="M39.583 52.9517C38.9596 55.6643 38.2816 58.3636 37.549 61.0495C36.8185 63.7305 36.0873 66.4113 35.3554 69.0917C35.1124 69.9801 34.8776 70.873 34.651 71.7703C34.4869 71.8637 34.3128 71.9248 34.1288 71.9536C33.9023 71.1957 33.7303 70.3388 33.5161 69.6766C33.3256 69.0896 33.2112 68.5201 33.0341 67.9073C31.8034 63.6684 30.3472 58.4882 29.1793 53.4996C29.145 53.3506 29.1158 53.171 29.0918 52.9609C29.3266 53.0138 29.558 53.089 29.7859 53.1865C30.1587 53.3451 30.3829 53.4367 30.4584 53.4615C33.3173 54.4089 36.4079 54.2318 39.1731 53.0485C39.2998 52.9939 39.342 52.9187 39.4419 52.8703C39.481 52.8511 39.514 52.8494 39.5408 52.8652C39.5662 52.8796 39.5802 52.9084 39.583 52.9517Z" fill="white"/>
</g>
<defs>
<clipPath id="clip0_20004901_60528">
<path d="M0 11.5966C0 5.192 5.19199 0 11.5966 0H55.6639C62.0685 0 67.2605 5.19199 67.2605 11.5966V57.4034C67.2605 63.808 62.0685 69 55.6639 69H11.5966C5.19199 69 0 63.808 0 57.4034V11.5966Z" fill="white"/>
</clipPath>
</defs>
</svg>
