<svg width="140" height="22" viewBox="0 0 140 22" fill="none" xmlns="http://www.w3.org/2000/svg">
<path d="M0.000679615 -3.8147e-06L0 21.6328L20.0814 21.6334L20.082 0.00062706L0.000679615 -3.8147e-06Z" fill="#0152A0"/>
<path d="M8.26542 8.68111C8.10087 8.80536 7.93295 8.59716 7.82549 8.47291L4.36332 4.46336V7.761C4.36332 8.15054 4.60175 8.3856 4.99129 8.3856L5.14574 8.42926C5.1894 8.43933 5.19948 8.5938 5.15583 8.60724L3.21484 8.58709C3.44319 8.27814 3.97378 8.46955 3.97714 7.72406L3.99054 4.28874C3.99054 3.67421 3.39283 3.74809 3.26522 3.63727C3.23164 3.61041 3.24841 3.46937 3.28871 3.46937L4.68905 3.44922L7.896 7.15654C7.96652 6.18605 7.91614 5.24244 7.89264 4.26859C7.88256 3.92607 7.70462 3.74473 7.34195 3.70108L7.1606 3.68093C7.11023 3.67421 7.09678 3.48951 7.15051 3.46937H8.97397C9.11165 3.84547 8.28891 3.50966 8.28555 4.28202L8.26542 8.68448V8.68111Z" fill="#FBFDFE"/>
<path d="M15.3966 15.7196L14.453 15.7095V17.5296C14.453 18.0131 15.588 18.0165 16.1656 17.815C16.6827 17.6337 16.666 16.727 16.9783 17.0494L16.7063 18.2247L12.8848 18.181C13.0762 17.9057 13.5295 17.9762 13.5261 17.6975L13.5094 13.6275C13.5094 13.3924 13.0291 13.4596 12.8948 13.2044L16.4678 13.1641L16.5283 14.2655C16.5283 14.3125 16.3536 14.3159 16.3368 14.2756C16.2361 14.0472 16.1958 13.4932 15.7122 13.4965L14.4496 13.5032V15.3535C14.8761 15.3871 15.2556 15.4106 15.672 15.3166C15.8063 15.1151 15.7727 14.8633 16.0212 14.6618L16.0548 16.277C16.0548 16.3576 15.9607 16.4013 15.9171 16.3912C15.7458 16.3475 15.86 15.7229 15.4 15.7196H15.3966Z" fill="#FCFEFE"/>
<path d="M4.9589 17.1294C5.42903 17.9387 6.40288 18.2678 7.18868 17.8648C7.64538 17.6298 7.76966 17.1563 8.10211 16.7332C8.22636 17.2167 8.04162 17.6432 7.89387 18.0831C7.2021 18.2913 6.49693 18.3887 5.78166 18.2947C4.55931 18.1335 3.72314 17.2402 3.58545 16.0313C3.41755 14.5504 4.37462 13.3146 5.86561 13.093C6.60439 12.9822 7.34986 13.1366 8.06513 13.3952L8.13904 14.4429C8.14576 14.5235 8.1155 14.5873 8.06513 14.6176C7.80992 14.7653 7.91405 13.4926 6.58761 13.3717C5.84883 13.3045 5.13691 13.6202 4.82461 14.3355C4.44515 15.2086 4.45183 16.263 4.95554 17.126L4.9589 17.1294Z" fill="#FCFDFE"/>
<path d="M16.1559 8.58007H13.8926C14.0437 8.29463 14.3291 8.40209 14.4265 8.29463C14.5642 8.14016 14.5877 7.95546 14.5877 7.75062L14.581 4.14739C14.581 3.86531 14.403 3.67726 14.1041 3.69741C14.0034 3.70412 13.9026 3.63696 13.9396 3.46906L16.0988 3.45898C16.1526 3.45898 16.166 3.61009 16.129 3.6336C15.9813 3.72763 15.4776 3.6336 15.4776 4.19776V7.76406C15.4742 7.95547 15.5078 8.10994 15.6119 8.24426C15.716 8.37858 15.9578 8.25433 16.1559 8.57671V8.58007Z" fill="#FCFEFE"/>
<path d="M10.8974 10.6234C11.3205 10.5664 11.7 10.6503 12.1198 10.6705L14.7491 10.8081C14.7626 10.8484 14.8163 10.8719 14.87 10.9055L12.0123 11.0701L10.8537 11.1171C10.7295 11.9734 10.6522 12.8431 10.6287 13.7297L10.5146 13.6927C10.4575 12.8666 10.4038 12.0473 10.3534 11.2279L10.2459 11.1036L9.29895 11.0835C9.01016 11.0768 8.74487 11.0331 8.45607 11.0029C7.69714 10.9257 6.98861 11.0197 6.21289 10.8451L9.24185 10.6302L10.3097 10.5999C10.4071 9.76712 10.481 8.92424 10.5314 8.07129L10.6455 8.09816C10.706 8.91082 10.7631 9.72347 10.8101 10.5328C10.8302 10.4085 10.8605 10.4387 10.9075 10.6234H10.8974Z" fill="#E48F2E"/>
<path d="M10.8466 11.116C10.8265 11.7439 10.7257 12.5633 10.719 13.1879L10.7056 14.7662C10.6183 14.9912 10.6451 15.2095 10.5679 15.4479L10.4403 13.5204C10.4168 13.1543 10.3362 12.8152 10.3631 12.4357C10.3967 11.9622 10.3698 11.5257 10.2422 11.1025C10.3899 11.1025 10.4571 11.1999 10.4571 11.3544L10.4739 12.5096L10.5713 13.6983L10.625 12.6003C10.6451 12.2006 10.7358 11.8447 10.6888 11.4249C10.6754 11.3074 10.7224 11.116 10.8466 11.1126V11.116Z" fill="#CC944D"/>
<path d="M10.8968 10.622C10.8565 10.6287 10.7423 10.6085 10.7155 10.5783L10.6853 9.43655L10.5745 8.09331L10.4603 9.26864L10.4502 10.3567C10.4502 10.4574 10.3998 10.5951 10.2957 10.5984C10.2353 10.4238 10.3427 10.2257 10.3495 10.0141L10.3965 8.55002L10.5644 6.34375C10.6148 6.59225 10.6752 6.83403 10.6819 7.10939L10.7121 8.51979C10.7256 9.18134 10.8431 9.96377 10.8901 10.622H10.8968Z" fill="#CE934B"/>
<path d="M46.6611 11.4411C46.0834 10.8868 45.2675 10.9258 44.5727 11.2303C43.9598 11.4996 43.5031 12.171 43.4953 12.9635L43.4523 16.8515H42.2812V10.0943L43.4757 10.1021V11.1561C43.9676 10.3207 44.7561 9.98112 45.654 9.93428C47.0788 9.86401 48.1991 10.8243 48.3045 12.292L48.3631 16.8554H47.1647L47.1529 12.8386C47.1529 12.3662 47.0319 11.8002 46.6533 11.4411H46.6611Z" fill="#094964"/>
<path d="M40.1346 10.0908V16.8558L38.9596 16.8636L38.9245 15.7471C38.4678 16.5903 37.6636 16.9963 36.7346 17.0197C35.2005 17.0627 34.1113 15.9657 34.1113 14.4277L34.1191 10.0947H35.2941L35.3293 14.3653C35.3371 15.3139 36.0046 15.9306 36.9259 15.9189C38.054 15.9072 38.9128 15.146 38.9206 13.9944L38.944 10.0986H40.1307L40.1346 10.0908Z" fill="#074762"/>
<path d="M135.101 15.5898L135.784 16.308C135.14 16.9873 134.125 17.2293 133.251 16.8233C132.661 16.5501 132.302 15.9372 132.294 15.2697L132.259 11.1397L131.287 11.1084V10.0896L132.263 10.0623V5.40135L133.481 5.38184L133.5 10.0662L135.265 10.0818L135.288 11.0967L133.485 11.1279V15.1057C133.485 15.5585 133.758 15.9567 134.199 15.945C134.511 15.9372 134.773 15.8396 135.097 15.5898H135.101Z" fill="#2A92AB"/>
<path d="M107.603 15.5546L108.255 16.2963C107.595 16.9951 106.525 17.2371 105.651 16.7882C105.12 16.5188 104.82 15.8982 104.816 15.297L104.792 11.1201H103.75L103.746 10.0662L104.796 10.0545L104.788 5.39355L105.952 5.37793L105.967 10.0662L107.728 10.0818C107.79 10.4292 107.786 10.7688 107.732 11.128H105.952L105.967 15.1096C105.967 15.4492 106.104 15.8201 106.447 15.906C106.849 16.0075 107.228 15.8591 107.611 15.5546H107.603Z" fill="#2D92AB"/>
<path d="M101.038 16.8627C99.5433 17.296 97.8647 16.8315 97.1191 15.4457L98.0053 14.8875C98.4932 15.8204 99.5238 16.121 100.492 15.9219C100.929 15.8321 101.241 15.5394 101.288 15.1256C101.335 14.7118 101.081 14.2902 100.625 14.1458L98.8719 13.5954C97.9701 13.3104 97.4626 12.5804 97.5446 11.6709C97.6266 10.7613 98.2785 10.129 99.2076 9.97671C100.308 9.79715 101.358 10.0899 102.038 11.0463L101.198 11.6475C100.683 10.9721 99.8165 10.7067 99.0553 11.0814C98.7547 11.2298 98.6689 11.546 98.6806 11.8426C98.6923 12.1393 98.8914 12.4204 99.2427 12.5336L101.054 13.1191C101.917 13.4002 102.451 14.1028 102.448 14.9499C102.444 15.797 101.948 16.5855 101.042 16.851L101.038 16.8627Z" fill="#2B90A9"/>
<path d="M77.0734 16.8389C76.6831 16.9092 76.3122 16.8897 75.8945 16.8585V10.0974L77.0773 10.0896C77.093 10.4175 77.0032 10.6908 77.1085 11.0811C77.6863 9.94517 79.0096 9.6641 80.1378 10.2418C80.0128 10.64 79.9075 10.9484 79.7123 11.2802C79.1228 11.085 78.4514 10.964 77.9361 11.3153C77.3857 11.6901 77.1085 12.4083 77.1046 13.072L77.0773 16.8389H77.0734Z" fill="#2890A9"/>
<path d="M111.308 16.8388C110.917 16.9091 110.547 16.8857 110.125 16.8584V10.0817L111.292 10.0895L111.339 11.163C111.823 9.96849 113.213 9.64058 114.349 10.2691L113.939 11.284C113.349 11.0849 112.686 10.9756 112.171 11.323C111.612 11.6978 111.347 12.4121 111.339 13.0836L111.308 16.8388Z" fill="#2890A9"/>
<path d="M73.6693 11.9399C73.0877 10.5619 71.7683 9.79682 70.2927 9.96467C69.4183 10.0623 68.6922 10.4526 68.2081 11.2451L68.2199 5.37793L67.0293 5.38574L67.0371 16.8702L68.1887 16.8624L68.1965 15.6757L69.0748 16.5266C70.5894 17.5103 72.6232 16.999 73.5015 15.3595C74.087 14.2665 74.087 13.0368 73.6732 11.9438L73.6693 11.9399ZM72.2093 15.137C71.3896 16.2144 69.7618 16.2144 68.8718 15.2541C67.9544 14.2665 67.9544 12.5645 68.9264 11.6276C69.7774 10.804 71.2296 10.7571 72.0454 11.612C72.9237 12.5293 73.0057 14.0908 72.2093 15.137Z" fill="#2991A9"/>
<path d="M95.2957 5.38574L94.148 5.39355L94.1363 11.2802C93.6132 10.4487 92.8013 9.98419 91.8215 9.95687C90.5606 9.91783 89.4129 10.4995 88.8196 11.6354C88.2145 12.787 88.2067 14.2157 88.8547 15.3556C89.4949 16.4837 90.6972 17.12 92.0088 17.0068C92.9652 16.9248 93.6522 16.4212 94.1324 15.6678L94.1558 16.8624L95.3074 16.8545L95.2957 5.38964V5.38574ZM91.8566 15.945C90.5333 15.9645 89.5613 14.8169 89.5691 13.4623C89.5769 12.1077 90.4708 11.0421 91.7707 10.9991C93.1058 10.9523 94.1324 11.9633 94.1636 13.4116C94.1949 14.852 93.2072 15.9255 91.8527 15.945H91.8566Z" fill="#2B92AB"/>
<path d="M32.0262 5.41306L30.8669 5.37793L30.8395 11.2841C30.2969 10.4214 29.4889 9.95296 28.4974 9.94125C27.3107 9.92954 26.2567 10.4643 25.6204 11.4598C24.9997 12.5762 24.8904 13.8956 25.4252 15.0667C26.1552 16.6672 27.9587 17.4284 29.6255 16.7765C30.1759 16.5618 30.4921 16.2065 30.8513 15.7225L30.902 16.8584L32.0302 16.8389V5.40917L32.0262 5.41306ZM29.5475 15.7342C28.6574 16.1011 27.5917 16.0036 26.9086 15.176C26.0459 14.1259 26.1123 12.4825 27.0726 11.573C27.7752 10.9054 28.798 10.8547 29.6372 11.2568C30.4258 11.6315 30.8864 12.5059 30.8942 13.4623C30.902 14.4616 30.4297 15.3712 29.5475 15.7342Z" fill="#084964"/>
<path d="M128.967 10.7526C128.284 10.1359 127.437 9.90163 126.535 9.94067C124.622 10.0187 123.256 11.5646 123.264 13.4617C123.272 14.9061 124.013 16.206 125.387 16.7447C126.878 17.3302 128.6 16.9867 129.685 15.8039L128.963 15.0817C128.241 15.7649 127.296 16.1045 126.277 15.9054C125.266 15.7063 124.567 14.9334 124.47 13.8872L130.005 13.9067C130.181 12.7396 129.833 11.5333 128.971 10.7526H128.967ZM124.509 12.9465C124.583 11.8066 125.473 10.979 126.629 10.9244C127.808 10.8658 128.799 11.6739 128.865 12.9425L124.509 12.9503V12.9465Z" fill="#2A91AA"/>
<path d="M118.699 9.9459C116.732 9.79756 115.178 11.1209 114.96 13.0454C114.71 15.2197 116.287 17.0427 118.5 17.0153C119.589 17.0036 120.643 16.6757 121.338 15.7896L120.608 15.0869C119.859 15.8247 118.832 16.1604 117.774 15.8677C116.814 15.6022 116.217 14.7903 116.162 13.8807L121.674 13.9003C121.943 11.886 120.721 10.0942 118.703 9.94199L118.699 9.9459ZM116.166 12.9517C116.271 11.8313 117.15 10.9921 118.289 10.9374C119.429 10.8671 120.409 11.601 120.554 12.9165L116.166 12.9517Z" fill="#2990A8"/>
<path d="M86.5443 12.2642C86.5287 10.8394 85.4357 9.96887 84.0616 9.94154C82.9413 9.91812 81.8717 10.2616 81.2041 11.2375L82.0044 11.8973C82.6446 10.9604 84.0811 10.5622 84.9984 11.3429C85.4005 11.6826 85.381 12.3032 85.4201 12.8302L82.9139 12.9122C82.2698 12.9317 81.5789 13.2479 81.1846 13.7905C80.6069 14.5829 80.7123 15.8087 81.4774 16.4645C82.5314 17.3623 84.6198 17.1866 85.3888 16.039L85.424 16.8665L86.595 16.8587L86.5404 12.2681L86.5443 12.2642ZM84.733 15.6837C84.0616 16.039 83.2067 16.1249 82.5157 15.7813C82.0512 15.551 81.9692 14.9967 82.0903 14.5478C82.2074 14.1145 82.6524 13.8139 83.1481 13.8022L85.4122 13.7398L85.4201 14.5322C85.424 15.0123 85.1624 15.4534 84.7291 15.6837H84.733Z" fill="#298FA8"/>
<path d="M53.8664 10.6095L55.0062 11.8079L53.6673 13.2132C52.6914 14.4038 52.871 16.1175 54.0733 17.07C55.1272 17.9053 56.6028 17.7609 57.5514 16.8123L59.2612 15.1025L52.0122 7.47489V5.00391L62.4309 15.9535L63.5044 17.1012L62.263 18.2762L60.4518 16.3712L58.6717 18.1161C56.9659 19.7908 54.2841 19.6971 52.629 18.0654C50.9738 16.4337 50.8059 13.6582 52.504 11.9601L53.8625 10.6017L53.8664 10.6095Z" fill="#074965"/>
<path d="M56.8388 7.65719C57.7834 6.7984 57.8927 5.30722 56.909 4.45624C56.1985 3.84337 55.1055 3.76139 54.4614 4.40549L53.5012 5.36577L52.3262 4.17518C53.6846 2.15311 56.3664 1.65735 58.123 3.23831C59.6532 4.61629 59.7118 6.97796 58.3768 8.52379L57.4009 9.51922L56.2181 8.22322L56.8388 7.6611V7.65719Z" fill="#2791AA"/>
<path d="M61.0113 13.276C61.8154 12.5655 62.1043 11.7028 61.9247 10.6528C61.7881 9.84861 61.2064 9.09131 60.3164 8.68924V6.91309C61.9208 7.30345 63.166 8.56041 63.5369 10.0282C63.9741 11.7497 63.4549 13.4282 62.1902 14.5368L61.0074 13.2799L61.0113 13.276Z" fill="#2491AB"/>
</svg>
