<svg width="246" height="43" viewBox="0 0 246 43" fill="none" xmlns="http://www.w3.org/2000/svg">
<g clip-path="url(#clip0_20004809_8738)">
<path d="M7.34385 33.6711L4.56637 36.884V41.4739H0V21.043H4.56637V30.67L12.7341 21.043H18.3243L10.2979 30.2934L18.748 41.4739H13.0636L7.34385 33.6829V33.6711Z" fill="#2757D7"/>
<path d="M38.2383 31.2469C38.2383 25.1976 42.5693 20.7725 48.4538 20.7725C53.7027 20.7725 57.2099 24.0796 57.9867 28.2929H53.6792C53.232 26.3863 51.2901 24.8681 48.5479 24.8681C45.0761 24.8681 42.5104 27.5396 42.5104 31.2586C42.5104 34.9776 45.0878 37.6492 48.5479 37.6492C51.2901 37.6492 53.538 35.7662 53.8675 33.9537H58.175C57.5865 37.967 53.7498 41.733 48.4538 41.733C42.5693 41.733 38.2383 37.3079 38.2383 31.2586V31.2469Z" fill="#2757D7"/>
<path d="M26.9979 20.6543C21.2193 20.6543 16.5117 25.3619 16.5117 31.1405C16.5117 36.919 21.2193 41.6266 26.9979 41.6266C27.5157 41.6266 28.0453 41.5913 28.5632 41.509L28.8809 41.4619V37.0132L28.4219 37.1191C27.9512 37.225 27.4687 37.2839 26.9979 37.2839C23.6084 37.2839 20.8545 34.5299 20.8545 31.1405C20.8545 27.751 23.6084 24.9971 26.9979 24.9971C30.3874 24.9971 33.1413 27.751 33.1413 31.1405C33.1413 32.6116 32.6117 34.0474 31.6466 35.1537L31.5525 35.2596V40.591L32.1056 40.285C35.4245 38.4255 37.4841 34.9183 37.4841 31.1405C37.4841 25.3619 32.7765 20.6543 26.9979 20.6543Z" fill="#2757D7"/>
<path d="M19.7364 34.2239C19.7364 28.6219 23.832 24.0673 28.8573 24.0673C32.847 24.0673 36.2483 26.9389 37.484 30.9169C37.3663 25.2324 32.7176 20.6543 27.0096 20.6543C21.3017 20.6543 16.5234 25.3619 16.5234 31.1405C16.5234 34.8242 18.43 38.0724 21.3134 39.9437C20.3131 38.3196 19.7364 36.3541 19.7364 34.2357V34.2239Z" fill="#187EFF"/>
<path d="M87.7858 27.9745H84.9141V22.6432C84.9141 22.4431 84.7494 22.2783 84.5493 22.2783H82.5133C82.3132 22.2783 82.1484 22.4431 82.1484 22.6432V35.9304C82.1484 36.201 82.3132 36.4717 83.5254 36.4717C84.514 36.4717 84.9024 36.3187 84.9024 35.9304V30.2812H87.774C88.0094 30.2812 88.2095 30.0812 88.2095 29.8458V28.4217C88.2095 28.1864 88.0094 27.9863 87.774 27.9863L87.7858 27.9745Z" fill="black"/>
<path d="M80.4413 25.033C80.4413 24.1856 80.3353 23.962 79.9587 23.962H76.0397V22.3732C76.0397 22.2319 75.922 22.1143 75.7807 22.1143H73.5093C73.3681 22.1143 73.2504 22.2319 73.2504 22.3732V23.962H69.6138C69.296 23.962 69.0371 24.2209 69.0371 24.5387V25.5861C69.0371 25.9039 69.296 26.1628 69.6138 26.1628H79.947C80.3236 26.1628 80.4295 25.9274 80.4295 25.0447L80.4413 25.033Z" fill="black"/>
<path d="M84.8541 39.7558H75.6979C75.3683 39.7558 75.1094 39.4851 75.1094 39.1674V36.4958C75.1094 36.284 74.9329 36.1074 74.721 36.1074H72.7438C72.532 36.1074 72.3555 36.284 72.3555 36.4958V39.5675C72.3555 39.9794 72.5438 40.9209 72.9792 41.3446C73.4029 41.7918 74.415 42.0272 74.98 42.0272H84.8659C85.219 42.0272 85.3249 41.7683 85.3249 40.9092C85.3249 40.05 85.1954 39.7676 84.8659 39.7676L84.8541 39.7558Z" fill="black"/>
<path d="M79.2401 30.9756C79.2401 28.7866 77.2393 27.0801 74.6855 27.0801C72.1316 27.0801 70.1309 28.7984 70.1309 30.9756C70.1309 33.1529 72.1316 34.8712 74.6855 34.8712C77.2393 34.8712 79.2401 33.1529 79.2401 30.9756ZM72.8024 30.9521C72.8024 30.0929 73.4497 29.222 74.6855 29.222C75.9212 29.222 76.5685 30.0929 76.5685 30.9521C76.5685 31.8112 75.9212 32.7292 74.6855 32.7292C73.4497 32.7292 72.8024 31.8348 72.8024 30.9521Z" fill="black"/>
<path d="M107.368 29.505H104.826V24.6327C104.826 24.0913 104.779 23.1145 104.32 22.6555C103.99 22.3259 103.261 22.1494 102.143 22.1494H92.5038C92.2331 22.1494 91.9977 22.373 91.9977 22.6555V23.9265C91.9977 24.1972 92.2213 24.4326 92.5038 24.4326H101.472C101.766 24.4326 102.06 24.5032 102.06 25.021V29.505H89.7734C89.5262 29.505 89.3262 29.7051 89.3262 29.9523V31.2351C89.3262 31.4822 89.5262 31.6823 89.7734 31.6823H97.129V34.7305H92.3508C92.0566 34.7305 91.8212 34.9658 91.8212 35.2601V36.3899C91.8212 36.6841 92.0566 36.9195 92.3508 36.9195H102.378V41.9096C102.378 42.2862 102.731 42.4156 103.755 42.4156C104.591 42.4156 105.132 42.3803 105.132 41.9096V35.8368C105.132 34.9776 104.873 34.7187 104.014 34.7187H99.9183V31.6705H107.344C107.815 31.6705 107.909 31.4822 107.909 30.5996C107.909 29.7169 107.803 29.505 107.344 29.505H107.368Z" fill="black"/>
<path d="M120.762 35.1422C119.138 33.6122 116.408 30.5758 116.408 27.4806V23.8322C116.408 23.5615 116.184 23.3379 115.901 23.3379H114.007C113.736 23.3379 113.512 23.5615 113.512 23.8322V27.5277C113.512 30.6229 111.029 33.5298 108.946 35.4129C108.852 35.507 108.793 35.6012 108.793 35.7189C108.793 36.0013 109.087 36.3426 109.405 36.6839C110.135 37.4607 110.464 37.4725 110.77 37.2371C112.265 36.0366 114.16 33.9771 115.031 32.0823L115.125 31.8704L115.219 32.0823C116.219 34.2713 118.243 36.2132 119.067 36.9546C119.409 37.2488 119.691 37.0135 120.291 36.3897C120.656 36.0013 120.927 35.6836 120.927 35.46C120.927 35.354 120.868 35.2599 120.738 35.154L120.762 35.1422Z" fill="black"/>
<path d="M128.13 28.6694H125.188V22.7496C125.188 22.4201 124.917 22.1494 124.588 22.1494H122.987C122.657 22.1494 122.387 22.4201 122.387 22.7496V41.8978C122.387 42.2626 122.775 42.4039 123.764 42.4039C124.752 42.4039 125.188 42.2509 125.188 41.8743V31.0115H128.13C128.33 31.0115 128.507 30.8467 128.507 30.6349V29.0343C128.507 28.8342 128.342 28.6577 128.13 28.6577V28.6694Z" fill="black"/>
<path d="M146.454 33.8125H144.501C144.289 33.8125 144.112 33.989 144.112 34.2009V35.8015H137.016V34.2009C137.016 33.989 136.839 33.8125 136.627 33.8125H134.674C134.462 33.8125 134.285 33.989 134.285 34.2009V39.9677C134.285 40.6267 134.415 41.5212 134.791 41.886C135.238 42.345 136.251 42.3568 136.804 42.3568H145.383C146.36 42.3568 146.854 41.8507 146.854 40.8621V34.2009C146.854 33.989 146.678 33.8125 146.466 33.8125H146.454ZM144.112 40.0971H137.404C137.157 40.0971 137.004 39.9324 137.004 39.6617V38.014H144.101V40.0971H144.112Z" fill="black"/>
<path d="M146.466 22.1494H144.936C144.595 22.1494 144.324 22.4201 144.324 22.7614V25.7743H140.369L140.346 25.7037C139.687 23.6558 137.745 22.3377 135.391 22.3377C132.449 22.3377 130.225 24.4208 130.225 27.1748C130.225 29.9287 132.449 31.953 135.391 31.953C137.957 31.953 139.993 30.4348 140.475 28.1634L140.499 28.081H144.336V31.8471C144.336 32.2472 144.748 32.412 145.713 32.412C146.678 32.412 147.09 32.2472 147.09 31.8471V22.7614C147.09 22.4201 146.819 22.1494 146.478 22.1494H146.466ZM135.391 29.6816C133.92 29.6816 132.896 28.6577 132.896 27.1865C132.896 25.7154 133.944 24.6209 135.391 24.6209C136.839 24.6209 137.91 25.6801 137.91 27.1865C137.91 28.693 136.874 29.6816 135.391 29.6816Z" fill="black"/>
<path d="M167.968 28.6694H165.084V22.6202C165.084 22.3613 164.872 22.1494 164.614 22.1494H162.742C162.483 22.1494 162.271 22.3613 162.271 22.6202V41.886C162.271 42.2509 162.66 42.3921 163.648 42.3921C164.637 42.3921 165.072 42.2391 165.072 41.8625V31.0115H167.956C168.191 31.0115 168.38 30.8232 168.38 30.5878V29.0931C168.38 28.8577 168.191 28.6694 167.956 28.6694H167.968Z" fill="black"/>
<path d="M156.246 27.1158V26.3508H159.883C160.248 26.3508 160.365 26.0684 160.365 25.1739C160.365 24.2795 160.248 24.0088 159.883 24.0088H149.903C149.656 24.0088 149.455 24.2089 149.455 24.456V25.9036C149.455 26.1507 149.656 26.3508 149.903 26.3508H153.375V27.1629C153.375 30.2934 151.303 32.6472 149.067 34.7186C148.973 34.8127 148.926 34.8951 148.914 34.9893C148.914 35.2246 149.22 35.5542 149.573 35.919C150.267 36.6605 150.585 36.8017 150.891 36.5428C152.092 35.5659 153.963 33.4475 154.869 31.7057L154.963 31.5174L155.057 31.7057C155.928 33.3651 157.388 35.1893 158.694 36.2485C159.035 36.5192 159.153 36.4486 159.895 35.7189H159.906C160.33 35.2835 160.518 34.9893 160.518 34.7539C160.518 34.6244 160.459 34.5067 160.33 34.389C157.623 31.8352 156.246 29.3755 156.246 27.104V27.1158Z" fill="black"/>
<path d="M180.701 27.7752C180.701 25.0213 178.336 22.7852 175.417 22.7852C172.498 22.7852 170.109 25.0213 170.109 27.7752C170.109 30.5292 172.487 32.7535 175.417 32.7535C178.348 32.7535 180.701 30.5174 180.701 27.7752ZM172.793 27.7752C172.793 26.1982 173.899 25.0566 175.417 25.0566C176.935 25.0566 178.03 26.1982 178.03 27.7752C178.03 29.3523 176.935 30.4703 175.417 30.4703C173.899 30.4703 172.793 29.3405 172.793 27.7752Z" fill="black"/>
<path d="M186.751 40.1441H177.548C177.218 40.1441 176.959 39.8734 176.959 39.5557V35.2011C176.959 34.954 176.759 34.7539 176.512 34.7539H174.641C174.393 34.7539 174.193 34.954 174.193 35.2011V39.944C174.193 40.3324 174.193 41.4975 174.641 41.9212C175.088 42.392 176.394 42.392 176.818 42.392H186.739C187.092 42.392 187.198 42.1331 187.198 41.2739C187.198 40.4148 187.069 40.1323 186.739 40.1323L186.751 40.1441Z" fill="black"/>
<path d="M226.495 39.6263H216.339C216.009 39.6263 215.75 39.3556 215.75 39.0378V36.1191C215.75 35.8719 215.55 35.6719 215.303 35.6719H213.432C213.184 35.6719 212.984 35.8719 212.984 36.1191V39.4262C212.984 39.8146 212.984 40.9797 213.432 41.4034C213.879 41.8741 215.185 41.8741 215.609 41.8741H226.483C226.836 41.8741 226.942 41.6152 226.942 40.7561C226.942 39.8969 226.813 39.6145 226.483 39.6145L226.495 39.6263Z" fill="black"/>
<path d="M185.385 36.0367C186.373 36.0367 186.762 35.8837 186.762 35.4954V22.6789C186.762 22.3965 186.538 22.1729 186.256 22.1729H184.514C184.231 22.1729 184.008 22.3965 184.008 22.6789V35.4954C184.008 35.766 184.173 36.0367 185.385 36.0367Z" fill="black"/>
<path d="M192.447 29.7289C194.919 29.0816 197.52 27.5398 198.638 26.0687L198.732 25.951L198.814 26.0805C199.873 27.6575 202.945 29.1169 204.628 29.67C205.064 29.8113 205.134 29.7995 205.523 28.8933L205.581 28.7638C205.758 28.3637 205.887 28.093 205.828 27.9753C205.805 27.9164 205.723 27.8694 205.581 27.8223C204.134 27.3398 200.968 25.8098 200.215 24.4681L200.121 24.3034H204.734C205.111 24.3034 205.216 24.1857 205.216 23.3148C205.216 22.4439 205.111 22.3262 204.734 22.3262H192.388C192.176 22.3262 192 22.5027 192 22.7145V23.915C192 24.1268 192.176 24.3034 192.388 24.3034H197.072L196.99 24.4681C196.225 25.8804 193.012 27.3162 191.529 27.7399C191.353 27.787 191.27 27.8458 191.235 27.9164C191.164 28.0694 191.282 28.4107 191.553 29.0227C191.906 29.8113 191.976 29.8819 192.435 29.7524L192.447 29.7289Z" fill="black"/>
<path d="M207.393 30.8701H189.811C189.563 30.8701 189.363 31.0702 189.363 31.3173V32.5884C189.363 32.8355 189.563 33.0356 189.811 33.0356H207.393C207.864 33.0356 207.958 32.8473 207.958 31.9646C207.958 31.082 207.852 30.8701 207.393 30.8701Z" fill="black"/>
<path d="M198.544 34.1768C195.743 34.1768 192.918 35.6361 192.918 38.4254C192.918 41.2146 195.754 42.674 198.544 42.674C201.333 42.674 204.169 41.2146 204.169 38.4254C204.169 35.6361 201.333 34.1768 198.544 34.1768ZM198.567 40.4614C196.861 40.4614 195.672 39.6258 195.672 38.4254C195.672 37.2249 196.861 36.3893 198.567 36.3893C200.274 36.3893 201.415 37.2485 201.415 38.4254C201.415 39.6023 200.215 40.4614 198.567 40.4614Z" fill="black"/>
<path d="M213.961 29.9994C213.36 31.4352 212.29 32.8593 211.407 33.7302C211.007 34.1303 210.807 34.1068 210.053 33.4595C209.477 32.9652 209.112 32.7298 209.536 32.2355C211.113 30.4819 212.431 28.5283 212.431 26.3393V23.5618C212.431 23.2793 212.666 23.0439 212.949 23.0439H214.726C215.008 23.0439 215.244 23.2793 215.244 23.5618V26.2922C215.244 28.4577 217.197 30.8939 218.198 31.9413C218.539 32.2944 218.292 32.5886 217.739 33.0829C217.021 33.7184 216.856 33.789 216.479 33.4124C215.703 32.6592 214.584 31.2587 213.972 29.9994H213.961Z" fill="black"/>
<path d="M218.303 28.9637V27.4102C218.303 27.1984 218.467 27.0336 218.679 27.0336H220.715V22.6555C220.715 22.3731 220.951 22.1377 221.233 22.1377H222.54C222.822 22.1377 223.057 22.3731 223.057 22.6555V35.778C223.057 36.2134 222.834 36.3076 221.998 36.3076C221.163 36.3076 220.727 36.2134 220.727 35.778V29.3403H218.691C218.479 29.3403 218.314 29.1756 218.314 28.9637H218.303Z" fill="black"/>
<path d="M224.293 27.0336V22.6555C224.293 22.3731 224.528 22.1377 224.811 22.1377H226.152C226.435 22.1377 226.67 22.3731 226.67 22.6555V35.778C226.67 36.2134 226.4 36.3076 225.564 36.3076C224.728 36.3076 224.293 36.2134 224.293 35.778V29.3403" fill="black"/>
<path d="M231.99 25.5034L231.967 28.1161H237.357C237.828 28.1161 237.91 28.5398 237.91 29.293C237.91 30.0462 237.828 30.4934 237.357 30.4934H231.967V32.7413C231.967 33.0473 232.131 33.2121 232.414 33.2121H238.899C239.369 33.2121 239.452 33.6357 239.452 34.389C239.452 35.1422 239.369 35.5894 238.899 35.5894H231.861C230.966 35.5894 230.272 35.4952 229.825 35.048C229.389 34.6008 229.26 33.93 229.26 33.165L229.283 24.8325C229.283 23.8792 230.048 23.1143 231.002 23.1143H237.698C238.169 23.1143 238.251 23.5379 238.251 24.2912C238.251 25.0444 238.169 25.4916 237.698 25.4916H232.002L231.99 25.5034Z" fill="black"/>
<path d="M239.629 28.2105H242.418V22.6438C242.418 22.3614 242.653 22.126 242.936 22.126H244.701C244.983 22.126 245.219 22.3614 245.219 22.6438V41.8744C245.219 42.2392 244.83 42.3804 243.842 42.3804C242.853 42.3804 242.418 42.2274 242.418 41.8508V30.5526H239.629C239.417 30.5526 239.252 30.3878 239.252 30.176V28.5872C239.252 28.3753 239.417 28.2105 239.629 28.2105Z" fill="black"/>
<path d="M136.18 11.4979H129.907C129.601 11.4979 129.425 11.3096 129.425 10.98V8.84984C129.425 8.69684 129.295 8.56738 129.142 8.56738H128.154C128.001 8.56738 127.871 8.69684 127.871 8.84984V11.4037C127.871 11.5685 128.071 11.898 128.354 12.1805C128.66 12.4982 129.024 12.7218 129.236 12.7218H136.156C136.251 12.7218 136.357 12.7218 136.357 12.1098C136.357 11.5332 136.262 11.4861 136.156 11.4861L136.18 11.4979Z" fill="black"/>
<path d="M1.05921 6.26074C1.7065 5.78998 2.96579 4.719 3.54247 3.6951L3.6837 3.45972L3.82492 3.6951C4.35453 4.55424 5.34312 5.50752 6.04926 6.00182C6.20226 6.10774 6.27287 6.15482 6.66125 5.69583C6.86132 5.46045 7.04963 5.22507 7.04963 5.15445C7.04963 5.15445 7.03786 5.10738 6.95548 5.04853C5.93157 4.26001 4.5546 3.07134 4.38983 1.75322L4.3663 1.56491H6.46118C6.57887 1.56491 6.67302 1.56491 6.67302 0.941155C6.67302 0.317398 6.57887 0.340936 6.46118 0.340936H0.835599C0.670833 0.340936 0.541374 0.470395 0.541374 0.635161V1.27069C0.541374 1.43545 0.670833 1.56491 0.835599 1.56491H2.81279L2.78925 1.74145C2.64802 3.16549 1.42405 4.15409 0.35307 5.025L0.082383 5.24861C0.082383 5.24861 0 5.33099 0 5.3663C0 5.47222 0.223611 5.73114 0.388377 5.90767C0.835599 6.42551 0.917982 6.36666 1.07098 6.26074H1.05921Z" fill="black"/>
<path d="M6.66216 3.2246C6.66216 3.3776 6.79162 3.50706 6.94462 3.50706H9.05127V6.44931C9.05127 6.53169 9.05127 6.72 9.82802 6.72C10.6048 6.72 10.6048 6.53169 10.6048 6.44931V0.305893C10.6048 0.152896 10.4753 0.0234375 10.3223 0.0234375H9.32195C9.16896 0.0234375 9.0395 0.152896 9.0395 0.305893V2.23601H6.93285C6.77985 2.23601 6.65039 2.36547 6.65039 2.51846V3.2246H6.66216Z" fill="black"/>
<path d="M7.00235 6.99121C5.15462 6.99121 3.70703 8.25049 3.70703 9.86285C3.70703 11.4752 5.15462 12.7345 7.00235 12.7345C8.85008 12.7345 10.2977 11.4752 10.2977 9.86285C10.2977 8.25049 8.85008 6.99121 7.00235 6.99121ZM7.00235 11.5223C5.99022 11.5223 5.26054 10.8279 5.26054 9.86285C5.26054 8.89779 5.99022 8.20342 7.00235 8.20342C8.01448 8.20342 8.74416 8.89779 8.74416 9.86285C8.74416 10.8279 8.01448 11.5223 7.00235 11.5223Z" fill="black"/>
<path d="M15.8172 5.70791H21.537C22.0783 5.70791 22.3373 5.41369 22.3373 4.82524V0.282406C22.3373 0.129409 22.2196 0.0117188 22.0666 0.0117188H21.0309C20.8779 0.0117188 20.7602 0.129409 20.7602 0.282406V1.74176H15.829V0.282406C15.829 0.129409 15.7113 0.0117188 15.5583 0.0117188H14.5226C14.3696 0.0117188 14.252 0.129409 14.252 0.282406V4.31917C14.252 4.58986 14.252 5.16654 14.4403 5.40192C14.5579 5.54315 14.8875 5.70791 15.8055 5.70791H15.8172ZM15.8408 2.98927H20.772V4.4604H16.2645C16.0173 4.4604 15.8408 4.27209 15.8408 4.01318V3.00104V2.98927Z" fill="black"/>
<path d="M12.8878 8.5797H17.5248V12.4988C17.5248 12.6165 17.619 12.7224 18.3016 12.7224C19.1019 12.7224 19.1019 12.5576 19.1019 12.487V8.5797H23.8565C24.0331 8.5797 24.1154 8.55616 24.1154 7.94417C24.1154 7.33218 24.0213 7.29688 23.8565 7.29688H12.8878C12.7466 7.29688 12.6289 7.41457 12.6289 7.55579V8.33255C12.6289 8.47377 12.7466 8.59146 12.8878 8.59146V8.5797Z" fill="black"/>
<path d="M31.8463 8.66227C31.9993 8.77996 32.0111 8.79173 32.4701 8.33274C32.7172 8.08559 32.8349 7.90905 32.8349 7.80313C32.8349 7.76783 32.8349 7.72075 32.7408 7.63837C31.0225 6.01424 30.1516 4.44897 30.1516 2.98961V2.13048H32.5289C32.6466 2.13048 32.7408 2.0834 32.7408 1.48318C32.7408 0.847656 32.6349 0.847656 32.5289 0.847656H26.3502C26.1972 0.847656 26.0795 0.965346 26.0795 1.11834V1.85979C26.0795 2.01279 26.1972 2.13048 26.3502 2.13048H28.5393V3.01315C28.5393 5.01388 27.2211 6.50854 25.8088 7.82667C25.75 7.88552 25.75 7.92082 25.75 7.93259C25.75 8.05028 25.9501 8.25035 26.1384 8.45043C26.6091 8.95649 26.7268 8.93296 26.8327 8.8388C27.633 8.19151 28.7393 6.84984 29.316 5.84948L29.4572 5.59056L29.5985 5.84948C30.1281 6.87338 31.0343 7.99144 31.8581 8.66227H31.8463Z" fill="black"/>
<path d="M35.0366 12.7222C35.8369 12.7222 35.8369 12.5575 35.8369 12.4869V0.294175C35.8369 0.141178 35.7074 0.0117188 35.5544 0.0117188H34.5305C34.3775 0.0117188 34.248 0.141178 34.248 0.294175V12.4986C34.248 12.6163 34.3422 12.7222 35.0248 12.7222H35.0366Z" fill="black"/>
<path d="M44.5684 3.36588C44.5684 3.46003 44.6507 3.54242 44.7449 3.54242H46.9339V6.4729C46.9339 6.55528 46.9339 6.73181 47.7107 6.73181C48.4874 6.73181 48.4874 6.54351 48.4874 6.4729V0.341251C48.4874 0.164716 48.3344 0.0117188 48.1579 0.0117188H47.2752C47.0987 0.0117188 46.9457 0.164716 46.9457 0.341251V2.28313H44.7567C44.6625 2.28313 44.5801 2.36552 44.5801 2.45967V3.36588H44.5684Z" fill="black"/>
<path d="M44.8987 7.01465C43.0628 7.01465 41.627 8.26216 41.627 9.86275C41.627 11.4633 43.0628 12.7108 44.8987 12.7108C46.7347 12.7108 48.1705 11.4633 48.1705 9.86275C48.1705 8.26216 46.7347 7.01465 44.8987 7.01465ZM44.8987 11.5104C43.8984 11.5104 43.1687 10.816 43.1687 9.86275C43.1687 8.90946 43.8984 8.21509 44.8987 8.21509C45.8991 8.21509 46.6288 8.90946 46.6288 9.86275C46.6288 10.816 45.8991 11.5104 44.8987 11.5104Z" fill="black"/>
<path d="M39.0025 6.27251C39.6498 5.80175 40.8973 4.74254 41.474 3.7304L41.6152 3.49502L41.7564 3.7304C42.286 4.58954 43.2628 5.53106 43.969 6.02536C44.122 6.13128 44.1926 6.17836 44.581 5.71936C44.781 5.48398 44.9693 5.26037 44.9693 5.17799C44.9693 5.17799 44.9694 5.14268 44.8752 5.07207C43.8631 4.29532 42.4979 3.10665 42.3213 1.80029L42.2978 1.61199H44.3809C44.4868 1.61199 44.5927 1.61199 44.5927 0.988229C44.5927 0.364472 44.4986 0.399779 44.3809 0.399779H38.7082C38.5906 0.399779 38.4964 0.493931 38.4964 0.611621V1.40014C38.4964 1.51783 38.5906 1.61199 38.7082 1.61199H40.7561L40.7325 1.78852C40.5913 3.2008 39.3791 4.1894 38.3199 5.04853L38.0492 5.27214C38.0492 5.27214 37.9668 5.35453 37.9668 5.38983C37.9668 5.49575 38.1786 5.7429 38.3434 5.93121C38.7906 6.44904 38.873 6.3902 39.0142 6.28428L39.0025 6.27251Z" fill="black"/>
<path d="M60.1751 8.49716C60.8577 8.49716 60.9519 8.37947 60.9519 8.25002V0.258868C60.9519 0.11764 60.846 0.0117188 60.7047 0.0117188H59.6573C59.5161 0.0117188 59.4102 0.11764 59.4102 0.258868V8.25002C59.4102 8.32063 59.4102 8.49716 60.1869 8.49716H60.1751Z" fill="black"/>
<path d="M54.7839 11.0395V8.23846C54.7839 8.08546 54.6662 7.96777 54.5132 7.96777H53.5129C53.3599 7.96777 53.2422 8.08546 53.2422 8.23846V11.2866C53.2422 11.5691 53.301 12.1811 53.5482 12.4165C53.8777 12.746 54.3485 12.7342 54.678 12.7342H54.7957H61.0215C61.1156 12.7342 61.2216 12.7342 61.2216 12.1222C61.2216 11.5102 61.1039 11.4985 61.0215 11.4985H55.2429C54.984 11.4985 54.7722 11.2866 54.7722 11.0277L54.7839 11.0395Z" fill="black"/>
<path d="M53.9259 6.43798C55.703 6.43798 57.1506 5.08455 57.1506 3.41335C57.1506 1.74216 55.703 0.376953 53.9259 0.376953C52.1488 0.376953 50.6895 1.74216 50.6895 3.41335C50.6895 5.08455 52.137 6.43798 53.9259 6.43798ZM53.9259 1.6127C54.9263 1.6127 55.656 2.36591 55.656 3.41335C55.656 4.46079 54.9263 5.20224 53.9259 5.20224C52.9256 5.20224 52.1841 4.44903 52.1841 3.41335C52.1841 2.37768 52.9138 1.6127 53.9259 1.6127Z" fill="black"/>
<path d="M64.7772 4.48404C66.3072 4.08389 67.9195 3.1306 68.6021 2.21262L68.7433 2.02432L68.8728 2.21262C69.5201 3.17768 71.4267 4.08389 72.4741 4.43696C72.686 4.50758 72.6977 4.50758 72.9213 4.00151L72.9566 3.91913C73.039 3.74259 73.1214 3.54252 73.1096 3.49544C73.1096 3.49544 73.0861 3.4719 73.0155 3.44837C72.0622 3.1306 70.085 2.17731 69.6025 1.29464L69.4613 1.04749H72.5212C72.6742 1.04749 72.733 1.04749 72.733 0.517886C72.733 -0.0117188 72.6742 -0.0117188 72.5212 -0.0117188H64.8243C64.7183 -0.0117188 64.6242 0.0824332 64.6242 0.188354V0.847418C64.6242 0.953339 64.7183 1.04749 64.8243 1.04749H67.8724L67.743 1.28287C67.2016 2.27147 65.0008 3.16591 64.2594 3.37775C64.1417 3.41306 64.1299 3.4366 64.1299 3.4366C64.0946 3.50721 64.2594 3.89559 64.33 4.04858C64.5418 4.51934 64.5536 4.51934 64.7654 4.44873L64.7772 4.48404Z" fill="black"/>
<path d="M63.1414 6.66122H74.1807C74.369 6.66122 74.4396 6.66122 74.4396 6.08454C74.4396 5.50786 74.3572 5.49609 74.1807 5.49609H63.1414C63.0472 5.49609 62.9648 5.57848 62.9648 5.67263V6.48469C62.9648 6.57884 63.0472 6.66122 63.1414 6.66122Z" fill="black"/>
<path d="M65.1758 10.1565C65.1758 11.8512 66.9058 12.7339 68.6123 12.7339C70.3188 12.7339 72.0489 11.8512 72.0489 10.1565C72.0489 8.46178 70.3188 7.5791 68.6123 7.5791C66.9058 7.5791 65.1758 8.46178 65.1758 10.1565ZM70.5189 10.1565C70.5189 10.9568 69.7304 11.5335 68.6359 11.5335C67.5413 11.5335 66.7293 10.9686 66.7293 10.1565C66.7293 9.34445 67.5178 8.77954 68.6359 8.77954C69.7539 8.77954 70.5189 9.35622 70.5189 10.1565Z" fill="black"/>
<path d="M82.6532 4.6134H84.7364V12.4986C84.7364 12.6045 84.8305 12.7222 85.5131 12.7222C86.3134 12.7222 86.3134 12.5575 86.3134 12.4869V0.317713C86.3134 0.152947 86.1839 0.0117188 86.0074 0.0117188H85.0306C84.8658 0.0117188 84.7246 0.141178 84.7246 0.317713V3.35411H82.6415C82.5356 3.35411 82.4414 3.4365 82.4414 3.55419V4.41332C82.4414 4.51924 82.5238 4.6134 82.6415 4.6134H82.6532Z" fill="black"/>
<path d="M79.8173 5.46083L79.9703 5.77859C80.594 7.13203 81.8533 8.34423 82.3594 8.80322C82.4888 8.90914 82.5947 8.88561 83.0067 8.45015C83.2067 8.23831 83.3833 8.03824 83.3715 7.93232C83.3715 7.92055 83.3715 7.87347 83.2891 7.80286C82.2534 6.82603 80.5234 4.90769 80.5234 2.9305V0.88269C80.5234 0.765 80.4292 0.682617 80.3233 0.682617H79.1111C78.9934 0.682617 78.9111 0.776769 78.9111 0.88269V2.9658C78.9111 4.94299 77.334 6.79073 76.0159 7.97939C75.957 8.03824 75.957 8.07355 75.957 8.09708C75.957 8.23831 76.1453 8.46192 76.3219 8.63846C76.7691 9.12099 76.9339 9.07391 77.0515 8.97976C77.9813 8.23831 79.1582 6.95549 79.6996 5.77859L79.8526 5.46083H79.8173Z" fill="black"/>
<path d="M94.5993 4.63693V0.223561C94.5993 0.105871 94.5052 0.0117188 94.3875 0.0117188H93.3165C93.1988 0.0117188 93.1047 0.105871 93.1047 0.223561V1.50638H90.2095V0.223561C90.2095 0.105871 90.1154 0.0117188 89.9977 0.0117188H88.9267C88.809 0.0117188 88.7148 0.105871 88.7148 0.223561V4.10733C88.7148 4.6134 88.7972 4.96646 88.9738 5.15477C89.2915 5.49607 89.8094 5.50784 90.1742 5.50784H93.8108C94.3522 5.50784 94.6229 5.21361 94.6229 4.62516L94.5993 4.63693ZM93.1047 4.37802H90.5508C90.3507 4.37802 90.2095 4.22502 90.2095 4.01318V2.67151H93.1047V4.38978V4.37802Z" fill="black"/>
<path d="M91.646 12.7222H91.7048H98.3896C98.4837 12.7222 98.5544 12.7222 98.5544 12.1573C98.5544 11.6395 98.472 11.5924 98.3896 11.5924H92.4345C92.1403 11.5924 91.9519 11.4041 91.9519 11.1099V10.439H97.8835C98.013 10.439 98.1189 10.3331 98.1189 10.2036V7.47324C98.1189 7.17901 98.0836 7.1084 97.707 7.1084H90.6103C90.4926 7.1084 90.3984 7.20255 90.3984 7.32024V8.03815C90.3984 8.15584 90.4926 8.24999 90.6103 8.24999H96.5772V9.34451H90.6691C90.5161 9.34451 90.3984 9.4622 90.3984 9.61519V11.5335C90.3984 11.7925 90.3984 12.2279 90.6221 12.5104C90.7868 12.7222 91.1987 12.7222 91.6342 12.734L91.646 12.7222Z" fill="black"/>
<path d="M97.4935 5.94329C98.2703 5.94329 98.2703 5.75499 98.2703 5.68437V3.36588H100.142C100.259 3.36588 100.353 3.27173 100.353 3.15404V2.31844C100.353 2.20075 100.259 2.1066 100.142 2.1066H98.2703V0.200023C98.2703 0.0941017 98.1879 0.0117188 98.082 0.0117188H96.9051C96.7992 0.0117188 96.7168 0.0941017 96.7168 0.200023V5.68437C96.7168 5.76676 96.7168 5.94329 97.4935 5.94329Z" fill="black"/>
<path d="M101.448 5.90804H112.417C112.605 5.90804 112.676 5.90804 112.676 5.33135C112.676 4.75467 112.594 4.74291 112.417 4.74291H110.699V1.3299C110.699 1.04744 110.722 0.611988 110.499 0.305994C110.275 0 109.545 0 109.192 0H109.122H103.131C102.99 0 102.884 0.11769 102.884 0.247149V0.988595C102.884 1.12982 103.002 1.23574 103.131 1.23574H108.698C109.004 1.23574 109.169 1.38874 109.169 1.7065V4.73114H101.46C101.319 4.73114 101.213 4.84883 101.213 4.97828V5.64912C101.213 5.79035 101.331 5.89627 101.46 5.89627L101.448 5.90804Z" fill="black"/>
<path d="M104.168 7.27349H103.05C102.932 7.27349 102.838 7.36764 102.838 7.48533V11.5692C102.838 11.8163 102.838 12.2635 103.085 12.4989C103.297 12.699 103.556 12.7225 104.144 12.7225H110.111C110.653 12.7225 110.911 12.4401 110.911 11.8516V7.47356C110.911 7.35587 110.817 7.26172 110.7 7.26172H109.593C109.476 7.26172 109.381 7.35587 109.381 7.47356V8.8623H104.38V7.47356C104.38 7.35587 104.285 7.26172 104.168 7.26172V7.27349ZM109.381 9.95682V11.6162H104.733C104.509 11.6162 104.38 11.475 104.38 11.2514V9.95682H109.381Z" fill="black"/>
<path d="M120.033 2.83629C120.033 2.53029 120.044 1.96538 119.809 1.61231C119.503 1.15332 118.915 1.15332 118.562 1.15332H114.713C114.595 1.15332 114.489 1.24747 114.489 1.37693V2.25961C114.489 2.3773 114.584 2.48322 114.713 2.48322H118.138C118.373 2.48322 118.538 2.65975 118.538 2.91867C118.538 4.50748 117.126 6.21399 114.336 7.97934C114.242 8.03818 114.242 8.07349 114.231 8.09703C114.207 8.21472 114.395 8.49717 114.548 8.72078C114.901 9.26216 115.054 9.17977 115.172 9.12093C116.643 8.28533 120.033 6.00215 120.033 2.95398V2.85982V2.83629Z" fill="black"/>
<path d="M123.044 12.7105C123.845 12.7105 123.845 12.5457 123.845 12.4751V0.23533C123.845 0.11764 123.75 0.0117188 123.621 0.0117188H122.491C122.374 0.0117188 122.268 0.105871 122.268 0.23533V12.4869C122.268 12.5928 122.362 12.7105 123.044 12.7105Z" fill="black"/>
<path d="M126.257 7.32021H133.412C133.601 7.32021 133.671 7.32021 133.671 6.74353C133.671 6.16685 133.589 6.15508 133.412 6.15508H129.635V3.89544C129.635 3.77775 129.54 3.68359 129.423 3.68359H128.328C128.21 3.68359 128.116 3.77775 128.116 3.89544V6.15508H126.245C126.127 6.15508 126.033 6.24923 126.033 6.36692V7.13191C126.033 7.2496 126.127 7.34375 126.245 7.34375L126.257 7.32021Z" fill="black"/>
<path d="M126.952 1.25918H130.754C131.06 1.25918 131.224 1.41218 131.224 1.72994V4.17789C131.224 4.24851 131.224 4.41327 132.001 4.41327C132.778 4.41327 132.801 4.24851 132.801 4.17789V1.38864C132.801 1.10618 132.813 0.647194 132.566 0.3412C132.307 0.0234375 131.613 0.0234375 131.283 0.0234375H126.964C126.834 0.0234375 126.729 0.129358 126.729 0.258817V1.03557C126.729 1.16503 126.834 1.27095 126.964 1.27095L126.952 1.25918Z" fill="black"/>
<path d="M138.168 4.35448V3.46003C138.168 3.34234 138.074 3.24819 137.956 3.24819H136.085V0.223561C136.085 0.105871 135.991 0.0117188 135.873 0.0117188H134.72C134.602 0.0117188 134.508 0.105871 134.508 0.223561V8.65016C134.508 8.76785 134.602 8.87377 135.285 8.87377C136.085 8.87377 136.085 8.709 136.085 8.63839V4.55455H137.956C138.074 4.55455 138.168 4.4604 138.168 4.34271V4.35448Z" fill="black"/>
</g>
<defs>
<clipPath id="clip0_20004809_8738">
<rect width="245.219" height="42.6744" fill="white"/>
</clipPath>
</defs>
</svg>
