<svg width="355" height="202" viewBox="0 0 355 202" fill="none" xmlns="http://www.w3.org/2000/svg">
<g clip-path="url(#clip0_20004809_9020)">
<g clip-path="url(#clip1_20004809_9020)">
<path d="M0 20.001C0 8.95527 8.95431 0.000976562 20 0.000976562H336.549C347.594 0.000976562 356.549 8.95528 356.549 20.001V203.743H0V20.001Z" fill="#A6D934"/>
<g clip-path="url(#clip2_20004809_9020)">
<g clip-path="url(#clip3_20004809_9020)">
<path d="M43.5275 74.3894H41.9664V61.8117H43.5275V74.3894ZM33.1019 70.9273C34.1919 70.4086 35.0964 69.8258 35.8154 69.179C36.5377 68.529 37.0926 67.8083 37.48 67.0171C37.8674 66.2226 38.1071 65.3411 38.199 64.3725H33.7421V63.1463H39.7749C39.7716 64.4562 39.5812 65.6612 39.2036 66.761C38.8294 67.8576 38.2088 68.8639 37.3421 69.7799C36.4786 70.6959 35.3361 71.492 33.9145 72.1683L33.1019 70.9273ZM48.5506 62.3632C49.089 62.3632 49.5848 62.4601 50.0378 62.6538C50.4909 62.8475 50.8685 63.12 51.1705 63.4713C51.4759 63.8226 51.6794 64.2264 51.7812 64.6828H54.0564V61.8117H55.6028V68.5684H54.0564V65.9238H51.7861C51.6909 66.3933 51.4923 66.807 51.1902 67.1648C50.8882 67.5227 50.509 67.8018 50.0526 68.002C49.5963 68.199 49.0956 68.2975 48.5506 68.2975C47.9169 68.2975 47.3473 68.1711 46.8417 67.9183C46.3361 67.6622 45.9405 67.3077 45.6549 66.8546C45.3692 66.4015 45.2281 65.8893 45.2313 65.3181C45.2281 64.7534 45.3692 64.2461 45.6549 63.7963C45.9405 63.3465 46.3361 62.9953 46.8417 62.7425C47.3473 62.4896 47.9169 62.3632 48.5506 62.3632ZM46.7038 65.3181C46.7038 65.6497 46.781 65.9419 46.9353 66.1947C47.0929 66.4475 47.3112 66.6445 47.5903 66.7856C47.8726 66.9235 48.1927 66.9925 48.5506 66.9925C48.9019 66.9925 49.2154 66.9235 49.4912 66.7856C49.767 66.6445 49.982 66.4475 50.1363 66.1947C50.2939 65.9386 50.3727 65.6464 50.3727 65.3181C50.3727 64.9865 50.2956 64.6943 50.1413 64.4415C49.987 64.1887 49.7703 63.995 49.4912 63.8604C49.2154 63.7258 48.9019 63.6584 48.5506 63.6584C48.1927 63.6584 47.8726 63.7258 47.5903 63.8604C47.3112 63.995 47.0929 64.1887 46.9353 64.4415C46.781 64.6943 46.7038 64.9865 46.7038 65.3181ZM47.3046 69.1495H48.8362V70.4841H54.0564V69.1495H55.6028V74.2416H47.3046V69.1495ZM54.0564 72.9858V71.6906H48.8362V72.9858H54.0564ZM67.5795 71.0209H66.0282V61.8215H67.5795V71.0209ZM57.1096 68.0513C57.7695 67.8182 58.3309 67.48 58.7938 67.0368C59.26 66.5903 59.6097 66.083 59.8428 65.5151C60.0792 64.9471 60.1974 64.3578 60.1974 63.7471V62.5159H61.7979V63.7471C61.7946 64.3413 61.9079 64.9077 62.1377 65.4461C62.3675 65.9845 62.709 66.4622 63.162 66.8792C63.6151 67.2929 64.1667 67.6081 64.8167 67.8247L64.0239 69.051C63.318 68.8048 62.709 68.442 62.1968 67.9626C61.6879 67.4833 61.2907 66.917 61.005 66.2636C60.7161 66.9695 60.3106 67.5834 59.7886 68.1055C59.2699 68.6242 58.6494 69.0132 57.9271 69.2726L57.1096 68.0513ZM59.2518 70.1394H60.813V72.8972H67.9341V74.153H59.2518V70.1394ZM80.6101 69.1052H69.1405V67.8641H71.8097V66.2636C71.3303 66.0601 70.9626 65.8023 70.7065 65.4904C70.4537 65.1753 70.329 64.8141 70.3323 64.407C70.3323 63.9112 70.5161 63.4844 70.8838 63.1266C71.2515 62.7687 71.7752 62.4946 72.4548 62.3042C73.1377 62.1104 73.9421 62.0136 74.8679 62.0136C75.7905 62.0136 76.5916 62.1104 77.2712 62.3042C77.9541 62.4946 78.4794 62.7687 78.8471 63.1266C79.2148 63.4844 79.3987 63.9112 79.3987 64.407C79.3987 64.8174 79.269 65.1802 79.0096 65.4954C78.7535 65.8105 78.3825 66.0699 77.8966 66.2735V67.8641H80.6101V69.1052ZM70.4751 72.1092C70.4751 71.6299 70.6491 71.2228 70.9971 70.8879C71.3451 70.5498 71.8474 70.2953 72.5041 70.1246C73.1607 69.9506 73.9454 69.8636 74.8581 69.8636C75.7609 69.8636 76.539 69.9506 77.1924 70.1246C77.8457 70.2953 78.3464 70.5498 78.6944 70.8879C79.0457 71.2228 79.2214 71.6299 79.2214 72.1092C79.2214 72.5919 79.0457 73.0023 78.6944 73.3404C78.3464 73.6819 77.8457 73.9396 77.1924 74.1136C76.5423 74.2876 75.7642 74.373 74.8581 74.3697C73.9421 74.373 73.1558 74.2876 72.4991 74.1136C71.8458 73.9396 71.3451 73.6835 70.9971 73.3453C70.6491 73.0072 70.4751 72.5951 70.4751 72.1092ZM71.9377 64.407C71.9344 64.7911 72.1872 65.085 72.6961 65.2885C73.205 65.4888 73.9289 65.5889 74.8679 65.5889C75.8036 65.5889 76.5275 65.4888 77.0397 65.2885C77.5519 65.085 77.808 64.7911 77.808 64.407C77.808 64.1542 77.6914 63.9392 77.4583 63.7619C77.2285 63.5813 76.8936 63.445 76.4537 63.3531C76.0137 63.2579 75.4852 63.2103 74.8679 63.2103C74.2474 63.2103 73.7172 63.2579 73.2772 63.3531C72.8406 63.445 72.5073 63.5813 72.2775 63.7619C72.0477 63.9392 71.9344 64.1542 71.9377 64.407ZM72.051 72.1092C72.0444 72.4671 72.2825 72.7396 72.7651 72.9267C73.2477 73.1106 73.9454 73.2009 74.8581 73.1976C75.7609 73.2042 76.4553 73.1139 76.9412 72.9267C77.4271 72.7396 77.6717 72.4671 77.675 72.1092C77.6717 71.7612 77.4288 71.4969 76.9461 71.3164C76.4635 71.1358 75.7675 71.0422 74.8581 71.0357C73.9388 71.0422 73.2395 71.1358 72.7601 71.3164C72.2841 71.4969 72.0477 71.7612 72.051 72.1092ZM76.3552 67.8641V66.6674C75.8758 66.7298 75.3801 66.761 74.8679 66.761C74.3525 66.761 73.8534 66.7298 73.3708 66.6674V67.8641H76.3552ZM88.2088 63.9342H87.0958V67.5096C87.5259 67.4767 87.9757 67.4341 88.4452 67.3815V66.2488H90.1787V65.1605H88.4452V63.9293H90.1787V61.8117H91.725V69.5287H90.1787V67.4899H88.4846L88.5437 68.5241C87.4734 68.6981 86.3325 68.8146 85.121 68.8737C83.9128 68.9328 82.6603 68.9624 81.3635 68.9624L81.1911 67.6918C81.4734 67.6918 81.9495 67.6885 82.6193 67.6819V63.9342H81.5211V62.6834H88.2088V63.9342ZM83.1807 72.0748C83.1807 71.5823 83.3498 71.1621 83.6879 70.814C84.0294 70.466 84.5218 70.2001 85.1653 70.0162C85.8088 69.8324 86.5754 69.7405 87.4652 69.7405C88.3582 69.7405 89.1264 69.8324 89.7699 70.0162C90.4134 70.2001 90.9059 70.466 91.2473 70.814C91.5888 71.1621 91.7595 71.5823 91.7595 72.0748C91.7595 72.5541 91.5872 72.9661 91.2424 73.3109C90.901 73.6589 90.4085 73.9232 89.765 74.1037C89.1215 74.2876 88.3549 74.3795 87.4652 74.3795C86.5787 74.3795 85.8138 74.2876 85.1703 74.1037C84.5268 73.9232 84.0343 73.6589 83.6928 73.3109C83.3514 72.9661 83.1807 72.5541 83.1807 72.0748ZM84.1213 67.6573C84.7878 67.6376 85.2852 67.6196 85.6135 67.6031V63.9342H84.1213V67.6573ZM84.7221 72.0748C84.7188 72.4359 84.9536 72.7117 85.4263 72.9021C85.8991 73.0925 86.5787 73.1878 87.4652 73.1878C88.3549 73.1878 89.0362 73.0925 89.5089 72.9021C89.9817 72.7117 90.2197 72.4359 90.223 72.0748C90.2197 71.7005 89.9817 71.4165 89.5089 71.2228C89.0362 71.0291 88.3549 70.9322 87.4652 70.9322C86.5754 70.9322 85.8942 71.0291 85.4214 71.2228C84.9519 71.4165 84.7188 71.7005 84.7221 72.0748ZM103.081 66.7265H104.948V68.0119H103.081V74.3697H101.53V61.8117H103.081V66.7265ZM93.158 70.9322C94.6912 70.164 95.8731 69.2398 96.7038 68.1596C97.5377 67.0795 98.0302 65.8237 98.1812 64.3922H93.8277V63.1167H99.7571C99.7472 67.2502 97.8381 70.2526 94.0297 72.124L93.158 70.9322ZM118.339 65.4904H120.038V66.7659H118.339V70.3314H116.788V61.8215H118.339V65.4904ZM108.249 68.8245C109.48 68.8245 110.537 68.813 111.42 68.79V68.0119C110.954 67.9528 110.549 67.8428 110.204 67.6819C109.862 67.5178 109.6 67.3077 109.416 67.0516C109.232 66.7955 109.142 66.5033 109.145 66.175C109.142 65.7941 109.265 65.4642 109.514 65.1851C109.767 64.9028 110.122 64.6861 110.578 64.535C111.038 64.384 111.571 64.3085 112.179 64.3085C112.786 64.3085 113.318 64.384 113.774 64.535C114.234 64.6861 114.588 64.9028 114.838 65.1851C115.091 65.4642 115.219 65.7941 115.222 66.175C115.219 66.5 115.125 66.7906 114.941 67.0466C114.758 67.2994 114.497 67.5079 114.158 67.6721C113.823 67.8362 113.426 67.9479 112.967 68.007V68.7358C114.129 68.6767 115.186 68.5848 116.138 68.46L116.251 69.5435C115.069 69.7503 113.851 69.8849 112.597 69.9473C111.343 70.0064 109.949 70.0376 108.416 70.0409L108.249 68.8245ZM108.574 62.8163H111.42V61.7132H112.967V62.8163H115.803V63.9539H108.574V62.8163ZM109.83 70.8731H118.339V74.3894H116.788V72.0797H109.83V70.8731ZM110.627 66.175C110.621 66.4376 110.754 66.6445 111.026 66.7955C111.299 66.9465 111.676 67.022 112.159 67.022C112.651 67.022 113.037 66.9481 113.316 66.8004C113.595 66.6494 113.735 66.4409 113.735 66.175C113.735 65.9058 113.599 65.7022 113.326 65.5643C113.054 65.4231 112.671 65.3525 112.179 65.3525C111.683 65.3525 111.299 65.4231 111.026 65.5643C110.757 65.7055 110.624 65.909 110.627 66.175ZM130.882 70.9175H129.331V61.8215H130.882V70.9175ZM120.629 65.7908C120.629 65.19 120.777 64.6516 121.072 64.1755C121.371 63.6962 121.778 63.3219 122.294 63.0527C122.813 62.7835 123.389 62.6489 124.022 62.6489C124.656 62.6489 125.231 62.7835 125.746 63.0527C126.261 63.3219 126.667 63.6962 126.962 64.1755C127.261 64.6516 127.411 65.19 127.411 65.7908C127.411 66.4015 127.261 66.9465 126.962 67.4258C126.667 67.9052 126.261 68.2795 125.746 68.5487C125.231 68.8146 124.656 68.9476 124.022 68.9476C123.389 68.9476 122.813 68.8146 122.294 68.5487C121.778 68.2795 121.371 67.9052 121.072 67.4258C120.777 66.9432 120.629 66.3982 120.629 65.7908ZM122.141 65.7908C122.141 66.1553 122.222 66.4737 122.382 66.7462C122.543 67.0187 122.767 67.2289 123.052 67.3766C123.338 67.5243 123.661 67.5982 124.022 67.5982C124.374 67.5982 124.691 67.5243 124.973 67.3766C125.255 67.2289 125.478 67.0187 125.643 66.7462C125.807 66.4737 125.889 66.1553 125.889 65.7908C125.889 65.4363 125.807 65.1227 125.643 64.8502C125.478 64.5777 125.254 64.3676 124.968 64.2199C124.686 64.0721 124.37 63.9983 124.022 63.9983C123.665 63.9983 123.341 64.0721 123.052 64.2199C122.767 64.3676 122.543 64.5777 122.382 64.8502C122.222 65.1227 122.141 65.4363 122.141 65.7908ZM122.555 69.9916H124.116V72.8972H131.237V74.153H122.555V69.9916ZM137.092 64.8355C137.092 65.6234 137.214 66.3851 137.457 67.1205C137.703 67.8527 138.061 68.5027 138.53 69.0707C139.003 69.6354 139.566 70.0622 140.22 70.3511L139.279 71.5872C138.583 71.2458 137.984 70.7582 137.481 70.1246C136.982 69.4909 136.593 68.7522 136.314 67.9085C136.032 68.8015 135.635 69.5878 135.123 70.2674C134.61 70.947 134.001 71.4641 133.295 71.8187L132.32 70.5629C132.984 70.2543 133.555 69.8012 134.034 69.2037C134.517 68.6029 134.884 67.9232 135.137 67.1648C135.39 66.4031 135.518 65.6267 135.521 64.8355V62.8212H137.092V64.8355ZM138.826 65.8795H141.461V61.8117H142.997V74.4189H141.461V67.1304H138.826V65.8795Z" fill="white" fill-opacity="0.8"/>
</g>
<g clip-path="url(#clip4_20004809_9020)">
<path d="M51.4345 87.0776V102.941H48.3784V87.0776H51.4345ZM33.1652 97.5715C36.8208 96.3473 38.3995 93.325 38.4079 90.3617V88.268H41.5654V90.3617C41.5485 93.249 43.0935 96.0603 46.6646 97.2L45.1112 99.5976C42.6545 98.7787 40.966 97.1578 40.0036 95.081C39.0327 97.3182 37.2936 99.108 34.7524 99.9775L33.1652 97.5715ZM36.8714 108.411V101.396H39.9529V105.955H52.0086V108.411H36.8714ZM73.7136 97.3604V99.7918H53.891V97.3604H58.3485V94.7433C56.7698 94.0426 55.8665 92.9535 55.8749 91.5605C55.8665 88.9434 58.9564 87.3731 63.7854 87.3647C68.5976 87.3731 71.679 88.9434 71.6875 91.5605C71.679 92.9788 70.7588 94.0679 69.1379 94.7686V97.3604H73.7136ZM56.1535 104.832C56.1535 102.316 59.007 100.915 63.7601 100.923C68.4625 100.915 71.316 102.316 71.3329 104.832C71.316 107.381 68.4625 108.766 63.7601 108.758C59.007 108.766 56.1535 107.381 56.1535 104.832ZM59.0408 91.5605C59.0239 92.7678 60.7208 93.3672 63.7854 93.3672C66.8247 93.3672 68.5469 92.7678 68.5469 91.5605C68.5469 90.3448 66.8247 89.7116 63.7854 89.7116C60.7208 89.7116 59.0239 90.3448 59.0408 91.5605ZM59.2603 104.832C59.2434 105.929 60.7546 106.495 63.7601 106.487C66.7149 106.495 68.2683 105.929 68.2767 104.832C68.2683 103.743 66.7149 103.236 63.7601 103.219C60.7546 103.236 59.2434 103.743 59.2603 104.832ZM61.43 97.3604H66.1071V95.5284C65.3895 95.6213 64.6128 95.6635 63.7854 95.6635C62.9412 95.6635 62.156 95.6213 61.43 95.5284V97.3604ZM86.6471 88.4875V90.9273H84.8657V96.7272C85.5918 96.6681 86.3009 96.6006 86.9847 96.5246L87.1029 98.7618C83.0253 99.4372 78.2807 99.5301 74.8446 99.5301L74.5238 97.048C75.2414 97.048 76.0181 97.0396 76.8286 97.0311V90.9273H75.081V88.4875H86.6471ZM77.9514 104.756C77.943 102.147 80.7543 100.678 85.4145 100.678C90.0831 100.678 92.8944 102.147 92.9028 104.756C92.8944 107.28 90.0831 108.791 85.4145 108.783C80.7543 108.791 77.943 107.28 77.9514 104.756ZM79.7834 96.9805C80.501 96.9636 81.2271 96.9383 81.9531 96.9045V90.9273H79.7834V96.9805ZM80.9822 104.756C80.9738 105.896 82.5103 106.461 85.4145 106.47C88.3186 106.461 89.872 105.896 89.8805 104.756C89.872 103.566 88.3186 102.991 85.4145 102.991C82.5103 102.991 80.9738 103.566 80.9822 104.756ZM87.1452 97.0818V94.6504H89.8045V92.9788H87.1452V90.5896H89.8045V87.0438H92.8437V100.341H89.8045V97.0818H87.1452ZM112.312 87.0438V95.3764H115.385V97.8923H112.312V108.741H109.264V87.0438H112.312ZM94.9372 102.654C100.07 100.07 102.831 96.609 103.405 91.7631H96.1613V89.2726H106.512C106.495 95.7732 103.954 101.396 96.651 104.984L94.9372 102.654ZM135.671 96.9889V99.471H115.815V96.9889H135.671ZM118.077 104.764C118.077 102.215 120.939 100.78 125.684 100.78C130.403 100.78 133.24 102.215 133.257 104.764C133.24 107.339 130.403 108.791 125.684 108.783C120.939 108.791 118.077 107.339 118.077 104.764ZM118.213 95.4693V87.6433H133.291V90.0831H121.252V93.0464H133.4V95.4693H118.213ZM121.184 104.764C121.167 105.921 122.679 106.461 125.684 106.47C128.639 106.461 130.192 105.921 130.201 104.764C130.192 103.667 128.639 103.101 125.684 103.093C122.679 103.101 121.167 103.667 121.184 104.764ZM141.826 99.4203V101.742H150.876V99.4203H153.89V108.547H138.828V99.4203H141.826ZM136.456 97.9851V95.5622H150.445C150.867 93.4516 150.926 91.8307 150.943 90.3701H138.888V87.9303H153.983V89.6779C153.983 91.3241 153.983 93.0886 153.468 95.5622H156.329V97.9851H136.456ZM141.826 106.081H150.876V104.064H141.826V106.081ZM165.907 88.0316V90.6065H170.365V88.0316H173.404V97.5124H162.885V88.0316H165.907ZM165.063 101.278V98.9222H179.483V104.832H168.102V106.242H180.107V108.639H165.097V102.645H176.443V101.278H165.063ZM165.907 95.1232H170.365V92.8944H165.907V95.1232ZM176.426 98.1202V87.0438H179.483V91.2819H182.404V93.7471H179.483V98.1202H176.426ZM188.254 99.4203V101.742H197.304V99.4203H200.318V108.547H185.257V99.4203H188.254ZM182.885 97.9851V95.5622H196.874C197.296 93.4516 197.355 91.8307 197.372 90.3701H185.316V87.9303H200.411V89.6779C200.411 91.3241 200.411 93.0886 199.896 95.5622H202.758V97.9851H182.885ZM188.254 106.081H197.304V104.064H188.254V106.081ZM53.4607 127.292V129.783H50.3876V140.741H47.34V119.044H50.3876V127.292H53.4607ZM33.9335 135.43V121.129H36.9727V132.915C39.7503 132.864 42.7304 132.611 45.871 131.978L46.1918 134.519C42.5447 135.245 39.0242 135.439 35.8161 135.43H33.9335ZM71.029 119.044V127.258H74.237V129.783H71.029V140.842H68.015V119.044H71.029ZM54.769 123.333V120.876H64.8154V129.293H57.8251V133.244C60.9994 133.227 63.5997 133.083 66.487 132.594L66.7571 135.025C63.4393 135.633 60.4507 135.768 56.6179 135.777H54.7943V126.887H61.7761V123.333H54.769ZM86.8834 120.513V122.944H82.5441C82.561 125.477 84.0975 127.925 87.5588 128.955L86.1152 131.336C83.7007 130.61 82.0375 129.149 81.0751 127.292C80.1127 129.47 78.3482 131.209 75.748 132.062L74.203 129.656C77.7995 128.516 79.4373 125.705 79.4711 122.944H75.0304V120.513H86.8834ZM77.2001 136.562C77.1916 133.911 80.0451 132.366 84.6378 132.374C89.1713 132.366 91.9742 133.911 91.9742 136.562C91.9742 139.213 89.1713 140.791 84.6378 140.783C80.0451 140.791 77.1916 139.213 77.2001 136.562ZM80.2478 136.562C80.2393 137.803 81.7927 138.419 84.6378 138.411C87.466 138.419 88.9687 137.803 88.9687 136.562C88.9687 135.338 87.466 134.738 84.6378 134.747C81.7927 134.738 80.2393 135.338 80.2478 136.562ZM88.7154 131.952V119.044H91.7716V124.101H94.6926V126.583H91.7716V131.952H88.7154ZM113.502 119.044V140.842H110.488V129.175H106.672V126.735H110.488V119.044H113.502ZM96.1613 135.912V120.876H106.326V123.333H99.209V126.937H105.532V129.327H99.209V133.43C102.223 133.404 104.629 133.295 107.331 132.872L107.634 135.312C104.46 135.793 101.615 135.903 97.892 135.912H96.1613ZM140.817 128.989V131.471H120.961V128.989H140.817ZM123.223 136.764C123.223 134.215 126.085 132.78 130.83 132.78C135.549 132.78 138.386 134.215 138.403 136.764C138.386 139.339 135.549 140.791 130.83 140.783C126.085 140.791 123.223 139.339 123.223 136.764ZM123.358 127.469V119.643H138.436V122.083H126.398V125.046H138.546V127.469H123.358ZM126.33 136.764C126.313 137.921 127.824 138.461 130.83 138.47C133.785 138.461 135.338 137.921 135.346 136.764C135.338 135.667 133.785 135.101 130.83 135.093C127.824 135.101 126.313 135.667 126.33 136.764ZM161.45 130.711V133.143H141.577V130.711H150.011V129.132H144.05V123.155H155.996V121.83H144.016V119.474H159.052V125.35H147.081V126.794H159.449V129.132H153.024V130.711H161.45ZM143.797 136.773V134.375H159.17V140.69H156.097V136.773H143.797ZM173.695 138.132H182.611V136.612H173.695V138.132ZM167.414 128.204C171.467 128.212 176.752 128.212 181.386 127.63L181.555 129.783C179.884 130.07 178.161 130.264 176.456 130.39V132.94H173.695V134.308H182.611V132.467H185.624V140.547H170.673V132.467H173.434V130.551C171.416 130.627 169.483 130.627 167.769 130.627L167.414 128.204ZM168.174 125.021C171.619 124.329 173.189 122.471 173.197 120.479V119.601H176.329V120.479C176.329 122.328 177.917 124.075 181.285 124.717L179.985 127.005C177.495 126.498 175.764 125.342 174.801 123.788C173.856 125.494 172.1 126.785 169.508 127.351L168.174 125.021ZM182.585 131.598V119.078H185.624V131.598H182.585ZM206.857 119.044V140.791H203.986V119.044H206.857ZM187.76 134.122C192.15 131.513 194.092 128.347 194.497 124.084H188.959V121.636H197.528C197.52 123.704 197.3 125.646 196.777 127.436H199.377V119.542H202.23V139.82H199.377V129.85H195.831C194.59 132.332 192.572 134.485 189.482 136.258L187.76 134.122ZM213.619 121.298L213.298 133.413H210.242L209.921 121.298H213.619ZM209.769 136.798C209.752 135.701 210.672 134.806 211.778 134.806C212.842 134.806 213.771 135.701 213.779 136.798C213.771 137.904 212.842 138.799 211.778 138.799C210.672 138.799 209.752 137.904 209.769 136.798Z" fill="white"/>
</g>
</g>
<path d="M246.26 83.0739C246.26 80.8234 248.084 78.999 250.335 78.999H301.476C303.726 78.999 305.551 80.8234 305.551 83.0739V114.397H246.26V83.0739Z" fill="#0092F5"/>
<path d="M305.551 87.8486H318.99C320.518 87.8486 321.918 88.704 322.616 90.0641L329.88 104.229C330.175 104.805 330.329 105.442 330.329 106.089V114.747C330.329 116.997 328.505 118.822 326.254 118.822H305.551V87.8486Z" fill="white"/>
<path d="M244.49 116.434C244.49 115.309 245.402 114.396 246.528 114.396H305.551V118.821H246.528C245.402 118.821 244.49 117.909 244.49 116.784V116.434Z" fill="#C5C8D0"/>
<path d="M330.33 109.087C331.308 109.087 332.1 109.879 332.1 110.857V112.627C332.1 113.604 331.308 114.397 330.33 114.397V109.087Z" fill="#FFD357"/>
<circle cx="316.17" cy="118.821" r="7.96446" fill="#2D2D2D"/>
<circle cx="316.171" cy="118.821" r="3.53976" fill="white"/>
<circle cx="265.728" cy="118.821" r="7.96446" fill="#2D2D2D"/>
<circle cx="265.729" cy="118.821" r="3.53976" fill="white"/>
<rect x="309.092" y="103.777" width="4.4247" height="0.88494" rx="0.44247" fill="#BEC2C9"/>
<path d="M307.32 93.4261C307.32 92.3009 308.232 91.3887 309.358 91.3887H318.45C319.222 91.3887 319.927 91.8247 320.273 92.5149L323.102 98.1744C323.78 99.5291 322.795 101.123 321.28 101.123H309.358C308.232 101.123 307.32 100.211 307.32 99.0856V93.4261Z" fill="#BEC2C9"/>
</g>
</g>
<defs>
<clipPath id="clip0_20004809_9020">
<path d="M0 20C0 8.9543 8.9543 0 20 0H335C346.046 0 355 8.95431 355 20V182C355 193.046 346.046 202 335 202H20C8.9543 202 0 193.046 0 182V20Z" fill="white"/>
</clipPath>
<clipPath id="clip1_20004809_9020">
<path d="M0 20.001C0 8.95527 8.95431 0.000976562 20 0.000976562H336.549C347.594 0.000976562 356.549 8.95528 356.549 20.001V203.743H0V20.001Z" fill="white"/>
</clipPath>
<clipPath id="clip2_20004809_9020">
<rect width="192.536" height="203.742" fill="white" transform="translate(32.5996 0.00195312)"/>
</clipPath>
<clipPath id="clip3_20004809_9020">
<rect width="192.536" height="17.3181" fill="white" transform="translate(32.5996 58.1582)"/>
</clipPath>
<clipPath id="clip4_20004809_9020">
<rect width="192.536" height="64" fill="white" transform="translate(32.5996 81.5879)"/>
</clipPath>
</defs>
</svg>
