<svg width="68" height="69" viewBox="0 0 68 69" fill="none" xmlns="http://www.w3.org/2000/svg">
<g clip-path="url(#clip0_20004901_60429)">
<path d="M0 11.5966C0 5.192 5.19199 0 11.5966 0H55.6639C62.0685 0 67.2605 5.19199 67.2605 11.5966V57.4034C67.2605 63.808 62.0685 69 55.6639 69H11.5966C5.19199 69 0 63.808 0 57.4034V11.5966Z" fill="#4573EF"/>
<g clip-path="url(#clip1_20004901_60429)">
<path d="M41.0623 24.3738C41.0623 24.3738 46.9266 15.4855 43.8132 12.4797C40.6998 9.47392 36.6924 13.1716 36.6924 13.1716C36.6924 13.1716 36.0755 9.32405 31.8062 10.147C27.5361 10.9613 25.386 15.8157 25.386 15.8157C25.386 15.8157 21.2248 12.3907 18.9962 16.4365C16.7676 20.4823 19.1667 26.5011 19.1667 26.5011C19.1667 26.5011 16.1305 26.3446 17.2721 29.7851C18.4137 33.2257 23.4792 36.3978 23.4792 36.3978L41.0709 24.373L41.0623 24.3738Z" fill="#332F28"/>
<path d="M26.6637 82.1441C30.1887 82.7742 33.8586 82.9299 37.591 82.5673C39.9388 82.3392 42.2244 81.9174 44.4219 81.3045C45.5715 80.9844 46.691 80.6238 47.797 80.2124C49.2885 79.6594 50.745 79.0143 52.1416 78.2881L46.5094 49.8942L30.6305 47.7379L24.6337 50.17L26.6637 82.1441Z" fill="white"/>
<path d="M27.1202 40.0211L27.9353 50.5615C27.9353 50.5615 29.9698 53.3074 35.9033 53.3388C40.3205 53.3611 41.7884 52.246 41.7884 52.246L40.737 46.7127L39.7544 41.798L28.9305 40.2794L27.1116 40.022L27.1202 40.0211Z" fill="#FFDEC7"/>
<path d="M28.9244 40.2799C28.9684 40.5535 29.1033 40.8703 29.2941 41.2252C31.9269 46.0751 38.1576 46.6767 40.6964 46.7166L39.7154 41.8017L28.9244 40.2799Z" fill="#DDC0AC"/>
<path d="M40.1995 18.727C40.1995 18.727 46.4366 30.9201 44.9009 38.0767C43.3565 45.2341 36.8802 44.5174 32.9602 43.3961C29.0403 42.2747 27.1207 40.0299 27.1207 40.0299C27.1207 40.0299 23.614 41.4647 21.0126 38.2789C18.4113 35.0931 19.6542 31.1778 21.6491 30.1764C23.644 29.175 26.1602 30.5022 26.1602 30.5022L24.0293 26.9755C24.0293 26.9755 30.9174 7.98466 40.2004 18.7356L40.1995 18.727Z" fill="#FFDEC7"/>
<path d="M40.6972 46.7259C40.6972 46.7259 44.1721 63.4595 47.7965 80.2133C58.244 76.3241 66.4988 68.2716 70.7757 58.235C67.2695 55.2066 61.6359 50.1185 57.0683 48.7649C49.0946 46.3963 40.6972 46.7259 40.6972 46.7259Z" fill="white"/>
<path d="M-1.9369 61.2787C3.84039 72.1706 14.4463 79.971 26.7898 82.1321C27.6333 82.2846 28.4916 82.4096 29.3551 82.4994C29.2976 69.1589 27.6909 45.8876 27.6909 45.8876C27.6909 45.8876 10.1436 46.6373 -1.9369 61.2787Z" fill="white"/>
<path d="M26.2475 36.129C26.3507 36.119 26.4583 36.0651 26.5368 35.9793C26.6929 35.7992 26.6662 35.5239 26.4861 35.3677L23.0123 32.4056C22.8322 32.2494 22.557 32.2762 22.4009 32.4563C22.2447 32.6365 22.2715 32.9117 22.4516 33.0679L25.9254 36.03C26.0197 36.1077 26.1357 36.1398 26.2475 36.129Z" fill="#DDC0AC"/>
<path d="M21.9058 35.7521C21.9058 35.7521 21.9746 35.7454 22.0159 35.7241L24.6728 34.7452C24.8991 34.6624 25.0142 34.4168 24.9314 34.1904C24.8486 33.964 24.6031 33.8489 24.3767 33.9317L21.7199 34.9105C21.4935 34.9933 21.3785 35.2389 21.4613 35.4653C21.5313 35.6496 21.7158 35.7619 21.905 35.7435L21.9058 35.7521Z" fill="#DDC0AC"/>
<path d="M41.7058 23.9474C41.7893 23.9132 41.8703 23.8533 41.9143 23.7708C42.0336 23.5682 41.9732 23.3049 41.7707 23.1857C41.7243 23.1554 40.5544 22.4615 38.7374 23.5064C38.5316 23.6219 38.4621 23.8892 38.5776 24.095C38.693 24.3009 38.9688 24.3696 39.166 24.2549C40.506 23.4822 41.2846 23.9015 41.3215 23.9239C41.4409 23.9905 41.5801 23.9943 41.6972 23.9482L41.7058 23.9474Z" fill="black"/>
<path d="M32.1474 25.3788C32.242 25.3696 32.3419 25.3252 32.4126 25.2488C33.4326 24.2206 34.738 24.4325 34.7474 24.4402C34.9855 24.4779 35.2051 24.3263 35.2514 24.0873C35.289 23.8492 35.1374 23.6295 34.8985 23.5833C34.8281 23.5727 33.1248 23.2867 31.7979 24.64C31.6323 24.8123 31.6324 25.0815 31.8048 25.2471C31.9008 25.342 32.0262 25.3819 32.1466 25.3702L32.1474 25.3788Z" fill="black"/>
<path d="M41.6524 29.3791C41.9259 29.3351 42.077 29.1034 42.0372 28.8728L41.6215 26.56C41.5809 26.3208 41.3673 26.1766 41.1187 26.2094C40.8882 26.2492 40.7276 26.4732 40.7682 26.7124L41.1839 29.0252C41.2228 29.2471 41.4288 29.4008 41.6524 29.3791Z" fill="black"/>
<path d="M34.7734 30.3341C35.047 30.2902 35.1981 30.0584 35.1583 29.8279L34.7426 27.5151C34.7029 27.2845 34.4883 27.1317 34.2398 27.1645C34.0093 27.2043 33.8487 27.4283 33.8893 27.6675L34.305 29.9802C34.3439 30.2022 34.5498 30.3559 34.7734 30.3341Z" fill="black"/>
<path d="M40.5162 35.1164C40.6796 35.1005 40.8252 34.9908 40.8868 34.8199C42.0303 31.4005 39.5808 28.9727 39.4753 28.8701C39.303 28.7045 39.0339 28.7046 38.8683 28.8769C38.7027 29.0493 38.7028 29.3185 38.8752 29.4841C38.9618 29.5712 41.0384 31.6445 40.0691 34.5346" fill="black"/>
<path d="M38.2618 36.5766C38.3625 36.5408 38.4829 36.5291 38.5748 36.581C40.1132 37.404 41.2141 36.3158 41.2219 36.3064C41.433 36.1556 41.7251 36.2141 41.8664 36.4174C42.0171 36.6286 41.9673 36.9199 41.7554 37.0621C41.69 37.1032 40.2953 38.3849 38.2508 37.446C38.0147 37.3387 37.8864 37.0907 37.9756 36.8476C38.0233 36.7127 38.1353 36.615 38.2524 36.5689L38.2618 36.5766Z" fill="black"/>
<path d="M41.1174 20.6606C41.1174 20.6606 39.954 18.872 37.6278 19.0546C35.3016 19.2372 34.0819 20.9795 34.0819 20.9795C34.0819 20.9795 35.4262 24.8084 32.4415 27.1477C29.4567 29.4869 26.9636 29.1126 26.9636 29.1126L24.6027 28.491L22.6419 25.2864L28.6654 17.5896L36.8633 12.3473L41.5622 15.9459L41.1002 20.6623L41.1174 20.6606Z" fill="#332F28"/>
</g>
</g>
<defs>
<clipPath id="clip0_20004901_60429">
<path d="M0 11.5966C0 5.192 5.19199 0 11.5966 0H55.6639C62.0685 0 67.2605 5.19199 67.2605 11.5966V57.4034C67.2605 63.808 62.0685 69 55.6639 69H11.5966C5.19199 69 0 63.808 0 57.4034V11.5966Z" fill="white"/>
</clipPath>
<clipPath id="clip1_20004901_60429">
<rect width="72.6664" height="72.6664" fill="white" transform="matrix(-0.995313 0.096702 0.096702 0.995313 65.7812 6.82031)"/>
</clipPath>
</defs>
</svg>
